<?xml version="1.0" standalone="no"?>
<!DOCTYPE svg PUBLIC "-//W3C//DTD SVG 1.1//EN" "http://www.w3.org/Graphics/SVG/1.1/DTD/svg11.dtd">
<svg xmlns="http://www.w3.org/2000/svg"><metadata>This SVG WebFont was generated by YouWorkForThem.
Copyright (c) 2020 by Dharmas Studio. All rights reserved.</metadata><defs><font horiz-adv-x="493" id="ywftsvg"><font-face ascent="1536" bbox="-888 -437.105 2454 1560.49" cap-height="1118" descent="-512" font-family="" font-stretch="normal" font-weight="400" panose-1="0 0 0 0 0 0 0 0 0 0" underline-position="0" underline-thickness="0" unicode-range="U+000D-FB06" units-per-em="2048" x-height="795"/><missing-glyph horiz-adv-x="325"/><glyph d="M895 940q31 -80 -80 -135q-100 -51 -190 -29q-86 23 -56 111q25 76 -7 121t-97 28q-51 -12 -79 -87t-15.5 -154.5t59.5 -104.5h74q16 0 27.5 -12t11.5 -29v-67h-123q-14 -285 37 -351q6 -8 21.5 -19t23.5 -22.5t6 -27.5q-12 -72 -246 -72q-252 0 -262 72q-2 14 7 23.5 t26.5 20.5t25.5 21q31 39 42.5 143.5t4.5 211.5h-43q-16 0 -27 11t-11 28v28q0 16 11 28.5t27 12.5h31q-41 180 86 304t324 124h2q152 0 250 -37t139 -141zM999 735q-12 -55 -22 -142t-4 -211t47 -169q6 -6 18.5 -15.5t17.5 -17.5t5 -18q-10 -72 -246 -72q-227 0 -237 72 q-2 10 2 18t6 11.5t14 13.5t14 12q31 29 35 143.5t-26 155.5q-6 6 -20.5 21.5t-21 26.5t-3.5 26q2 18 13 33.5t37.5 33t39 25.5t52.5 27.5t44 21.5q229 115 237 35q2 -13 -2 -31z" glyph-name="uniE03F" horiz-adv-x="1075" unicode="fi"/><glyph d="M967 213q6 -6 18 -15.5t17.5 -17.5t3.5 -18q-10 -72 -246 -72q-227 0 -238 72q0 10 3 18t7.5 12.5t13.5 12.5t13 12q45 41 45 322q0 131 -11 229t-29.5 152.5t-43 87t-51.5 33.5t-53 -5q-45 -18 -59.5 -93t7 -152.5t66.5 -100.5h102q16 0 27.5 -12t11.5 -29v-67h-151 q-14 -285 37 -351q6 -8 21.5 -19t23.5 -22.5t6 -27.5q-12 -72 -246 -72q-252 0 -262 72q-2 14 7 23.5t26.5 20.5t25.5 21q31 39 42.5 143.5t4.5 211.5h-43q-16 0 -27 11t-11 28v28q0 16 11 28.5t27 12.5h31q-39 178 76 303t283 125h2q160 0 260 -67q193 94 225 53 q14 -18 6 -53q-10 -41 -22.5 -217.5t-5 -376t48.5 -244.5z" glyph-name="uniE04D" horiz-adv-x="1030" unicode="fl"/><glyph d="M743 229q135 0 203 -106q70 -109 2 -227q-102 -174 -440 -213q-78 -8 -168 -9q-328 0 -446 99q-106 88 -44 176q47 72 144 80q90 10 131 -56q70 -109 156 -155.5t163 -46.5q80 0 132.5 48t50.5 96t-33 71q-33 16 -116 -11.5t-171 -21.5q-82 6 -135 33.5t-69.5 66.5 t-11.5 80t39 76t85 51q-98 41 -156.5 106.5t-58.5 141.5q0 121 133 207t322 86q41 0 110 -8q39 98 135.5 181t204 124t213 29.5t160.5 -87.5q51 -84 8 -143t-131 -88t-141 -8q-240 94 -316 -45q96 -39 153.5 -104.5t57.5 -143.5q0 -121 -134 -206t-320 -85q-43 0 -64 2 q-80 -31 -115 -106q-35 -74 21 -95q6 0 12 -2q47 -8 101.5 23t96.5 74t106 79.5t130 36.5zM455 717q-37 0 -63.5 -61.5t-26.5 -149.5t26.5 -150.5t63.5 -62.5t63.5 62.5t26.5 150.5t-26.5 149.5t-63.5 61.5zM1364 735q-12 -55 -22.5 -142t-4.5 -211t47 -169q6 -6 18.5 -15.5 t17.5 -17.5t3 -18q-10 -72 -243 -72q-227 0 -238 72q-2 10 1 18t7 12.5t13.5 12.5t13.5 12q33 29 37 143.5t-27 155.5l-17.5 17.5t-16.5 18.5t-9 17.5t-2 20.5q2 18 13.5 33.5t38 33t38.5 25.5t52 27.5t44 21.5q229 115 238 35q2 -13 -2 -31z" glyph-name="uniE04F" horiz-adv-x="1437" unicode="gi"/><glyph d="M979 735q-12 -47 -23.5 -140t-4.5 -215t48 -167q6 -6 18.5 -15.5t17.5 -17.5t3 -18q-10 -72 -245 -72q-227 0 -238 72q0 10 3 18t7 12.5t13.5 12.5t13.5 12q33 29 37 143.5t-29 155.5q-6 6 -20.5 21.5t-20.5 26.5t-4 26q2 18 13.5 33.5t38 33t38.5 25.5t52 27.5t44 21.5 q188 92 228 62q18 -17 10 -58zM872 1075q72 -25 56 -106q-16 -86 -113 -138q-59 -31 -133 -30q-80 0 -183.5 -105.5t-103.5 -206.5q0 -225 49 -276q6 -6 18.5 -15.5t17.5 -17.5t3 -18q-10 -72 -245 -72q-227 0 -238 72q-2 10 2 18t8 12.5t13.5 12.5t13.5 12q33 29 37 143.5 t-29 155.5q-6 6 -20.5 21.5t-20.5 26.5t-4 26q2 18 13.5 33.5t38 33t38.5 25.5t52 27.5t44 21.5q186 90 226 62q20 -16 10 -58q0 -2 -4 -26q39 135 183 273t271 93z" glyph-name="uniE050" horiz-adv-x="1056" unicode="ri"/><glyph d="M1350 735q-12 -49 -23.5 -141t-5.5 -214t49 -167q6 -6 18.5 -15.5t17.5 -17.5t3 -18q-10 -72 -246 -72q-227 0 -237 72q-2 10 2 18t8 12.5t13 12.5t14 12q33 29 37 143.5t-29 155.5q-6 6 -20.5 21.5t-20.5 26.5t-4 26q2 18 13 33.5t38 33t39 25.5t52 27.5t44 21.5 q188 92 227 62q19 -17 11 -58zM1151 1155q115 0 129 -94q12 -88 -63 -168q-43 -45 -101 -62q-113 -31 -213 -152.5t-272 -467.5q-29 -57 -89.5 -89t-121.5 -32q-39 0 -70 24.5t-39 73.5q-27 145 -107.5 294t-142.5 196q-6 4 -18 11t-19.5 12.5t-13.5 12.5t-8 15 q-20 72 215 72q244 0 283 -72q6 -10 6 -18.5t-2 -12.5t-9.5 -12t-9.5 -12q-10 -16 11.5 -79t52.5 -144.5t37 -126.5q37 125 93 258t130 267t165 220t177 86z" glyph-name="uniE051" horiz-adv-x="1425" unicode="vi"/><glyph d="M1821 735q-12 -55 -22.5 -142t-4.5 -211t49 -169q6 -6 17.5 -15.5t16.5 -17.5t5 -18q-10 -72 -246 -72q-227 0 -237 72q-2 10 2 18t6 11.5t14.5 13.5t14.5 12q33 29 36 143.5t-28 155.5q-6 6 -20.5 21.5t-20.5 26.5t-4 26q2 18 13 33.5t38 33t39 25.5t52 27.5t44 21.5 q229 115 238 35q2 -13 -2 -31zM1694 1130q100 -14 122.5 -89.5t-28.5 -144.5t-133 -69q-111 0 -212.5 -107.5t-145.5 -196.5t-117 -265q-14 -33 -21 -47q-25 -59 -85 -90t-122 -31q-92 0 -112 98q-23 98 -62 215q-74 -135 -125 -192q-106 -121 -204 -121q-92 0 -115 98 q-33 145 -120 294t-151 196q-8 4 -19 11t-18.5 12.5t-14.5 12.5t-9 15q-8 23 12.5 37t57.5 21.5t71.5 10.5t71.5 3q244 0 285 -72q6 -10 6 -18.5t-1 -12.5t-7 -12l-9 -12q-10 -16 13.5 -79t57.5 -144.5t42 -126.5q63 106 80 182q25 115 -55 172q-8 4 -19.5 11t-18.5 12.5 t-14.5 12.5t-9.5 15q-14 41 32 56.5t122 15.5q244 0 287 -72q6 -10 6 -18.5t-1 -11.5t-8.5 -13t-9.5 -12q-10 -16 13.5 -79t58.5 -144.5t43 -126.5q29 131 82 269t127 269t174.5 206.5t202.5 61.5z" glyph-name="uniE052" horiz-adv-x="1898" unicode="wi"/><glyph d="M1460 213q6 -4 15.5 -11t14.5 -12.5t9 -12.5t2 -15q-10 -72 -207 -72q-84 0 -153.5 45t-69.5 156v282q0 117 -47 113t-94 -98q-43 -82 -43 -160q0 -158 51 -215q6 -6 18.5 -15.5t17.5 -17.5t3 -18q-10 -72 -244 -72q-227 0 -237 72q-2 10 1 18t7 12.5t13 12.5t13 12 q33 29 37 143.5t-26 155.5l-17.5 17.5t-16.5 18.5t-9 17.5t-2 20.5q4 43 79 86q68 47 95.5 135t9.5 171t-76 122q-88 61 -177 5t-62 -153q20 -78 -74 -118q-94 -39 -180 -2q-84 39 -70 135q16 109 142 178.5t270 69.5q221 0 369.5 -158t84.5 -387q33 61 85 94t100 33 q104 0 171.5 -79t90 -176t50 -199.5t56.5 -133.5zM444 213q6 -6 18.5 -15.5t17.5 -17.5t3 -18q-10 -72 -245 -72q-227 0 -238 72q-2 10 2 18t8 12.5t13.5 12.5t13.5 12q33 29 37 143.5t-29 155.5q-6 6 -20.5 21.5t-20.5 26.5t-4 26q2 18 13.5 33.5t38 33t38.5 25.5t52 27.5 t44 21.5q186 90 226 62q20 -16 10 -58q-12 -55 -22.5 -142t-4.5 -211t49 -169z" glyph-name="uniE053" horiz-adv-x="1517" unicode="in"/><glyph d="M1864 213q6 -6 18 -15.5t17.5 -17.5t5.5 -18q-10 -72 -209 -72q-51 0 -99.5 13.5t-93.5 61.5t-45 126v282q0 96 -33 86q-37 -10 -67 -118q-20 -66 -21 -131v-119q0 -29 14.5 -49.5t31 -28.5t29.5 -21.5t11 -29.5q-10 -72 -206 -72q-80 0 -139.5 44t-59.5 157v282 q0 94 -31 89q-37 -8 -74 -117q-31 -88 -24 -160q8 -127 49 -172q6 -6 18.5 -15.5t17.5 -17.5t3 -18q-10 -72 -244 -72q-227 0 -237 72q-2 10 1 18t7 12.5t13 12.5t13 12q33 29 37 143.5t-26 155.5l-17.5 17.5t-16.5 18.5t-9 17.5t-2 20.5q4 43 79 86q68 47 95.5 135t9.5 171 t-76 122q-88 61 -177 5t-62 -153q20 -78 -74 -118q-94 -39 -180 -2q-84 39 -70 135q16 109 142 178.5t270 69.5q221 0 369.5 -158t84.5 -387q-4 -18 -4 -29q59 156 187 156q90 0 150 -61.5t85 -161.5v4q18 92 72.5 155.5t132.5 63.5q82 0 132 -45t71.5 -119t35 -150.5 t36 -154.5t59.5 -119zM444 213q6 -6 18.5 -15.5t17.5 -17.5t3 -18q-10 -72 -245 -72q-227 0 -238 72q-2 10 2 18t8 12.5t13.5 12.5t13.5 12q33 29 37 143.5t-29 155.5q-6 6 -20.5 21.5t-20.5 26.5t-4 26q2 18 13.5 33.5t38 33t38.5 25.5t52 27.5t44 21.5q186 90 226 62 q20 -16 10 -58q-12 -55 -22.5 -142t-4.5 -211t49 -169z" glyph-name="uniE054" horiz-adv-x="1923" unicode="im"/><glyph d="M1305 709q16 -27 11 -66t-33 -70.5t-61.5 -52t-74.5 -11.5t-72 52q-23 33 -34 47.5t-34.5 31.5t-50.5 17q-53 0 -61 -84q-23 -291 45 -360q6 -6 18.5 -15.5t17.5 -17.5t3 -18q-10 -72 -246 -72q-227 0 -237 72q-2 10 2 18t8 12.5t13 12.5t13 12q33 29 37 143.5t-28 155.5 q-6 6 -20.5 21.5t-20.5 26.5t-4 26q4 33 59 74h-2l12 6l2 2h2q72 47 101.5 135t10.5 172t-77 125q-88 61 -177 5t-62 -153q20 -78 -74 -118q-94 -39 -180 -2q-84 39 -70 135q16 109 142 178.5t270 69.5q211 0 358 -144.5t104 -361.5q82 88 191 88q131 0 199 -92zM444 213 q6 -6 18.5 -15.5t17.5 -17.5t3 -18q-10 -72 -245 -72q-227 0 -238 72q-2 10 2 18t8 12.5t13.5 12.5t13.5 12q33 29 37 143.5t-29 155.5q-6 6 -20.5 21.5t-20.5 26.5t-4 26q2 18 13.5 33.5t38 33t38.5 25.5t52 27.5t44 21.5q186 90 226 62q20 -16 10 -58q-12 -55 -22.5 -142 t-4.5 -211t49 -169z" glyph-name="uniE055" horiz-adv-x="1331" unicode="ir"/><glyph d="M1053 690q16 0 27.5 -12t11.5 -29v-67h-193q-20 -117 -2 -220.5t61 -132.5q12 -8 38 -8t32 -10q20 -45 -60.5 -83t-193.5 -38q-102 0 -163.5 46t-61.5 138v308h-45q-16 0 -28.5 11t-12.5 28v28q0 16 12 28.5t29 12.5h90q92 80 94 218.5t-84 195.5q-88 61 -177 5t-62 -153 q20 -78 -74 -118q-94 -39 -180 -2q-84 39 -70 135q16 109 142 178.5t270 69.5q217 0 365.5 -152t92.5 -377h142zM444 213q6 -6 18.5 -15.5t17.5 -17.5t3 -18q-10 -72 -245 -72q-227 0 -238 72q-2 10 2 18t8 12.5t13.5 12.5t13.5 12q33 29 37 143.5t-29 155.5 q-6 6 -20.5 21.5t-20.5 26.5t-4 26q2 18 13.5 33.5t38 33t38.5 25.5t52 27.5t44 21.5q186 90 226 62q20 -16 10 -58q-12 -55 -22.5 -142t-4.5 -211t49 -169z" glyph-name="uniE056" horiz-adv-x="1116" unicode="it"/><glyph d="M1106 801q127 0 217 -104.5t90 -252.5q0 -141 -96 -247.5t-211 -106.5q-78 0 -143.5 11.5t-79.5 11.5q-31 0 -119 -11.5t-100 -11.5q-131 0 -142 72q-2 10 2 18t8.5 12.5t13.5 12.5t13 12q45 41 45 322v321q0 41 -92 17.5t-211 -54t-231 20.5q-94 49 -64 141 q29 78 113 113q104 43 194 -33q94 -80 224.5 -80t220.5 84q33 31 68.5 46t65.5 1t30 -65v-267q-2 -18 -2 -57q84 74 186 74zM449 735q-12 -55 -22.5 -142t-4.5 -211t49 -169q6 -6 18.5 -15.5t17.5 -17.5t3 -18q-10 -72 -246 -72q-227 0 -237 72q-2 10 2 18t8 12.5t13 12.5 t13 12q33 29 37 143.5t-28 155.5q-6 6 -20.5 21.5t-20.5 26.5t-4 26q2 18 13 33.5t37.5 33t39 25.5t52.5 27.5t44 21.5q186 90 225 62q21 -17 11 -58zM997 186q113 53 123 240q8 152 -51 238q-49 70 -108 16q-29 -25 -37.5 -71t-8.5 -156q0 -291 74 -269q4 0 8 2z" glyph-name="uniE057" horiz-adv-x="1433" unicode="ib"/><glyph d="M1493 219q6 -4 21.5 -15t21.5 -20.5t4 -21.5q-10 -72 -190 -72q-84 0 -156 45t-72 156v282q0 121 -57 115q-49 -4 -96 -94q-53 -109 -41 -229q10 -117 41 -152q6 -6 18 -15.5t17.5 -17.5t5.5 -18q-10 -72 -246 -72q-227 0 -238 72q-2 10 2 18t6.5 11.5t14.5 13.5t14 12 q45 43 45 322q0 106 -2 149v172q0 41 -93 17.5t-212 -54t-231 20.5q-94 49 -64 141q29 78 113 113q104 43 194 -33q94 -80 224.5 -80t220.5 84q33 31 68.5 46t65.5 1t30 -65v-363q-2 -20 -2 -63q29 84 90 130t116 46q111 0 180.5 -81t91 -179.5t45 -197.5t50.5 -124z M453 735q-12 -55 -22.5 -142t-4.5 -211t47 -169q6 -6 18.5 -15.5t17.5 -17.5t5 -18q-10 -72 -246 -72q-227 0 -237 72q-2 10 2 18t6 11.5t14.5 13.5t14.5 12q31 29 34.5 143.5t-26.5 155.5q-6 6 -20.5 21.5t-20.5 26.5t-4 26q2 18 13 33.5t38 33t39 25.5t52 27.5t44 21.5 q229 115 238 35q2 -13 -2 -31z" glyph-name="uniE058" horiz-adv-x="1554" unicode="ih"/><glyph d="M1491 219q6 -6 18.5 -13t17.5 -12.5t10 -13.5t3 -18q-10 -72 -192 -72q-84 0 -159 45t-75 156q0 55 -38 100t-95 37q-63 -8 -53 -82q16 -106 41 -133q6 -6 18 -15.5t17.5 -17.5t5.5 -18q-10 -72 -246 -72q-227 0 -238 72q-2 10 2 18t6.5 11.5t14.5 13.5t14 12 q45 43 45 322l-2 245v76q0 41 -93 17.5t-212 -54t-231 20.5q-94 49 -64 141q29 78 113 113q104 43 194 -33q94 -80 225.5 -80t219.5 84q33 31 68.5 46t65.5 1t30 -65q-4 -467 -4 -519l229 168q12 12 8 38t2 34q25 29 133 29q127 0 131 -27q2 -4 -4 -10q-16 -16 -73.5 -41 t-88.5 -45l-133 -96q86 12 151.5 -34t97.5 -109.5t64.5 -132.5t55.5 -87zM453 735q-12 -55 -22.5 -142t-4.5 -211t47 -169q6 -6 18.5 -15.5t17.5 -17.5t5 -18q-10 -72 -246 -72q-227 0 -237 72q-2 10 2 18t6 11.5t14.5 13.5t14.5 12q31 29 34.5 143.5t-26.5 155.5 q-6 6 -20.5 21.5t-20.5 26.5t-4 26q2 18 13 33.5t38 33t39 25.5t52 27.5t44 21.5q229 115 238 35q2 -13 -2 -31z" glyph-name="uniE059" horiz-adv-x="1560" unicode="ik"/><glyph d="M969 213q6 -6 18 -15.5t17.5 -17.5t5.5 -18q-10 -72 -246 -72q-227 0 -238 72q-2 10 2 18t6.5 11.5t14.5 13.5t14 12q45 43 45 322q0 33 -1 174t-1 147q0 41 -93 17.5t-212 -54t-231 20.5q-94 49 -64 141q29 78 113 113q104 43 194 -33q94 -80 224.5 -80t220.5 84 q33 31 68.5 46t65.5 1t30 -65v-363q-16 -405 47 -475zM453 735q-12 -55 -22.5 -142t-4.5 -211t47 -169q6 -6 18.5 -15.5t17.5 -17.5t5 -18q-10 -72 -246 -72q-227 0 -237 72q-2 10 2 18t6 11.5t14.5 13.5t14.5 12q31 29 34.5 143.5t-26.5 155.5q-6 6 -20.5 21.5t-20.5 26.5 t-4 26q2 18 13 33.5t38 33t39 25.5t52 27.5t44 21.5q229 115 238 35q2 -13 -2 -31z" glyph-name="uniE05A" horiz-adv-x="1026" unicode="il"/><glyph d="M1323 690q16 0 27.5 -12t11.5 -29v-67h-191q-16 -305 60 -353q12 -8 37.5 -8t29.5 -10q20 -45 -60.5 -83t-193.5 -38q-102 0 -162.5 46t-60.5 138v308h-47q-16 0 -27.5 11t-11.5 28v28q0 16 11.5 28.5t27.5 12.5q72 0 109 111q39 117 2 207q-31 76 -102.5 57.5 t-98.5 -152t21 -276.5l10 -21q8 -20 8 -28q2 -2 0 -2q12 -61 -47.5 -90t-130 -8.5t-86.5 73.5q-6 20 -12.5 50t-10.5 48.5t-10 36t-17.5 23.5t-27.5 2q-35 -10 -56.5 -81t-21.5 -144q0 -121 65.5 -173.5t159 -25.5t172.5 115q23 25 42.5 15.5t15.5 -38.5l-4 -20 q-29 -121 -133.5 -200t-239.5 -79q-158 0 -269.5 104.5t-111.5 249.5q0 147 111.5 252t269.5 105q61 0 123 -17q6 129 72.5 228.5t205.5 130.5q55 12 117 5t121 -37t101 -85t60.5 -138t-3.5 -198h145z" glyph-name="uniE05B" horiz-adv-x="1386" unicode="ct"/><glyph d="M1028 690q16 0 28.5 -12t12.5 -29v-67h-192q-16 -305 59 -353q12 -8 37.5 -8t30.5 -10q20 -45 -61 -83t-193 -38q-102 0 -163 46t-61 138v308h-106q-14 -285 37 -351q6 -8 21.5 -19t23.5 -22.5t6 -27.5q-12 -72 -246 -72q-252 0 -262 72q-2 14 7 23.5t26.5 20.5t25.5 21 q31 39 42.5 143.5t4.5 211.5h-43q-16 0 -27 11t-11 28v28q0 16 11 28.5t27 12.5h31q-41 180 93.5 304t347.5 124h4q207 0 310 -107.5t34 -320.5h145zM430 690h49q49 18 154 139q68 90 13.5 164t-148.5 43q-63 -20 -97 -96t-25 -151.5t54 -98.5z" glyph-name="uniE05E" horiz-adv-x="1085" unicode="ft"/><glyph d="M918 1051q-10 -43 -22.5 -217.5t-5.5 -375t50 -245.5q6 -6 17.5 -15.5t16.5 -17.5t5 -18q-10 -72 -246 -72q-227 0 -237 72q-2 10 2 18t6 11.5t14 13.5t14 12q45 41 46 322v32q0 76 -1.5 113t-9.5 80t-26 67q-6 8 -16.5 19.5t-16.5 17.5t-10 16.5t-2 22.5q2 18 14 33.5 t35.5 32t40 26t51.5 26.5t45 22q41 20 72.5 34.5t80 29.5t71 1t12.5 -61zM422 969q-10 -47 -21.5 -199t-5.5 -332t49 -225q6 -6 18.5 -15.5t17.5 -17.5t3 -18q-10 -72 -245 -72q-227 0 -238 72q-2 10 2 18t8 12.5t13.5 12.5t13.5 12q45 41 45 277v36.5v42t-1 39t-3 42t-6 34 t-11.5 33.5t-15.5 27q-6 8 -20.5 23t-20.5 26.5t-4 25.5q2 12 8 24.5t20.5 25t26 20.5t33 19.5t31.5 17.5t35.5 17t31.5 16q45 23 75 36t79 29t70.5 1t11.5 -60z" glyph-name="uniE05F" horiz-adv-x="993" unicode="ll"/><glyph d="M1096 690q16 0 28.5 -12t12.5 -29v-67h-193q-16 -303 60 -353q12 -8 37.5 -8t29.5 -10q20 -45 -60.5 -83t-193.5 -38q-102 0 -162.5 46t-60.5 138v308h-158q-12 -307 60 -353q12 -8 37.5 -8t31.5 -10q20 -45 -60.5 -83t-193.5 -38q-102 0 -163.5 46t-61.5 138v308h-47 q-14 0 -26.5 12t-12.5 27v28q0 25 39 41q47 18 118.5 100t138 153t116.5 71q14 0 22 -2t20.5 -8.5t16.5 -26t0 -47.5l-2 -12q-2 -12 -5 -36t-6 -51.5t-7.5 -65.5t-6.5 -75q72 0 137.5 34t110.5 81t84 94t76 81t68 34q14 0 22 -2t20.5 -8.5t16.5 -26t0 -47.5l-2 -12 q-2 -12 -5 -36t-6 -51.5t-7.5 -65.5t-8.5 -75h146z" glyph-name="uniE061" horiz-adv-x="1153" unicode="tt"/><glyph d="M1346 918q25 -92 -78 -138q-92 -41 -172 -6q-78 33 -49 119q25 74 -9 120t-92 23q-45 -16 -59.5 -92t7 -153.5t67.5 -100.5h139q16 0 28.5 -12t12.5 -29v-67h-189q-14 -285 35 -351q6 -8 21.5 -19t23.5 -22.5t6 -27.5q-10 -72 -245 -72q-250 0 -263 72q-2 18 26 36.5 t34 28.5q31 39 42 143.5t5 211.5h-217q-14 -285 37 -351q6 -8 21.5 -19t23.5 -22.5t6 -27.5q-12 -72 -246 -72q-252 0 -262 72q-2 14 7 23.5t26.5 20.5t25.5 21q31 39 42.5 143.5t4.5 211.5h-43q-16 0 -27 11t-11 28v28q0 16 11 28.5t27 12.5h31q-39 178 76 303t283 125h2 q143 0 188 -57q51 -57 -18 -133q-57 -61 -109 -56q-37 6 -37 56q0 74 -15 99.5t-48 8.5q-68 -33 -62 -172t76 -174h195q-39 178 76.5 303t281.5 125h4q133 0 232.5 -51t126.5 -149z" glyph-name="uniFB00" horiz-adv-x="1161" unicode="ff"/><glyph d="M1337 690q16 0 28.5 -12t12.5 -29v-67h-192q-16 -303 59 -353q12 -8 38 -8t32 -10q20 -45 -62 -83t-194 -38q-100 0 -161.5 46t-61.5 138v308h-48q-16 0 -27 11t-11 28v28q0 25 38 41q145 82 162 215q12 100 -53 146q-43 29 -98 14q-80 -20 -106.5 -135t32.5 -262v-2 q37 -74 -51 -107t-172 4q-74 33 -66 101q6 49 -18.5 69.5t-54 8t-37.5 -43.5q-12 -55 43 -105t130.5 -84t145.5 -87t80 -111q14 -82 -94.5 -151.5t-255.5 -69.5h-4q-121 0 -224.5 35t-136.5 100q-37 74 51 107t172 -4q74 -33 66 -101q-6 -49 17.5 -69.5t53 -8t40.5 43.5 q14 45 -20 81.5t-94 66.5t-121.5 59.5t-110 73.5t-54.5 97q-12 104 90.5 167t259.5 63h5q74 0 155 -17q6 131 72.5 229.5t206.5 129.5q70 16 145.5 -2.5t141 -67.5t97 -149.5t9.5 -233.5h145z" glyph-name="uniFB06" horiz-adv-x="1398" unicode="st"/><glyph glyph-name=".notdef" horiz-adv-x="325"/><glyph glyph-name="glyph1" horiz-adv-x="0"/><glyph glyph-name="glyph2" horiz-adv-x="681"/><glyph glyph-name="glyph3" horiz-adv-x="0"/><glyph glyph-name="glyph3" horiz-adv-x="0"/><glyph glyph-name="space" horiz-adv-x="325" unicode=" "/><glyph d="M170 332q49 0 85 -35t36 -86t-36 -86t-85 -35q-51 0 -87 35t-36 86t36 86t87 35zM170 1118q88 0 137 -67.5t23 -194.5l-72 -315q-35 -152 -88 -152q-55 0 -90 152l-72 315q-27 127 23.5 194.5t138.5 67.5z" glyph-name="exclam" horiz-adv-x="350" unicode="!"/><glyph d="M106.5 1118q47.5 0 77 -30.5t29.5 -75.5q0 -33 -19.5 -99.5t-37.5 -117.5l-21 -50q-12 -25 -29 -24q-20 0 -28 24q-78 190 -78 267q0 45 29.5 75.5t77 30.5zM338 1118q47 0 76.5 -30.5t29.5 -75.5q0 -33 -19 -99.5t-40 -117.5l-18 -50q-12 -25 -29 -24q-20 0 -29 24 q-78 190 -78 267q0 45 30 75.5t77 30.5z" glyph-name="quotedbl" horiz-adv-x="462" unicode="&quot;"/><glyph d="M739 782q33 0 56.5 -18.5t23.5 -42.5q0 -27 -22.5 -44.5t-57.5 -17.5h-135l-33 -110h115q33 0 56.5 -18.5t23.5 -43.5q0 -27 -23.5 -44t-56.5 -17h-151l-37 -125q-8 -33 -34 -56.5t-52 -23.5q-25 0 -35 23.5t-2 56.5l37 125h-111l-37 -125q-8 -33 -33.5 -56.5 t-52.5 -23.5q-25 0 -35 23.5t-2 56.5l37 125h-98q-33 0 -56.5 17.5t-23.5 43.5q0 25 23.5 43.5t56.5 18.5h135l33 110h-115q-33 0 -56.5 17.5t-23.5 44.5q0 25 23.5 43t56.5 18h152l37 123q8 33 33.5 56.5t52.5 23.5q25 0 35 -23.5t1 -56.5l-36 -123h110l37 123 q8 33 33.5 56.5t52.5 23.5q25 0 35 -23.5t2 -56.5l-37 -123h98zM449 549l32 110h-110l-33 -110h111z" glyph-name="numbersign" horiz-adv-x="833" unicode="#"/><glyph d="M412 911q8 -55 67.5 -104t140 -87t161.5 -77t143.5 -95t72.5 -122q18 -123 -113.5 -221.5t-322.5 -112.5v-63q0 -33 -18.5 -56.5t-42.5 -23.5q-27 0 -44.5 23.5t-17.5 56.5v63q-150 8 -269.5 57.5t-156.5 135.5q-43 98 64 153q100 49 217 19q121 -31 119 -131 q0 -10 -2 -23q-12 -70 31.5 -99.5t98 -12t68.5 62.5q20 63 -29 115.5t-136 92.5t-178 81t-160.5 102.5t-73.5 138.5q-8 135 106.5 223.5t300.5 106.5v64q0 35 17.5 57t44.5 22q25 0 43 -23.5t18 -55.5v-62q123 -4 225.5 -54t143.5 -140q43 -96 -51 -144q-90 -43 -197 -2 q-96 37 -117 127q-23 109 -84 117q-45 6 -63 -47q-10 -27 -6 -62z" glyph-name="dollar" horiz-adv-x="1009" unicode="$"/><glyph d="M412 891q0 -92 -60.5 -158.5t-144.5 -66.5q-86 0 -146.5 66.5t-60.5 158.5q0 94 60.5 160.5t146.5 66.5q84 0 144.5 -66.5t60.5 -160.5zM135 891q0 -76 20.5 -129t51.5 -53q29 0 50.5 53t21.5 129t-21.5 130t-50.5 54q-31 0 -51.5 -53t-20.5 -131zM649 549 q86 0 146.5 -65.5t60.5 -160t-60.5 -160t-146.5 -65.5q-84 0 -145.5 65.5t-61.5 160t61.5 160t145.5 65.5zM649 141q31 0 51.5 53.5t20.5 129t-21.5 130t-50 54.5t-50 -54.5t-21.5 -130t21 -129t50 -53.5zM641 1118q27 0 35 -23.5t-6 -56.5l-367 -868q-39 -80 -94 -80 q-27 0 -35 22.5t6 57.5l367 868q37 80 94 80z" glyph-name="percent" horiz-adv-x="868" unicode="%"/><glyph d="M1249 121q39 -16 25 -45q-41 -70 -150.5 -107t-210.5 4q-47 23 -120 68q-217 -63 -414 -31q-264 45 -346 204t12 298t264 139q-29 172 49 299t238 158q172 33 283.5 -34.5t142.5 -160.5q31 -96 -61 -141q-80 -39 -154 -4q-57 29 -57 90q0 53 -32 110.5t-69 45.5 q-41 -14 -49 -67.5t18.5 -132.5t76.5 -169t129 -186.5t171 -173.5q39 119 -92 243q-96 94 -24 154q63 55 178 35q137 -25 178 -142q8 -25 12 -49q23 -172 -145 -321q73 -51 147 -84zM328 578q-47 -51 -31 -128t64.5 -150t136.5 -126t184 -59q-276 209 -354 463z" glyph-name="ampersand" horiz-adv-x="1284" unicode="&amp;"/><glyph d="M106.5 1118q47.5 0 77 -30.5t29.5 -75.5q0 -33 -19.5 -99.5t-37.5 -117.5l-21 -50q-12 -25 -29 -24q-20 0 -28 24q-78 190 -78 267q0 45 29.5 75.5t77 30.5z" glyph-name="quotesingle" horiz-adv-x="231" unicode="'"/><glyph d="M418 1184q-53 -49 -97.5 -213t-44.5 -367q0 -205 44.5 -368.5t97.5 -212.5q18 -16 18 -29.5t-18 -13.5q-170 0 -294 183t-124 441q0 256 124 439.5t294 183.5q18 0 18 -13.5t-18 -29.5z" glyph-name="parenleft" horiz-adv-x="415" unicode="("/><glyph d="M-23 1227q172 0 295 -182.5t123 -440.5t-122.5 -441t-295.5 -183q-18 0 -18 13t18 30q53 49 98.5 213.5t45.5 367.5t-45 367t-99 213q-18 16 -18 29.5t18 13.5z" glyph-name="parenright" horiz-adv-x="411" unicode=")"/><glyph d="M311 901q41 -20 19 -61q-27 -45 -64 -17q-31 20 -76 70q20 -80 23 -100q2 -18 -10.5 -33t-35 -15t-34.5 14.5t-10 33.5q4 31 22 100q-45 -49 -75 -70q-37 -29 -62 17q-25 41 17 61q18 8 98 31q-53 12 -98 31q-41 16 -16.5 61t61.5 16q39 -29 75 -69q-16 59 -22 100 q-2 18 10 32.5t34.5 14.5t35 -14t10.5 -33q-2 -29 -23 -100q37 41 76 69q37 29 64 -16q25 -43 -19 -61q-43 -20 -98 -31q75 -21 98 -31z" glyph-name="asterisk" horiz-adv-x="346" unicode="*"/><glyph d="M494 666q33 0 56 -18.5t23 -43.5q0 -27 -22.5 -44t-56.5 -17h-146v-148q0 -33 -17.5 -56.5t-43.5 -23.5q-25 0 -43.5 23.5t-18.5 56.5v148h-145q-35 0 -57.5 17.5t-22.5 43.5q0 25 23.5 43.5t56.5 18.5h145v145q0 33 18.5 56.5t43.5 23.5q27 0 44 -23.5t17 -56.5v-145 h146z" glyph-name="plus" horiz-adv-x="587" unicode="+"/><glyph d="M153.5 397q63.5 0 108.5 -45t45 -108q0 -104 -68.5 -195.5t-162.5 -91.5q-10 0 -15.5 3t-4.5 7t5 6q51 53 66 119q-53 10 -90 52t-37 100q0 63 45 108t108.5 45z" glyph-name="comma" horiz-adv-x="323" unicode=","/><glyph d="M582 666q33 0 56.5 -18.5t23.5 -43.5q0 -27 -23 -44t-57 -17h-502q-35 0 -57.5 17.5t-22.5 43.5q0 25 23.5 43.5t56.5 18.5h502z" glyph-name="hyphen" horiz-adv-x="681" unicode="-"/><glyph d="M153.5 397q63.5 0 108.5 -45t45 -108.5t-45 -108.5t-108.5 -45t-108.5 45t-45 108.5t45 108.5t108.5 45z" glyph-name="period" horiz-adv-x="321" unicode="."/><glyph d="M469 1118q27 0 35 -23.5t-6 -56.5l-367 -868q-39 -80 -94 -80q-27 0 -35 22.5t6 57.5l367 868q37 80 94 80z" glyph-name="slash" horiz-adv-x="522" unicode="/"/><glyph d="M469 1118q195 0 333 -150.5t138 -363.5t-138 -363.5t-333 -150.5t-332 150.5t-137 363.5t138 363.5t331 150.5zM471 186q68 0 115 123t47 295t-48 294t-116 122t-116 -122t-48 -294q2 -172 50 -295t116 -123z" glyph-name="zero" horiz-adv-x="954" unicode="0"/><glyph d="M422 1051q-10 -43 -22.5 -217.5t-5.5 -375t50 -245.5q6 -6 18.5 -15.5t17.5 -17.5t3 -18q-10 -72 -245 -72q-227 0 -238 72q-2 10 2 18t8 12.5t13.5 12.5t13.5 12q45 41 45 322v46.5v47v42t-2 41t-4 34t-6 33t-10.5 25.5t-14.5 23q-6 8 -16.5 19.5t-16.5 17.5t-10 16.5 t-2 22.5q2 18 14.5 33.5t36 32t39.5 26t51 26.5t45 22q45 23 75 36t79 28t70.5 1t11.5 -61z" glyph-name="one" horiz-adv-x="491" unicode="1"/><glyph d="M594 326q20 53 85.5 65t122 -16.5t56.5 -77.5q0 -78 -82 -142.5t-172 -64.5h-543q-53 0 -60 24.5t11 49.5l21 22q2 2 81 93.5t136 163t122.5 180t86.5 190.5q37 154 -33 199q-51 33 -100 -19q-49 -47 -41 -135q6 -72 -82 -96q-88 -27 -156 20q-70 47 -31 140 q33 74 141.5 135t254.5 61q199 0 302 -75.5t81 -241.5q-16 -139 -173 -316.5t-339 -298.5h143q113 1 168 140z" glyph-name="two" horiz-adv-x="868" unicode="2"/><glyph d="M571 631q182 -49 226 -195q39 -135 -88 -240.5t-326 -105.5q-145 0 -240.5 59.5t-128.5 135.5q-45 109 49 151q80 37 158 2q63 -31 60 -90q-8 -80 17.5 -122t68.5 -42q84 0 110 101q31 106 -24 198q-66 106 -199 70q-29 23 -16.5 58.5t61.5 52.5q119 41 160 167 q37 104 -10 164q-20 27 -56 29q-47 2 -83 -43t-29 -123q6 -72 -82 -96q-90 -27 -156 20q-68 49 -29 140q31 74 139.5 135t254.5 61q193 0 296 -67.5t91 -198.5q-11 -137 -224 -221z" glyph-name="three" horiz-adv-x="815" unicode="3"/><glyph d="M807 213q6 -6 18.5 -15.5t17.5 -17.5t3 -18q-10 -72 -237.5 -72t-237.5 72q-2 10 2 18t6 11.5t14.5 13.5t14.5 12q35 33 43 189h-373q-125 0 -49 94l274 407q4 6 27.5 42t40 57.5t44 51t56.5 45t59 15.5q27 0 115 -1t119 -1q27 0 53.5 -17.5t28.5 -37.5q2 -10 -2 -18.5 t-8.5 -12.5l-13.5 -12t-13 -12q-27 -25 -41 -129q-43 -580 39 -664zM215 500h238v39q0 262 -13 348q0 12 -16 8q-12 -4 -18 -16l-207 -310q-14 -18 -19.5 -33.5t3.5 -25.5t32 -10z" glyph-name="four" horiz-adv-x="864" unicode="4"/><glyph d="M176 766q236 37 423 -27.5t232 -224.5q49 -174 -91 -299t-353 -125q-154 0 -257 78t-126 184q-27 133 86 183q92 39 178 0t64 -119q-27 -96 -11.5 -164t60.5 -68q66 0 105.5 99.5t0.5 203.5q-35 92 -149.5 145.5t-231.5 29.5q-27 -4 -40 5t-11 33l19 299q16 119 106 119 h639q0 -96 -53 -173t-160 -77h-446l-6 -104q2 0 10 1t12 1z" glyph-name="five" horiz-adv-x="856" unicode="5"/><glyph d="M469 721q150 4 256 -90t106 -225.5t-106.5 -223.5t-255.5 -92q-121 0 -212 39t-139 100.5t-81 137t-34 151.5t1 141q20 190 144 324.5t301 134.5q244 0 333 -162q63 -117 -37 -170q-82 -41 -172 -8q-76 27 -73.5 88.5t-15 112.5t-62.5 45q-59 -10 -101 -136t-30 -290 q10 35 63.5 78t114.5 45zM451 184q51 0 86.5 64.5t35.5 157.5q0 90 -35.5 154.5t-87 64.5t-88 -64.5t-36.5 -154.5q0 -88 33.5 -153t82.5 -69h9z" glyph-name="six" horiz-adv-x="839" unicode="6"/><glyph d="M862 1042q-416 -422 -389 -839q4 -63 -81 -95t-168 -9.5t-74 94.5q45 408 387 638q25 18 19.5 27.5t-32.5 9.5h-311q-106 0 -159.5 77t-53.5 173h801q55 0 73.5 -19.5t-12.5 -56.5z" glyph-name="seven" horiz-adv-x="890" unicode="7"/><glyph d="M643 659q98 -39 157.5 -109.5t59.5 -154.5q0 -127 -126 -216t-304 -89t-304 89t-126 216q0 84 59.5 155t157.5 109q-143 76 -143 203q0 106 104.5 180t252 74t251.5 -73.5t104 -180.5q0 -125 -143 -203zM430 1026q-33 0 -56.5 -48t-23.5 -115.5t23.5 -115t56.5 -47.5 t56.5 47.5t23.5 115t-23.5 115.5t-56.5 48zM430 180q49 0 83 62.5t34 152.5q0 88 -34 150.5t-83 62.5t-84 -62.5t-35 -150.5t35 -151.5t84 -63.5z" glyph-name="eight" horiz-adv-x="872" unicode="8"/><glyph d="M379 1118q139 0 237.5 -52t145.5 -139t62.5 -182.5t2.5 -197.5q-25 -205 -144.5 -331t-305.5 -126q-160 0 -249 68.5t-112 146.5q-29 100 70 144q88 39 168 2q59 -27 57 -86q-2 -63 19.5 -127t70.5 -54q57 10 98.5 119t49.5 311q-20 -55 -73.5 -91t-113.5 -36 q-150 0 -256 92.5t-106 223.5q0 129 113.5 222t265.5 93zM383 582q51 0 87 64.5t36 156.5q0 88 -34 151.5t-83 67.5h-6q-51 0 -87 -63.5t-36 -155.5t36 -156.5t87 -64.5z" glyph-name="nine" horiz-adv-x="849" unicode="9"/><glyph d="M153.5 561q63.5 0 108.5 -45t45 -108.5t-45 -108.5t-108.5 -45t-108.5 45t-45 108.5t45 108.5t108.5 45zM153.5 952q63.5 0 108.5 -44t45 -109q0 -63 -45 -108.5t-108.5 -45.5t-108.5 45t-45 108.5t45 108.5t108.5 45z" glyph-name="colon" horiz-adv-x="327" unicode=":"/><glyph d="M153.5 799q63.5 0 108.5 -45t45 -108.5t-45 -108.5t-108.5 -45t-108.5 45t-45 108.5t45 108.5t108.5 45zM153.5 397q63.5 0 108.5 -45t45 -108q0 -104 -68.5 -195.5t-162.5 -91.5q-10 0 -15.5 3t-4.5 7t5 6q51 53 66 119q-53 10 -90 52t-37 100q0 63 45 108t108.5 45z " glyph-name="semicolon" horiz-adv-x="327" unicode=";"/><glyph d="M473 784.5q10 -22.5 -4 -48t-43 -40.5l-231 -108l231 -107q29 -14 43 -40.5t4 -49t-40 -29t-58 8.5l-324 149q-39 20 -49 53q-2 4 -2 14.5t2 16.5q10 33 49 53l324 150q29 14 58.5 7t39.5 -29.5z" glyph-name="less" unicode="&lt;"/><glyph d="M582 776q35 0 57.5 -17.5t22.5 -43.5q0 -25 -24 -43.5t-56 -18.5h-502q-33 0 -56.5 18.5t-23.5 43.5q0 27 23.5 44t56.5 17h502zM582 553q35 0 57.5 -17.5t22.5 -43.5q0 -25 -24 -43.5t-56 -18.5h-502q-33 0 -56.5 18.5t-23.5 43.5q0 27 23.5 44t56.5 17h502z" glyph-name="equal" horiz-adv-x="675" unicode="="/><glyph d="M426 657q39 -20 49 -53q0 -2 1 -8t1 -8t-1 -7.5t-1 -7.5q-10 -33 -49 -53l-324 -149q-29 -14 -58.5 -8t-39.5 28.5t3 49t44 40.5l232 107l-232 108q-31 14 -44 40t-3 48.5t40 29.5t58 -7z" glyph-name="greater" horiz-adv-x="491" unicode=">"/><glyph d="M428 1118q180 0 291.5 -99t62.5 -214q-23 -55 -67.5 -93t-88.5 -60.5t-86 -47t-69 -66.5t-27 -106q0 -29 -29.5 -39t-58 0t-28.5 33q0 117 18.5 182.5t59.5 130.5q111 170 57 258q-31 49 -84 27q-68 -27 -70 -135q0 -14 2 -31q6 -70 -86 -96q-98 -27 -174 20 q-78 47 -39 140q31 72 150 134t266 62zM387 332q49 0 85 -35t36 -86t-36 -86t-85 -35q-51 0 -87 35t-36 86t36 86t87 35z" glyph-name="question" horiz-adv-x="819" unicode="?"/><glyph d="M563.5 1118q233.5 0 398 -150.5t164.5 -363.5q0 -193 -91 -298t-204 -105q-98 0 -146 66.5t-62 158.5q-8 -4 -35 -18.5t-56.5 -24.5t-66.5 -10q-80 0 -139.5 52t-32.5 126q14 39 61 65.5t116 51t99 43.5q43 27 44 61.5t-25 44.5q-49 27 -84 -59q-20 -53 -86 -45 q-57 6 -66 47q-6 29 23 57q59 66 198 66q115 0 191 -72t76 -174v-129q0 -156 41 -166q18 -4 37 39q33 74 32 223q0 188 -112.5 320.5t-274.5 132.5q-160 0 -273.5 -133t-113.5 -320q0 -197 145.5 -333t337.5 -105q84 12 115 -14q16 -16 -18 -31q-117 -49 -250 -27.5 t-244.5 83t-186.5 177t-75 250.5q0 213 165 363.5t398.5 150.5zM623 627q0 41 -2 59q-10 -10 -41 -36.5t-49.5 -44t-31 -41t-5.5 -42.5q20 -61 129 -39v144z" glyph-name="at" horiz-adv-x="1140" unicode="@"/><glyph d="M1151 319q23 -39 83 -85t66 -72q6 -23 -17 -37t-66 -21.5t-81 -10.5t-75 -3q-276 0 -316 72q-10 16 7.5 40.5t19.5 37.5q6 43 -18 131q-6 27 -39 57.5t-82 30.5h-197q-51 0 -76.5 -23.5t-23.5 -49.5t4 -44q10 -51 63.5 -103.5t38.5 -80.5q-14 -33 -88.5 -50.5 t-144.5 -17.5q-51 0 -97 7t-80 25.5t-26 45.5q6 20 28.5 38.5t51.5 37t66.5 66.5t68.5 118l217 539q27 61 72 106t104 45h78q125 0 185 -162q145 -416 274 -637zM578 555q59 0 76.5 25.5t-3.5 83.5q-33 92 -94 202q-8 18 -24.5 16.5t-24.5 -22.5q-66 -154 -82 -205 q-20 -57 -9 -78.5t64 -21.5h97z" glyph-name="A" horiz-adv-x="1314" unicode="A"/><glyph d="M803 682q102 -37 166.5 -108.5t64.5 -174.5q0 -135 -124 -222t-267 -87h-403q-240 0 -240 94q0 47 49 111q53 70 45 316.5t-53 312.5q-41 55 -41 100q0 94 240 94h335q139 0 246 -64.5t107 -181.5q0 -127 -125 -190zM655 211q39 33 48.5 111.5t-14 155.5t-102.5 120 t-196 8q0 -174 45 -300t125 -126q57 0 94 31zM561 1038q-70 0 -112.5 -94t-53.5 -239q49 0 97.5 26.5t81 66.5t51 84t14.5 83t-33 59q-16 14 -45 14z" glyph-name="B" horiz-adv-x="1052" unicode="B"/><glyph d="M932 465q41 47 84 27q23 -10 16 -31q-49 -162 -188 -266.5t-318 -104.5q-219 0 -372.5 150.5t-153.5 363.5t154.5 363.5t371.5 150.5q152 0 280 -76.5t187 -203.5q55 -113 -49 -199q-86 -74 -194 -64q-117 10 -134 123q-6 37 0 80q14 102 -21.5 177t-94.5 65 q-76 -12 -123 -146.5t-23 -302.5q18 -133 90 -199.5t160 -63.5t178.5 45t149.5 112z" glyph-name="C" horiz-adv-x="1058" unicode="C"/><glyph d="M549 1118q240 0 407.5 -150.5t167.5 -363.5t-168 -363.5t-407 -150.5h-309q-240 0 -240 94q0 43 41 99q45 70 53 321q-8 250 -53 320q-41 55 -41 100q0 94 240 94h309zM535 186q98 0 160.5 142.5t62.5 275.5t-62.5 274.5t-160.5 141.5q-123 0 -123 -416q0 -418 123 -418z " glyph-name="D" horiz-adv-x="1148" unicode="D"/><glyph d="M567 1020q-68 0 -111.5 -91t-56.5 -231h58q47 0 80.5 16.5t47 37t30 39t30.5 20.5q18 2 34.5 -22.5t25 -62.5t8.5 -75q0 -61 -19.5 -112.5t-48.5 -46.5q-18 2 -36.5 29.5t-54.5 54t-97 26.5h-62q0 -168 45 -292t127 -124q127 0 185 140q20 53 85.5 65t122 -16.5 t56.5 -77.5q0 -78 -82 -142.5t-172 -64.5h-522q-240 0 -240 94q0 47 49 111q53 70 45 316.5t-53 312.5q-41 55 -41 100q0 94 240 94h522q90 0 172 -64.5t82 -144.5q0 -37 -35 -62.5t-80 -32.5t-89 9.5t-60 57.5q-58 139 -185 139z" glyph-name="E" horiz-adv-x="1032" unicode="E"/><glyph d="M797 1118q90 0 171 -65.5t81 -143.5q0 -37 -35 -62.5t-80 -32.5t-89 9.5t-61 57.5q-55 139 -168 139q-92 0 -143 -123t-61 -293h80q59 0 95 26.5t55.5 54.5t37.5 30q27 4 47.5 -48.5t20.5 -111.5t-20.5 -111.5t-47.5 -48.5q-18 2 -37.5 30t-55.5 54.5t-95 26.5h-82 q0 -164 36 -211q51 -59 52 -111q0 -94 -240 -94h-18q-240 0 -240 94q0 47 49 111q53 70 45 316.5t-53 312.5q-41 55 -41 100q0 94 240 94h557z" glyph-name="F" horiz-adv-x="1067" unicode="F"/><glyph d="M887 586q227 0 227 -94q0 -37 -39 -101q-27 -37 -43 -272q-2 -43 -40 -57.5t-78 -5t-54 27.5q-25 27 -80 32t-61 -3q-76 -23 -162 -23q-231 0 -394 150.5t-163 363.5t164 363.5t393 150.5q141 0 264 -59.5t197 -161.5q80 -111 -10 -192q-74 -68 -183 -60q-121 8 -145 115 q-10 37 -4 82q10 76 -38 134t-108 42q-84 -25 -114.5 -166t-3.5 -281q25 -137 100.5 -254.5t144.5 -117.5q41 0 44.5 75.5t-27.5 116.5q-41 66 -41 101q0 94 223 94h31z" glyph-name="G" horiz-adv-x="1128" unicode="G"/><glyph d="M1180 1024q0 -41 -39 -100q-47 -66 -55.5 -312.5t44.5 -316.5q49 -63 50 -111q0 -94 -240 -94h-16q-242 0 -242 94q0 51 51 111q33 41 42 179t-7 261q-39 -66 -141 -149q-221 -184 -144 -346q14 -33 15 -56q0 -94 -240 -94h-18q-240 0 -240 94q0 47 49 111 q53 70 45 316.5t-53 312.5q-41 55 -41 100q0 94 240 94h18q240 0 240 -94q0 -45 -41 -100q-29 -41 -44.5 -179.5t-6.5 -267.5q43 86 159 182q76 61 126 144.5t18 142.5q-27 53 -27 78q0 94 242 94h16q240 0 240 -94z" glyph-name="H" horiz-adv-x="1196" unicode="H"/><glyph d="M498 1024q0 -45 -41 -100q-45 -66 -53.5 -312.5t42.5 -316.5q51 -59 52 -111q0 -94 -240 -94h-18q-240 0 -240 94q0 47 49 111q53 70 45 316.5t-53 312.5q-41 55 -41 100q0 94 240 94h18q240 0 240 -94z" glyph-name="I" horiz-adv-x="516" unicode="I"/><glyph d="M952 1047q0 -10 -2 -13q2 -4 2 -10q0 -45 -41 -100q-6 -10 -11 -27.5t-8 -47.5t-4 -55.5t-3 -70.5t-4 -74q-10 -145 -33 -240.5t-70 -172t-128 -111.5t-204 -35q-223 0 -354 112.5t-80 284.5q33 104 158 113q109 8 178 -57q63 -59 21 -137q-47 -80 -38 -150t72 -70 q98 0 130 169t12.5 346.5t-49.5 222.5q-41 55 -41 100q0 94 239 94h39q92 -4 137 -16q76 -18 82 -55z" glyph-name="J" horiz-adv-x="968" unicode="J"/><glyph d="M1008 403q14 -61 35.5 -99t39 -47t35 -22.5t23.5 -33.5q12 -39 -25 -65.5t-85 -36t-95 -9.5q-55 0 -105.5 10.5t-108.5 55.5t-73 123l-45 231q-18 94 -54 124t-68.5 5t-56.5 -72t-22 -88q10 -143 43 -184q51 -59 52 -111q0 -94 -240 -94h-18q-240 0 -240 94q0 47 49 111 q53 70 45 316.5t-53 312.5q-41 55 -41 100q0 94 240 94h18q240 0 240 -94q0 -45 -41 -100q-27 -37 -43 -166q-2 -27 3 -38t21.5 -6t25.5 10t30 19l233 197q29 25 10.5 69t1.5 64q47 45 197 45q123 0 160 -39q18 -18 -6 -37q-41 -33 -133.5 -63.5t-127.5 -58.5l-94 -78 q-41 -37 -71 -68q121 -25 218 -134.5t126 -236.5z" glyph-name="K" horiz-adv-x="1161" unicode="K"/><glyph d="M752 326q20 53 85.5 65t122 -16.5t56.5 -77.5q0 -78 -82 -142.5t-172 -64.5h-522q-240 0 -240 94q0 47 49 111q53 70 45 316.5t-53 312.5q-41 55 -41 100q0 94 240 94h18q240 0 240 -94q0 -45 -41 -100q-16 -25 -32.5 -108t-20 -188.5t8 -204.5t55.5 -168t116 -69 q113 1 168 140z" glyph-name="L" horiz-adv-x="1026" unicode="L"/><glyph d="M1249 1024q0 -45 -41 -100q-45 -66 -53 -312.5t43 -316.5q51 -61 51 -111q0 -94 -239 -94h-19q-240 0 -239 94q0 49 49 111q63 82 41 383q-6 -20 -19.5 -55t-50.5 -124t-72.5 -157t-84 -123t-89.5 -55q-47 0 -73.5 27.5t-26.5 66.5q0 96 -53.5 212t-106.5 183l-53 68 q-10 -158 12.5 -313.5t63.5 -202.5q29 -29 30 -47q4 -29 -44 -48.5t-115 -19.5q-72 0 -118 19.5t-42 48.5q2 16 33 47q45 51 66.5 216t3 333t-71.5 221q-29 29 -31 49q-4 35 35 64.5t125 29.5h164q90 0 165.5 -100t115.5 -237.5t50 -278.5q33 59 54.5 123.5t32 116 t13.5 103.5t2 84t-3 62.5t-2 32.5q0 94 239 94h19q239 0 239 -94z" glyph-name="M" horiz-adv-x="1265" unicode="M"/><glyph d="M1028 205q31 -31 33 -47q2 -18 -24.5 -33.5t-75 -25t-109.5 -9.5q-123 0 -219 45t-150.5 112.5t-97.5 157t-63.5 169t-46 156.5t-48.5 112q-29 -162 -9 -371t71 -266q29 -29 30 -47q4 -29 -47 -48.5t-112 -19.5q-37 0 -75 8t-62.5 24.5t-22.5 35.5q2 14 31 47 q45 51 67.5 223t4 346t-71.5 227q-29 29 -31 50q-2 18 22.5 33.5t62.5 24.5t75 9h155q113 0 191 -62.5t118 -158.5t66.5 -196.5t60 -194.5t78.5 -133q31 156 16.5 363.5t-73.5 264.5q-27 27 -33 50q-2 18 22.5 33.5t62.5 24.5t77 9q37 0 75 -9t62.5 -24.5t22.5 -33.5 q-2 -23 -33 -50q-53 -53 -70.5 -227t4 -346t66.5 -223z" glyph-name="N" horiz-adv-x="1071" unicode="N"/><glyph d="M557 1118q229 0 393 -150.5t164 -363.5t-163 -363.5t-394 -150.5t-394 150.5t-163 363.5t164 363.5t393 150.5zM639 195q76 14 106.5 146t-4.5 300q-33 168 -111.5 277.5t-154.5 93.5q-76 -14 -106.5 -146.5t4.5 -300.5q33 -168 111.5 -277t154.5 -93z" glyph-name="O" horiz-adv-x="1132" unicode="O"/><glyph d="M522 1118q166 0 287 -97t121 -228t-121 -227.5t-287 -96.5h-116q8 -133 40 -174q51 -59 52 -111q0 -94 -240 -94h-18q-240 0 -240 94q0 47 49 111q53 70 45 316.5t-53 312.5q-41 55 -41 100q0 94 240 94h282zM481 549q57 0 106.5 80t49.5 164q0 86 -47 165.5t-109 79.5 q-51 0 -73.5 -121.5t0 -244.5t73.5 -123z" glyph-name="P" horiz-adv-x="948" unicode="P"/><glyph d="M1104 80q92 35 119 -37q25 -74 -41 -160q-49 -66 -135 -94q-141 -47 -262 47t-173 256q-37 -4 -55 -4q-229 0 -393 150.5t-164 363.5t163 363.5t394 150.5t394 -150.5t163 -363.5q0 -156 -91 -281.5t-241 -187.5q164 -114 322 -53zM373 565q33 -168 111.5 -277.5 t154.5 -92.5q76 14 106.5 145t-4.5 299q-33 168 -111.5 278.5t-154.5 94.5q-76 -14 -106.5 -146.5t4.5 -300.5z" glyph-name="Q" horiz-adv-x="1142" unicode="Q"/><glyph d="M940 291q0 -47 45 -77t41 -52q-10 -72 -207 -72q-51 0 -103 13.5t-102.5 61.5t-50.5 126v61q0 117 -71 117h-86q8 -133 40 -174q51 -59 52 -111q0 -94 -240 -94h-18q-240 0 -240 94q0 47 49 111q53 70 45 316.5t-53 312.5q-41 55 -41 100q0 94 240 94h282q166 0 287 -97 t121 -228q0 -158 -162 -256q172 -39 172 -230v-16zM481 1038q-51 0 -73.5 -121.5t0 -244.5t73.5 -123q57 0 106.5 80t49.5 164q0 86 -47.5 165.5t-108.5 79.5z" glyph-name="R" horiz-adv-x="1042" unicode="R"/><glyph d="M412 911q8 -55 67.5 -104t140 -87t161.5 -77t143.5 -95t72.5 -122q20 -133 -132 -234.5t-359 -101.5h-6q-166 0 -306.5 50t-181.5 145q-43 98 64 153q100 49 217 19q121 -31 119 -131q0 -10 -2 -23q-12 -70 31.5 -99.5t98 -12t68.5 62.5q20 63 -29 115.5t-136 92.5 t-178 81t-160.5 102.5t-73.5 138.5q-10 152 133 243t360 91h6q131 0 244 -50t156 -146.5t-49 -141.5q-90 -45 -197 -6q-98 39 -117 129q-25 106 -84 117q-47 8 -65 -45q-10 -29 -6 -64z" glyph-name="S" horiz-adv-x="1009" unicode="S"/><glyph d="M1143 971q2 -61 -43 -106.5t-100.5 -42.5t-75.5 63q-20 63 -57.5 99t-63.5 36q-43 0 -65.5 -154.5t-12.5 -332t45 -238.5q49 -82 49 -111q0 -94 -239 -94h-17q-240 0 -239 94q0 16 8 35t22.5 43.5t18.5 32.5q33 66 42 243t-11.5 329.5t-61.5 152.5q-29 0 -64.5 -35 t-58.5 -100q-20 -59 -75.5 -62.5t-100.5 41.5t-43 107q4 88 75.5 117.5t190.5 29.5h613q119 0 189.5 -29.5t74.5 -117.5z" glyph-name="T" horiz-adv-x="1163" unicode="T"/><glyph d="M1141 295q4 -6 17 -23.5t19.5 -28t11.5 -29.5t3 -38q-8 -43 -64.5 -64.5t-134.5 -21.5q-84 0 -148.5 31t-68.5 86q-80 -117 -280 -117q-104 0 -183.5 34t-120 89t-68.5 125t-32 140.5t-8 136t2 112.5q2 127 -47 197q-39 51 -39 110q0 45 65.5 64.5t145.5 19.5h45 q240 0 240 -94q0 -29 -39 -100.5t-43 -196.5t19.5 -239.5t68.5 -200.5t98 -86q88 0 137 151.5t45 325.5t-49 246q-39 63 -39 100q0 84 193 92h2q6 0 18.5 1t18.5 1h24q242 0 242 -94q0 -25 -41 -100q-49 -98 -59 -308t49 -321z" glyph-name="U" horiz-adv-x="1212" unicode="U"/><glyph d="M1101.5 1118q59.5 0 106.5 -20.5t33 -46.5q-12 -23 -51 -50q-100 -63 -192.5 -227t-118.5 -371q-20 -154 -70.5 -233.5t-175.5 -79.5q-123 0 -213 75t-137 187.5t-79 227t-60.5 215t-59.5 129.5q-63 63 -80 100q-20 53 43.5 73.5t175.5 20.5h17q242 0 278 -94 q14 -41 0 -100q-23 -70 32.5 -270.5t160.5 -301.5q25 129 60.5 241t66 168t59.5 111.5t35 75t-6 53.5q-18 29 -13 50q8 27 68.5 47t120 20z" glyph-name="V" horiz-adv-x="1263" unicode="V"/><glyph d="M1661 1118q139 0 174 -43q10 -12 2 -24q-16 -27 -51 -50q-106 -66 -209.5 -230.5t-128.5 -367.5q-37 -313 -221 -313q-229 0 -355 272q-20 -131 -71 -201.5t-168 -70.5q-123 0 -213 75t-137 187.5t-79 227t-60.5 215t-59.5 129.5q-63 63 -80 100q-20 53 43.5 73.5 t175.5 20.5h17q242 0 278 -94q14 -41 0 -100q-23 -70 32.5 -270.5t160.5 -301.5q6 35 20 92.5t17 71.5q29 137 2 246q-39 131 -70 162q-68 68 -80 100q-20 53 43.5 73.5t175.5 20.5h17q98 0 163 -16q90 -20 113 -78q14 -39 4 -82q0 -10 -4 -18q-20 -70 35 -270.5t158 -301.5 q10 141 61 285.5t82 230.5t6 133q-16 35 -12 50q8 27 74.5 47t144.5 20z" glyph-name="W" horiz-adv-x="1855" unicode="W"/><glyph d="M1141 184q37 -55 -13.5 -74.5t-160.5 -19.5h-19q-295 0 -360 94q-12 16 -17.5 37t-6.5 43.5t-3 30.5q-8 51 -102 201q-14 -63 -37 -115.5t-49.5 -95.5t-30.5 -54q-6 -12 0 -34.5t-6 -38.5q-14 -27 -84 -47.5t-129 -20.5q-94 0 -119 37q-8 14 4 31q14 18 64 47 q35 23 89 77t108.5 132t70.5 151.5t-23 136.5q-131 174 -196 222q-78 53 -109 100q-37 53 27.5 73.5t179.5 20.5h19q264 0 327 -94q29 -41 29 -100q0 -43 94 -197q12 59 44 121.5t51.5 99.5t13.5 53q-10 29 0 50q14 27 80.5 47t123.5 20q94 0 125 -37q10 -14 -2 -30 q-16 -23 -63 -50q-25 -14 -56.5 -38.5t-72.5 -62.5t-72 -82t-52.5 -93t-16 -103.5t37.5 -105.5q92 -137 185 -221q10 -8 41.5 -31.5t53.5 -43.5t32 -36z" glyph-name="X" horiz-adv-x="1179" unicode="X"/><glyph d="M1004 1118q123 0 165 -39q16 -14 7 -28q-14 -23 -58 -50q-100 -63 -235 -234t-162 -323q-14 -78 43 -149q51 -55 51 -111q0 -94 -240 -94h-18q-240 0 -240 94q0 41 50 111q51 63 40.5 145t-43 157t-89 146.5t-99.5 115.5t-70 65q-68 51 -98 100q-12 29 -3 47.5t48 28.5 t80 14t92 4h19q262 0 317 -94q29 -45 19 -100q-8 -86 102 -279q14 76 49 159t53.5 129t8.5 68q-14 29 -7 50q10 27 75 47t143 20z" glyph-name="Y" horiz-adv-x="1193" unicode="Y"/><glyph d="M928 1116q102 -2 159.5 -17.5t40.5 -51.5q-10 -23 -73.5 -53.5t-91.5 -75.5q0 -2 -190.5 -313.5t-192.5 -313.5q-29 -49 -107 -105h211q111 0 168 140q20 53 86 65t122 -16.5t56 -77.5q0 -84 -100.5 -145.5t-255.5 -61.5h-547q-41 0 -77 3t-72.5 10.5t-53 21.5t-6.5 36.5 t72.5 52.5t91.5 77q2 0 191.5 311t191.5 316q31 51 96 102h-215q-113 0 -168 -139q-16 -41 -60 -57.5t-89 -9.5t-80 32.5t-35 62.5q0 84 100.5 146.5t253.5 62.5h574v-2z" glyph-name="Z" horiz-adv-x="1146" unicode="Z"/><glyph d="M287 1075v-944q0 -57 55 -57h96q23 0 40.5 -13.5t17.5 -34t-17.5 -33.5t-40.5 -13h-366q-43 0 -57.5 16t-14.5 61v1094q0 43 14.5 59.5t57.5 16.5h366q23 0 40.5 -13.5t17.5 -33.5q0 -18 -17.5 -32.5t-40.5 -14.5h-96q-55 -1 -55 -58z" glyph-name="bracketleft" horiz-adv-x="428" unicode="["/><glyph d="M131 1038l367 -868q14 -35 6 -57.5t-35 -22.5q-55 0 -94 80l-367 868q-14 33 -6 56.5t35 23.5q57 0 94 -80z" glyph-name="backslash" horiz-adv-x="526" unicode="\"/><glyph d="M360 1227q43 0 57.5 -16.5t14.5 -59.5v-1094q0 -45 -14.5 -61t-57.5 -16h-368q-23 0 -39 13t-16 33.5t16 34t39 13.5h98q53 0 53 57v944q0 57 -53 58h-98q-23 0 -39 14t-16 33q0 20 16 33.5t39 13.5h368z" glyph-name="bracketright" horiz-adv-x="456" unicode="]"/><glyph d="M358 946q27 -27 0 -28q-18 0 -43 16l-118 67q-8 4 -12.5 4.5t-12.5 -4.5l-117 -67q-43 -27 -53 -10q-6 8 8 22l127 146q25 27 47.5 26.5t46.5 -26.5z" glyph-name="asciicircum" horiz-adv-x="382" unicode="^"/><glyph d="M582 213q33 0 56.5 -18.5t23.5 -42.5q0 -27 -23 -44.5t-57 -17.5h-502q-33 0 -56.5 17.5t-23.5 44.5q0 25 23.5 43t56.5 18h502z" glyph-name="underscore" horiz-adv-x="677" unicode="_"/><glyph d="M334 913q10 -8 10 -16q-2 -14 -33 -18q-39 -12 -73.5 -7t-77.5 37l-29 21q-31 18 -68.5 44.5t-52.5 37.5q-10 8 -10 16q2 14 33 19q37 12 72.5 7t78.5 -36z" glyph-name="grave" horiz-adv-x="360" unicode="`"/><glyph d="M401 801q139 0 221.5 -47t110 -121t36.5 -150.5t23.5 -151.5t51.5 -110q6 -6 22.5 -17t23.5 -20.5t5 -21.5q-4 -29 -49 -50.5t-105 -21.5q-61 0 -141 40t-104 40q-18 0 -93 -40t-153 -40q-131 0 -204 73t-34 175q14 43 56.5 71.5t84.5 39t109.5 24.5t102.5 27 q63 20 87.5 67t12.5 90t-45 60q-27 12 -42.5 -7.5t-24.5 -67.5t-13 -58q-25 -66 -123 -66q-96 2 -131 59.5t37 133.5q90 90 278 90zM307 301q6 -39 44 -55.5t81 -9.5q25 4 37 38q18 94 2 168q-8 37 -49 -4q-12 -12 -49 -37.5t-53.5 -48t-12.5 -51.5z" glyph-name="a" horiz-adv-x="880" unicode="a"/><glyph d="M584 801q127 0 217 -104.5t90 -252.5q0 -141 -96.5 -247.5t-210.5 -106.5q-78 0 -143.5 11.5t-80.5 11.5q-29 0 -118.5 -11.5t-100.5 -11.5q-131 0 -141 72q-2 10 2 18t8 12.5t13.5 12.5t13.5 12q45 41 45 322v46.5v47v42t-2 41t-4 34t-6 33t-10.5 25.5t-14.5 23 q-6 8 -16.5 19.5t-16.5 17.5t-10 16.5t-2 22.5q2 18 14.5 33.5t36 32t39.5 26t51 26.5t45 22q45 23 75 36t79 28t70.5 1t11.5 -61q-16 -94 -25 -324q85 74 187 74zM475 186q113 53 123 240q8 152 -51 238q-49 70 -109 16q-29 -25 -37 -71t-8 -156q0 -270 66 -271q8 0 16 4z " glyph-name="b" horiz-adv-x="907" unicode="b"/><glyph d="M700 412q23 25 42.5 15.5t15.5 -38.5l-4 -20q-29 -121 -133.5 -200t-239.5 -79q-158 0 -269.5 104.5t-111.5 249.5q0 147 111.5 252t269.5 105q111 0 203 -49.5t131 -135.5q41 -90 -45 -124q-78 -31 -156 8q-45 23 -55 61q-6 20 -12.5 50t-10.5 48.5t-10 36t-17.5 23.5 t-27.5 2q-35 -10 -56.5 -81t-21.5 -144q0 -121 65.5 -173.5t158.5 -25.5t173 115z" glyph-name="c" horiz-adv-x="772" unicode="c"/><glyph d="M854 217q4 -4 13.5 -12t13.5 -12.5t7 -12.5t3 -18q-10 -72 -141 -72q-12 0 -101.5 11.5t-118.5 11.5q-14 0 -79.5 -11.5t-143.5 -11.5q-117 0 -212 105.5t-95 248.5q0 147 90 252t217 105q102 0 187 -74q-6 72 -33 104q-6 8 -16.5 19.5t-16.5 17.5t-10 16.5t-2 22.5 q2 18 15 34.5t37 31t44 26t53 26.5t45 22q233 123 230 26q0 -10 -2 -22q-6 -37 -25 -324q-4 -53 -4 -188q0 -281 45 -322zM416 186q51 -25 71 95q10 66 11 172q0 111 -8.5 156.5t-36.5 70.5q-70 61 -121 -37q-55 -109 -35 -258q21 -152 119 -199z" glyph-name="d" horiz-adv-x="901" unicode="d"/><glyph d="M700 412q23 25 42.5 15.5t15.5 -38.5l-4 -20q-29 -121 -133.5 -200t-239.5 -79q-158 0 -269.5 104.5t-111.5 249.5q0 147 111.5 252t269.5 105q104 0 188 -39t121 -111q45 -90 -52 -187t-216 -97q-63 0 -98 16q47 -102 162.5 -92t213.5 121zM381 721q-37 0 -57.5 -74 t-20.5 -151q0 -33 6 -60q2 4 13 8q57 35 80.5 103.5t14.5 121t-36 52.5z" glyph-name="e" horiz-adv-x="776" unicode="e"/><glyph d="M815 918q25 -92 -76 -138q-92 -41 -173 -7t-52 120q25 74 -9 120t-89 23q-45 -16 -59.5 -92t7 -153.5t66.5 -100.5h139q16 0 28.5 -12t12.5 -29v-67h-190q-14 -285 37 -351q6 -8 21.5 -19t23.5 -22.5t6 -27.5q-12 -72 -246 -72q-252 0 -262 72q-2 14 7 23.5t26.5 20.5 t25.5 21q31 39 42.5 143.5t4.5 211.5h-43q-16 0 -27 11t-11 28v28q0 16 11 28.5t27 12.5h31q-39 178 76 303t283 125h2q135 0 233 -51t127 -149z" glyph-name="f" horiz-adv-x="634" unicode="f"/><glyph d="M743 229q135 0 203 -106q70 -109 2 -227q-102 -174 -440 -213q-78 -8 -168 -9q-328 0 -446 99q-106 88 -44 176q47 72 144 80q90 10 131 -56q70 -109 156 -155.5t163 -46.5q80 0 132.5 48t50.5 96t-33 71q-33 16 -116 -11.5t-171 -21.5q-82 6 -135 33.5t-69.5 66.5 t-11.5 80t39 76t85 51q-98 41 -156.5 106.5t-58.5 141.5q0 121 133 207t322 86q41 0 110 -8q37 63 128 114t171 45q111 -8 117 -88q4 -63 -51 -102q-33 -25 -70 -14q-92 18 -162 8q96 -39 153.5 -104.5t57.5 -143.5q0 -121 -134 -206t-320 -85q-43 0 -64 2 q-80 -31 -115 -106q-35 -74 21 -95q6 0 12 -2q47 -8 101.5 23t96.5 74t106 79.5t130 36.5zM455 717q-37 0 -63.5 -61.5t-26.5 -149.5t26.5 -150.5t63.5 -62.5t63.5 62.5t26.5 150.5t-26.5 149.5t-63.5 61.5z" glyph-name="g" horiz-adv-x="960" unicode="g"/><glyph d="M600 801q111 0 180.5 -81t91 -179.5t45 -197.5t50.5 -124q6 -6 22.5 -16t22.5 -19.5t4 -21.5q-10 -72 -193 -72q-84 0 -155.5 45t-71.5 156v282q0 121 -57 115q-49 -4 -97 -94q-53 -109 -41 -229q10 -119 43 -152q6 -6 18.5 -15.5t17.5 -17.5t3 -18q-10 -72 -245 -72 q-227 0 -238 72q-2 10 2 18t8 12.5t13.5 12.5t13.5 12q45 41 45 322v46.5v47v42t-2 41t-4 34t-6 33t-10.5 25.5t-14.5 23q-6 8 -16.5 19.5t-16.5 17.5t-10 16.5t-2 22.5q2 18 14.5 33.5t36 32t39.5 26t51 26.5t45 22q45 23 75 36t79 28t70.5 1t11.5 -61q-23 -102 -29 -426 q29 84 90.5 130t116.5 46z" glyph-name="h" horiz-adv-x="1030" unicode="h"/><glyph d="M213 801q-63 0 -107.5 44t-44.5 107.5t44.5 107.5t107.5 44t107.5 -44t44.5 -107.5t-44.5 -107.5t-107.5 -44zM422 735q-12 -55 -22.5 -142t-4.5 -211t49 -169q6 -6 18.5 -15.5t17.5 -17.5t3 -18q-10 -72 -245 -72q-227 0 -238 72q-2 10 2 18t8 12.5t13.5 12.5t13.5 12 q33 29 37 143.5t-29 155.5q-6 6 -20.5 21.5t-20.5 26.5t-4 26q2 18 13.5 33.5t38 33t38.5 25.5t52 27.5t44 21.5q186 90 226 62q20 -17 10 -58z" glyph-name="i" unicode="i"/><glyph d="M231 801q-63 0 -108 44t-45 107.5t45 107.5t108 44q61 0 106.5 -44t45.5 -107.5t-45.5 -107.5t-106.5 -44zM440 735q-14 -59 -27.5 -275t1.5 -356q20 -197 -119 -313.5t-340 -116.5q-154 0 -273.5 53.5t-142.5 151.5q-27 119 92 160q100 35 201 -8q100 -41 70 -121 q-2 -8 -8 -19q-23 -39 -16 -78.5t34 -52t59 1.5q96 61 117 394q16 283 -43 360q-6 6 -20.5 21.5t-20.5 26.5t-4 26q2 20 27.5 42.5t52 36t72 34t59.5 28.5q180 90 219 62q20 -15 10 -58z" glyph-name="j" horiz-adv-x="481" unicode="j"/><glyph d="M598 582q84 12 149.5 -34t97.5 -109.5t64.5 -132t55.5 -87.5q6 -6 18 -13t17.5 -12.5t10.5 -13.5t3 -18q-10 -72 -191 -72q-86 0 -160.5 45t-74.5 156q0 53 -38 99t-93 38q-66 -8 -54 -82q18 -111 41 -133q6 -6 18.5 -15.5t17.5 -17.5t3 -18q-10 -72 -245 -72 q-227 0 -238 72q-2 10 2 18t8 12.5t13.5 12.5t13.5 12q45 41 45 322v46.5v47v42t-2 41t-4 34t-6 33t-10.5 25.5t-14.5 23q-6 8 -16.5 19.5t-16.5 17.5t-10 16.5t-2 22.5q2 18 14.5 33.5t36 32t39.5 26t51 26.5t45 22q45 23 75 36t79 28t70.5 1t11.5 -61q-8 -41 -19.5 -207 t-9.5 -312l228 168q12 12 8 38t2 34q25 29 133 29q127 0 131 -27q2 -4 -4 -10q-16 -16 -73.5 -41t-86.5 -45z" glyph-name="k" horiz-adv-x="1030" unicode="k"/><glyph d="M422 1051q-10 -43 -22.5 -217.5t-5.5 -375t50 -245.5q6 -6 18.5 -15.5t17.5 -17.5t3 -18q-10 -72 -245 -72q-227 0 -238 72q-2 10 2 18t8 12.5t13.5 12.5t13.5 12q45 41 45 322v46.5v47v42t-2 41t-4 34t-6 33t-10.5 25.5t-14.5 23q-6 8 -16.5 19.5t-16.5 17.5t-10 16.5 t-2 22.5q2 18 14.5 33.5t36 32t39.5 26t51 26.5t45 22q45 23 75 36t79 28t70.5 1t11.5 -61z" glyph-name="l" unicode="l"/><glyph d="M1036 801q82 0 132.5 -45t72 -119t34.5 -150.5t35.5 -154.5t59.5 -119q6 -6 17.5 -15.5t17.5 -17.5t4 -18q-10 -72 -207 -72q-51 0 -99 13.5t-93 61.5t-45 126v282q0 96 -33 86q-37 -10 -68 -118q-20 -66 -20 -131v-119q0 -29 14 -49.5t30.5 -28.5t30 -21.5t11.5 -29.5 q-10 -72 -209 -72q-78 0 -137.5 44t-59.5 157v282q0 94 -30 89q-37 -8 -76 -117q-29 -88 -25 -160q12 -133 51 -172q6 -6 18.5 -15.5t17.5 -17.5t3 -18q-10 -72 -245 -72q-227 0 -238 72q-2 10 2 18t8 12.5t13.5 12.5t13.5 12q33 29 37 143.5t-29 155.5q-6 6 -20.5 21.5 t-20.5 26.5t-4 26q2 18 13.5 33.5t38 33t38.5 25.5t52 27.5t44 21.5q186 90 226 62q20 -16 10 -58l-14 -90q63 156 188 156q90 0 150.5 -61.5t82.5 -161.5v4q20 92 74.5 155.5t132.5 63.5z" glyph-name="m" horiz-adv-x="1427" unicode="m"/><glyph d="M596 801q104 0 172 -79t91.5 -176t51 -199.5t56.5 -133.5q4 -4 13 -11t14 -12.5t9.5 -12.5t2.5 -15q-10 -72 -207 -72q-82 0 -151.5 45t-69.5 156v282q0 117 -50 113q-45 -4 -92 -94q-43 -86 -43 -164q0 -162 51 -215q6 -6 18.5 -15.5t17.5 -17.5t3 -18q-10 -72 -245 -72 q-227 0 -238 72q-2 10 2 18t8 12.5t13.5 12.5t13.5 12q33 29 37 143.5t-29 155.5q-6 6 -20.5 21.5t-20.5 26.5t-4 26q2 18 13.5 33.5t38 33t38.5 25.5t52 27.5t44 21.5q186 90 226 62q20 -16 10 -58l-10 -61q35 61 87 94t97 33z" glyph-name="n" horiz-adv-x="1024" unicode="n"/><glyph d="M381 801q158 0 270.5 -104.5t112.5 -252t-112.5 -251t-270.5 -103.5t-269.5 103.5t-111.5 251t111.5 252t269.5 104.5zM381 164q35 0 60.5 82t25.5 194.5t-25.5 193.5t-60.5 81t-59.5 -80t-24.5 -194.5t24.5 -195.5t59.5 -81z" glyph-name="o" horiz-adv-x="782" unicode="o"/><glyph d="M582 801q127 0 216 -104.5t89 -252.5q0 -143 -99.5 -248.5t-228.5 -105.5q-115 0 -164 35q10 -188 49 -229q6 -6 14.5 -12.5t13.5 -10.5t9 -11t2 -18q-10 -72 -245 -71q-227 0 -238 71q-2 10 2 18.5t8 12.5t13.5 12.5t13.5 12.5q45 41 45 323v47v47.5v41t-2 40t-4 34 t-6 33.5t-10.5 26.5t-14.5 23.5q-6 6 -20.5 21.5t-20.5 26.5t-4 26q2 18 13.5 33.5t38 33t38.5 25.5t52 27.5t44 21.5q174 84 220 66q23 -10 20 -45q72 49 156 49zM471 186q90 41 115.5 169t-8 237.5t-93.5 109.5q-29 0 -51 -30.5t-24 -63.5q-16 -143 -17 -338 q0 -51 29 -72.5t49 -11.5z" glyph-name="p" horiz-adv-x="907" unicode="p"/><glyph d="M809 276q0 -197 51 -266q6 -8 16.5 -19t16.5 -18.5t10 -17.5t2 -21q-2 -12 -8 -24t-20.5 -24.5t-25.5 -20.5t-32.5 -19.5t-32 -17.5t-36 -17.5t-31.5 -15.5q-205 -109 -246 -55q-14 16 -6 49q25 119 29 340q-39 -39 -168 -39t-228.5 105.5t-99.5 248.5q0 147 90 252 t217 105q84 0 158 -51q-2 27 10 39t37 11t49.5 -6.5t59 -19.5t54 -22.5t44.5 -20.5q4 -2 44 -21.5t52 -27.5t39 -25.5t38 -33t13 -33.5q2 -10 -2 -20.5t-9 -17.5t-16.5 -18.5l-17.5 -17.5q-31 -41 -41 -90.5t-10 -149.5zM416 186q23 -10 51.5 1.5t30.5 54.5q0 209 -19 385 q-4 35 -26 53q-70 61 -121 -39q-55 -106 -35 -256q21 -154 119 -199z" glyph-name="q" horiz-adv-x="929" unicode="q"/><glyph d="M809 709q16 -27 11 -66t-32.5 -70.5t-61.5 -52t-74 -11.5t-70 52q-53 72 -82 88q-18 8 -39 8q-53 0 -62 -84q-23 -291 45 -360q6 -6 18.5 -15.5t17.5 -17.5t3 -18q-10 -72 -245 -72q-227 0 -238 72q-2 10 2 18t8 12.5t13.5 12.5t13.5 12q33 29 37 143.5t-29 155.5 q-6 6 -20.5 21.5t-20.5 26.5t-4 26q2 18 13.5 33.5t38 33t38.5 25.5t52 27.5t44 21.5q186 90 226 62q20 -16 10 -58q0 -2 -4 -26q82 92 192 92q131 0 199 -92z" glyph-name="r" horiz-adv-x="835" unicode="r"/><glyph d="M725 666q37 -74 -51 -107t-172 4q-74 33 -66 101q6 49 -18.5 69.5t-54 8t-37.5 -43.5q-12 -55 43 -105t130.5 -84t145.5 -87t80 -111q14 -82 -94.5 -151.5t-255.5 -69.5h-4q-121 0 -224.5 35t-136.5 100q-37 74 51 107t172 -4q74 -33 66 -101q-6 -49 17.5 -69.5t53 -8 t40.5 43.5q14 45 -20 81.5t-94 66.5t-121.5 59.5t-110 73.5t-54.5 97q-12 104 90.5 167t259.5 63h5q119 0 223 -34.5t137 -100.5z" glyph-name="s" horiz-adv-x="759" unicode="s"/><glyph d="M588 690q16 0 28.5 -12t12.5 -29v-67h-193q-12 -307 60 -353q12 -8 37.5 -8t31.5 -10q20 -45 -60.5 -83t-193.5 -38q-102 0 -163.5 46t-61.5 138v308h-47q-14 0 -26.5 12t-12.5 27v28q0 25 39 41q47 18 118.5 100t138 153t116.5 71q14 0 22 -2t20.5 -8.5t16.5 -26 t0 -47.5l-2 -12q-2 -12 -5 -36t-6 -51.5t-7.5 -65.5t-6.5 -75h144z" glyph-name="t" horiz-adv-x="649" unicode="t"/><glyph d="M928 213q6 -6 17 -15.5t17.5 -17.5t4.5 -18q-10 -72 -168 -72q-53 0 -119 27.5t-82 27.5q-20 0 -63 -22.5t-80 -28.5q-10 -4 -43 -4h-9q-68 0 -135 20.5t-122.5 70.5t-59.5 122v10q0 150 -41 203q-6 8 -15.5 18.5t-15.5 16.5t-10 15t-4 20v8q4 16 16.5 32.5t36 32 t41 24.5t50 25.5t42.5 22.5q178 86 222 64q25 -12 14 -60q-14 -72 -25.5 -148.5t-6.5 -211.5t54 -191q20 -14 45 -14q35 0 66 51q20 35 20 135v15q-4 88 -47 145q-6 6 -20 21.5t-20.5 26.5t-4.5 26q2 18 13.5 33.5t38 33t39 25.5t52.5 27.5t44 21.5q229 115 237 35 q2 -12 -2 -31q-12 -55 -22.5 -142t-4 -211t49.5 -169z" glyph-name="u" horiz-adv-x="978" unicode="u"/><glyph d="M879 801q61 0 103 -19.5t24 -48.5q-16 -23 -58 -47q-49 -33 -148.5 -216t-168.5 -259q-111 -121 -211 -121q-39 0 -70 24.5t-39 73.5q-27 145 -107.5 294t-142.5 196q-6 4 -18 11t-19.5 12.5t-13.5 12.5t-8 15q-20 72 215 72q244 0 283 -72q6 -10 6 -18.5t-2 -12.5 t-9.5 -12t-9.5 -12q-10 -16 11.5 -79t52.5 -144.5t37 -126.5q68 106 97.5 213.5t8.5 148.5q-14 27 -6 47q10 29 72 48.5t121 19.5z" glyph-name="v" horiz-adv-x="1024" unicode="v"/><glyph d="M1382 801q59 0 102.5 -19.5t24.5 -48.5q-8 -16 -53 -47q-47 -33 -139 -216t-158 -259q-106 -121 -207 -121q-92 0 -112 98q-23 98 -62 215q-74 -135 -125 -192q-106 -121 -204 -121q-92 0 -115 98q-33 145 -120 294t-151 196q-8 4 -19 11t-18.5 12.5t-14.5 12.5t-9 15 q-8 23 12.5 37t57.5 21.5t71.5 10.5t71.5 3q244 0 285 -72q6 -10 6 -18.5t-1 -12.5t-7 -12l-9 -12q-10 -16 13.5 -79t57.5 -144.5t42 -126.5q63 106 80 182q25 115 -55 172q-8 4 -19.5 11t-18.5 12.5t-14.5 12.5t-9.5 15q-14 41 32 56.5t122 15.5q244 0 287 -72 q6 -10 6 -18.5t-1 -11.5t-8.5 -13t-9.5 -12q-10 -16 13.5 -79t58.5 -144.5t43 -126.5q63 106 89 213.5t3 148.5q-16 25 -10 47q8 29 69.5 48.5t122.5 19.5z" glyph-name="w" horiz-adv-x="1531" unicode="w"/><glyph d="M776 291q39 -47 100.5 -77t77.5 -52q29 -45 -86 -62q-59 -10 -137 -10q-248 0 -301 55q-20 20 -8 41t23.5 40.5t-21.5 64.5l-33 37q-16 23 -33 0l-61 -82q-23 -31 14 -63.5t31 -43.5q-23 -49 -188 -49q-59 0 -101.5 16.5t-34.5 40.5q8 20 82 46t95 55l124 168l-153 184 q-37 45 -90 76t-70 53q-27 37 55 57q66 14 170 15q229 0 273 -47q20 -23 -0.5 -65t16.5 -89l41 -49q18 -20 33 0l68 92q25 33 -12.5 64.5t-31.5 44.5q23 49 189 49q57 0 100 -17.5t35 -42.5q-8 -20 -82 -44.5t-94 -53.5l-133 -180z" glyph-name="x" horiz-adv-x="974" unicode="x"/><glyph d="M952 801q61 0 109.5 -20.5t32.5 -47.5q-16 -25 -82 -52.5t-78 -51.5l-410 -764q-119 -190 -309 -191q-109 0 -193.5 54.5t-91.5 132.5q-6 80 72 140t164 55t102 -83q12 -68 48 -114.5t81 -10.5q31 25 51.5 62t20.5 82t-37 78q-61 57 -104 167.5t-87 219t-114 164.5 q-14 12 -46 31.5t-52.5 37t-28.5 40t19.5 36.5t75.5 21.5t90 10.5t83 3q295 0 324 -72q8 -18 -1 -28.5t-22.5 -16.5t-22.5 -26.5t-1 -57.5q0 -4 12 -43t35.5 -101.5t46.5 -109.5q18 -33 37 0l153 285q14 25 -24.5 59.5t-28.5 50.5q33 60 176 60z" glyph-name="y" horiz-adv-x="1114" unicode="y"/><glyph d="M633 326q20 53 85.5 65t122 -16.5t56.5 -77.5q0 -78 -82 -142.5t-172 -64.5h-489q-59 0 -91 20.5t-29 46t17 46.5l369 413q100 104 12 105q-106 0 -168 -156q-20 -53 -85.5 -65.5t-122 16.5t-56.5 78q0 78 82 142.5t172 64.5h489q59 0 91 -20.5t29 -46t-17 -48.5 l-371 -412q-96 -104 -10 -104q107 0 168 156z" glyph-name="z" horiz-adv-x="909" unicode="z"/><glyph d="M475 1133q-53 0 -71.5 -83t-13.5 -181.5t-20.5 -181.5t-93.5 -83q68 0 93.5 -83t20.5 -182t13.5 -182t71.5 -83h57q23 0 39.5 -13.5t16.5 -34t-16.5 -33.5t-39.5 -13h-188q-90 0 -143.5 59t-68.5 144t-22.5 170t-20.5 144.5t-46 59.5h-6q-37 0 -37 47t37 47h6 q33 0 46 59.5t20.5 143.5t22.5 169t68.5 144.5t143.5 59.5h188q23 0 39.5 -13.5t16.5 -33.5q0 -18 -16.5 -32.5t-39.5 -14.5h-57z" glyph-name="braceleft" horiz-adv-x="536" unicode="{"/><glyph d="M61 1118q25 0 43.5 -23.5t18.5 -56.5v-868q0 -33 -18.5 -56.5t-43.5 -23.5q-27 0 -44 22.5t-17 57.5v868q0 33 17 56.5t44 23.5z" glyph-name="bar" horiz-adv-x="145" unicode="|"/><glyph d="M500 651q35 0 35 -47t-35 -47h-6q-33 0 -46.5 -59.5t-20.5 -144.5t-23.5 -170t-68.5 -144t-142 -59h-191q-23 0 -39 13t-16 33.5t16.5 34t38.5 13.5h59q45 0 63.5 54t19.5 133t4.5 157t29 132t80.5 54q-55 0 -80.5 54.5t-29 132t-4.5 155.5t-19.5 132.5t-63.5 54.5h-59 q-23 0 -39 14t-16 33q0 20 16.5 33.5t38.5 13.5h191q90 0 142 -59.5t68.5 -144.5t23.5 -169t20.5 -143.5t46.5 -59.5h6z" glyph-name="braceright" horiz-adv-x="546" unicode="}"/><glyph d="M553 643q35 8 39 0t-10 -37q-41 -82 -98.5 -109.5t-114 -10t-120 39t-116.5 41t-104 -3.5q-10 -4 -17.5 -4t-10.5 8t9 31q51 92 127 115.5t141.5 -1t146.5 -51t128 -18.5z" glyph-name="asciitilde" horiz-adv-x="604" unicode="~"/><glyph d="M78 1028q33 0 56.5 -22.5t23.5 -55t-23.5 -56.5t-56.5 -24t-55.5 24t-22.5 56.5t22.5 55t55.5 22.5zM272.5 1028q32.5 0 56 -22.5t23.5 -55t-22.5 -56.5t-57.5 -24q-33 0 -55 24t-22 56.5t22.5 55t55 22.5z" glyph-name="dieresis" horiz-adv-x="368" unicode=""/><glyph d="M311 1047q31 -4 33 -19q0 -8 -10 -16q-14 -10 -52 -37t-69 -45l-29 -21q-43 -33 -78.5 -38t-72.5 8q-31 4 -33 18q0 8 10 16l150 105q43 31 77.5 36t73.5 -7z" glyph-name="acute" horiz-adv-x="354" unicode=""/><glyph d="M166 43q70 -14 80 -84t-36 -133.5t-118 -63.5q-92 0 -92 68q0 51 41 78q29 18 51 -6q23 -25 51.5 -7.5t20.5 56.5q-6 27 -58 37q-47 6 -28 53l31 96l61 -12l-18 -53q-6 -23 14 -29z" glyph-name="cedilla" horiz-adv-x="270" unicode=""/><glyph d="M1151 319q23 -39 83 -85t66 -72q6 -23 -17 -37t-66 -21.5t-81 -10.5t-75 -3q-276 0 -316 72q-10 16 7.5 40.5t19.5 37.5q6 43 -18 131q-6 27 -39 57.5t-82 30.5h-197q-51 0 -76.5 -23.5t-23.5 -49.5t4 -44q10 -51 63.5 -103.5t38.5 -80.5q-14 -33 -88.5 -50.5 t-144.5 -17.5q-51 0 -97 7t-80 25.5t-26 45.5q6 20 28.5 38.5t51.5 37t66.5 66.5t68.5 118l217 539q27 61 72 106t104 45h78q125 0 185 -162q145 -416 274 -637zM578 555q59 0 76.5 25.5t-3.5 83.5q-33 92 -94 202q-8 18 -24.5 16.5t-24.5 -22.5q-66 -154 -82 -205 q-20 -57 -9 -78.5t64 -21.5h97zM819 1237q10 -8 10 -16q-2 -14 -32 -19q-39 -12 -74 -7t-78 38l-31 20q-29 18 -66.5 45t-51.5 37q-10 8 -11 17q2 14 33 18q37 12 73 7t79 -36z" glyph-name="Agrave" horiz-adv-x="1314" unicode=""/><glyph d="M1151 319q23 -39 83 -85t66 -72q6 -23 -17 -37t-66 -21.5t-81 -10.5t-75 -3q-276 0 -316 72q-10 16 7.5 40.5t19.5 37.5q6 43 -18 131q-6 27 -39 57.5t-82 30.5h-197q-51 0 -76.5 -23.5t-23.5 -49.5t4 -44q10 -51 63.5 -103.5t38.5 -80.5q-14 -33 -88.5 -50.5 t-144.5 -17.5q-51 0 -97 7t-80 25.5t-26 45.5q6 20 28.5 38.5t51.5 37t66.5 66.5t68.5 118l217 539q27 61 72 106t104 45h78q125 0 185 -162q145 -416 274 -637zM578 555q59 0 76.5 25.5t-3.5 83.5q-33 92 -94 202q-8 18 -24.5 16.5t-24.5 -22.5q-66 -154 -82 -205 q-20 -57 -9 -78.5t64 -21.5h97zM797 1403q31 -4 32 -19q0 -8 -10 -16q-14 -10 -52 -36.5t-67 -45.5l-30 -20q-43 -33 -79 -38t-73 7q-31 4 -33 18q0 8 11 17l149 104q43 31 78 36t74 -7z" glyph-name="Aacute" horiz-adv-x="1314" unicode=""/><glyph d="M1151 319q23 -39 83 -85t66 -72q6 -23 -17 -37t-66 -21.5t-81 -10.5t-75 -3q-276 0 -316 72q-10 16 7.5 40.5t19.5 37.5q6 43 -18 131q-6 27 -39 57.5t-82 30.5h-197q-51 0 -76.5 -23.5t-23.5 -49.5t4 -44q10 -51 63.5 -103.5t38.5 -80.5q-14 -33 -88.5 -50.5 t-144.5 -17.5q-51 0 -97 7t-80 25.5t-26 45.5q6 20 28.5 38.5t51.5 37t66.5 66.5t68.5 118l217 539q27 61 72 106t104 45h78q125 0 185 -162q145 -416 274 -637zM578 555q59 0 76.5 25.5t-3.5 83.5q-33 92 -94 202q-8 18 -24.5 16.5t-24.5 -22.5q-66 -154 -82 -205 q-20 -57 -9 -78.5t64 -21.5h97zM852 1223q-4 -12 -35 -13q-49 0 -77.5 10.5t-65.5 51.5l-17 18l-16 -18q-37 -41 -65.5 -51.5t-79.5 -10.5q-31 0 -35 13q-4 6 8 18q123 123 123 131q31 29 65.5 29t63.5 -29l24 -26q25 -27 55.5 -59t45.5 -46q10 -12 6 -18z" glyph-name="Acircumflex" horiz-adv-x="1314" unicode=""/><glyph d="M1151 319q23 -39 83 -85t66 -72q6 -23 -17 -37t-66 -21.5t-81 -10.5t-75 -3q-276 0 -316 72q-10 16 7.5 40.5t19.5 37.5q6 43 -18 131q-6 27 -39 57.5t-82 30.5h-197q-51 0 -76.5 -23.5t-23.5 -49.5t4 -44q10 -51 63.5 -103.5t38.5 -80.5q-14 -33 -88.5 -50.5 t-144.5 -17.5q-51 0 -97 7t-80 25.5t-26 45.5q6 20 28.5 38.5t51.5 37t66.5 66.5t68.5 118l217 539q27 61 72 106t104 45h78q125 0 185 -162q145 -416 274 -637zM578 555q59 0 76.5 25.5t-3.5 83.5q-33 92 -94 202q-8 18 -24.5 16.5t-24.5 -22.5q-66 -154 -82 -205 q-20 -57 -9 -78.5t64 -21.5h97zM827 1311q25 4 27 0q4 -6 -6 -25q-33 -68 -85 -80t-98.5 9.5t-102.5 39t-89 0.5q-6 -2 -11 -2t-7 6.5t6 20.5q45 80 110.5 84t143 -27.5t112.5 -25.5z" glyph-name="Atilde" horiz-adv-x="1314" unicode=""/><glyph d="M1151 319q23 -39 83 -85t66 -72q6 -23 -17 -37t-66 -21.5t-81 -10.5t-75 -3q-276 0 -316 72q-10 16 7.5 40.5t19.5 37.5q6 43 -18 131q-6 27 -39 57.5t-82 30.5h-197q-51 0 -76.5 -23.5t-23.5 -49.5t4 -44q10 -51 63.5 -103.5t38.5 -80.5q-14 -33 -88.5 -50.5 t-144.5 -17.5q-51 0 -97 7t-80 25.5t-26 45.5q6 20 28.5 38.5t51.5 37t66.5 66.5t68.5 118l217 539q27 61 72 106t104 45h78q125 0 185 -162q145 -416 274 -637zM578 555q59 0 76.5 25.5t-3.5 83.5q-33 92 -94 202q-8 18 -24.5 16.5t-24.5 -22.5q-66 -154 -82 -205 q-20 -57 -9 -78.5t64 -21.5h97zM542.5 1372q32.5 0 56.5 -22.5t24 -55t-22.5 -56.5t-57.5 -24q-33 0 -55.5 24t-22.5 56.5t22.5 55t55 22.5zM737.5 1372q32.5 0 56 -22.5t23.5 -55t-23.5 -56.5t-56 -24t-55.5 24t-23 56.5t23 55t55.5 22.5z" glyph-name="Adieresis" horiz-adv-x="1314" unicode=""/><glyph d="M657.5 1309q47.5 0 81 -35t33.5 -82t-33 -80q92 -29 138 -156q145 -416 274 -637q23 -39 83 -85t66 -72q6 -23 -17 -37t-66 -21.5t-81 -10.5t-75 -3q-276 0 -316 72q-10 16 7.5 40.5t19.5 37.5q6 43 -18 131q-6 27 -39 57.5t-82 30.5h-197q-51 0 -76.5 -23.5t-23.5 -49.5 t4 -44q10 -51 63.5 -103.5t38.5 -80.5q-14 -33 -88.5 -50.5t-144.5 -17.5q-51 0 -97 7t-80 25.5t-26 45.5q6 20 28.5 38.5t51.5 37t66.5 66.5t68.5 118l217 539q51 119 137 145q-33 33 -32.5 80t34 82t81 35zM578 555q59 0 76.5 25.5t-3.5 83.5q-33 92 -94 202 q-8 18 -24.5 16.5t-24.5 -22.5q-66 -154 -82 -205q-20 -57 -9 -78.5t64 -21.5h97zM657.5 1143q20.5 0 35 14t14.5 34.5t-14.5 35t-35 14.5t-35 -14.5t-14.5 -35t14.5 -34.5t35 -14z" glyph-name="Aring" horiz-adv-x="1314" unicode=""/><glyph d="M1397 1020q-68 0 -112 -91t-56 -231h57q47 0 81 16.5t47 37t29.5 39t31.5 20.5q18 2 34.5 -22.5t24.5 -62.5t8 -75q0 -61 -19.5 -112.5t-47.5 -46.5q-18 2 -37 29.5t-54.5 54t-97.5 26.5h-61q0 -168 45 -292t127 -124q127 0 184 140q20 53 86 65t122 -16.5t56 -77.5 q0 -78 -82 -142.5t-172 -64.5h-522h-8h-29h-4q-248 6 -283 72q-10 16 7.5 40.5t19.5 37.5q6 43 -18 131q-6 27 -39 57.5t-82 30.5h-197q-51 0 -76.5 -23.5t-23.5 -49.5t4 -44q10 -51 63.5 -103.5t38.5 -80.5q-14 -33 -88.5 -50.5t-144.5 -17.5q-51 0 -97 7t-80 25.5 t-26 45.5q6 20 28.5 38.5t51.5 37t66.5 66.5t68.5 118l217 539q27 61 72 106t104 45h78q86 0 139 -76q23 76 238 76h522q90 0 172 -64.5t82 -144.5q0 -37 -34.5 -62.5t-79.5 -32.5t-89.5 9.5t-60.5 57.5q-57 139 -184 139zM578 555q59 0 76.5 25.5t-3.5 83.5q-33 92 -94 202 q-8 18 -24.5 16.5t-24.5 -22.5q-66 -154 -82 -205q-20 -57 -9 -78.5t64 -21.5h97z" glyph-name="AE" horiz-adv-x="1867" unicode=""/><glyph d="M580 43q70 -14 80 -84t-36 -133.5t-118 -63.5q-92 0 -92 68q0 51 41 78q29 18 51 -6q23 -25 51.5 -7.5t20.5 56.5q-6 27 -58 37q-47 6 -28 53l14 49q-211 8 -358.5 156.5t-147.5 357.5q0 213 154.5 363.5t371.5 150.5q152 0 280 -76.5t187 -203.5q55 -113 -49 -199 q-86 -74 -194 -64q-117 10 -134 123q-6 37 0 80q14 102 -21.5 177t-94.5 65q-76 -12 -123 -146.5t-23 -302.5q18 -133 90 -199.5t160 -63.5t178 45t150 112q41 47 84 27q23 -10 16 -31q-45 -152 -171 -253.5t-290 -115.5l-6 -20q-5 -23 15 -29z" glyph-name="Ccedilla" horiz-adv-x="1058" unicode=""/><glyph d="M567 1020q-68 0 -111.5 -91t-56.5 -231h58q47 0 80.5 16.5t47 37t30 39t30.5 20.5q18 2 34.5 -22.5t25 -62.5t8.5 -75q0 -61 -19.5 -112.5t-48.5 -46.5q-18 2 -36.5 29.5t-54.5 54t-97 26.5h-62q0 -168 45 -292t127 -124q127 0 185 140q20 53 85.5 65t122 -16.5 t56.5 -77.5q0 -78 -82 -142.5t-172 -64.5h-522q-240 0 -240 94q0 47 49 111q53 70 45 316.5t-53 312.5q-41 55 -41 100q0 94 240 94h522q90 0 172 -64.5t82 -144.5q0 -37 -35 -62.5t-80 -32.5t-89 9.5t-60 57.5q-58 139 -185 139zM678 1292q10 -8 10 -16q-2 -14 -33 -19 q-39 -12 -73.5 -7t-77.5 38l-29 19q-31 20 -68.5 46.5t-52.5 37.5q-10 8 -10 16q2 14 33 18q37 12 72.5 7t78.5 -35z" glyph-name="Egrave" horiz-adv-x="1032" unicode=""/><glyph d="M567 1020q-68 0 -111.5 -91t-56.5 -231h58q47 0 80.5 16.5t47 37t30 39t30.5 20.5q18 2 34.5 -22.5t25 -62.5t8.5 -75q0 -61 -19.5 -112.5t-48.5 -46.5q-18 2 -36.5 29.5t-54.5 54t-97 26.5h-62q0 -168 45 -292t127 -124q127 0 185 140q20 53 85.5 65t122 -16.5 t56.5 -77.5q0 -78 -82 -142.5t-172 -64.5h-522q-240 0 -240 94q0 47 49 111q53 70 45 316.5t-53 312.5q-41 55 -41 100q0 94 240 94h522q90 0 172 -64.5t82 -144.5q0 -37 -35 -62.5t-80 -32.5t-89 9.5t-60 57.5q-58 139 -185 139zM655 1403q31 -4 33 -19q0 -8 -10 -16 q-14 -10 -52 -36.5t-69 -45.5l-29 -20q-43 -33 -78.5 -38t-72.5 7q-31 4 -33 18q0 8 10 17l150 104q43 31 77.5 36t73.5 -7z" glyph-name="Eacute" horiz-adv-x="1032" unicode=""/><glyph d="M567 1020q-68 0 -111.5 -91t-56.5 -231h58q47 0 80.5 16.5t47 37t30 39t30.5 20.5q18 2 34.5 -22.5t25 -62.5t8.5 -75q0 -61 -19.5 -112.5t-48.5 -46.5q-18 2 -36.5 29.5t-54.5 54t-97 26.5h-62q0 -168 45 -292t127 -124q127 0 185 140q20 53 85.5 65t122 -16.5 t56.5 -77.5q0 -78 -82 -142.5t-172 -64.5h-522q-240 0 -240 94q0 47 49 111q53 70 45 316.5t-53 312.5q-41 55 -41 100q0 94 240 94h522q90 0 172 -64.5t82 -144.5q0 -37 -35 -62.5t-80 -32.5t-89 9.5t-60 57.5q-58 139 -185 139zM711 1241q-4 -12 -35 -12q-49 0 -78 10 t-66 51l-16 19l-16 -19q-37 -41 -65.5 -51t-80.5 -10q-31 0 -35 12q-4 6 9 19q123 123 123 131q31 29 65.5 28.5t63.5 -28.5l24 -27q25 -27 55.5 -58.5t45.5 -45.5q8 -13 6 -19z" glyph-name="Ecircumflex" horiz-adv-x="1032" unicode=""/><glyph d="M567 1020q-68 0 -111.5 -91t-56.5 -231h58q47 0 80.5 16.5t47 37t30 39t30.5 20.5q18 2 34.5 -22.5t25 -62.5t8.5 -75q0 -61 -19.5 -112.5t-48.5 -46.5q-18 2 -36.5 29.5t-54.5 54t-97 26.5h-62q0 -168 45 -292t127 -124q127 0 185 140q20 53 85.5 65t122 -16.5 t56.5 -77.5q0 -78 -82 -142.5t-172 -64.5h-522q-240 0 -240 94q0 47 49 111q53 70 45 316.5t-53 312.5q-41 55 -41 100q0 94 240 94h522q90 0 172 -64.5t82 -144.5q0 -37 -35 -62.5t-80 -32.5t-89 9.5t-60 57.5q-58 139 -185 139zM612.5 1380q32.5 0 56 -22.5t23.5 -55 t-22.5 -56t-57.5 -23.5q-33 0 -55 23.5t-22 56t22.5 55t55 22.5zM418 1380q33 0 56.5 -22.5t23.5 -55t-23.5 -56t-56.5 -23.5t-55.5 23.5t-22.5 56t22.5 55t55.5 22.5z" glyph-name="Edieresis" horiz-adv-x="1032" unicode=""/><glyph d="M498 1024q0 -45 -41 -100q-45 -66 -53.5 -312.5t42.5 -316.5q51 -59 52 -111q0 -94 -240 -94h-18q-240 0 -240 94q0 47 49 111q53 70 45 316.5t-53 312.5q-41 55 -41 100q0 94 240 94h18q240 0 240 -94zM420 1280q10 -8 10 -16q-2 -14 -33 -19q-39 -12 -73.5 -7t-77.5 38 l-29 18q-31 20 -68.5 47t-52.5 37q-10 8 -10 17q2 14 33 18q37 12 72.5 7t78.5 -36z" glyph-name="Igrave" horiz-adv-x="516" unicode=""/><glyph d="M498 1024q0 -45 -41 -100q-45 -66 -53.5 -312.5t42.5 -316.5q51 -59 52 -111q0 -94 -240 -94h-18q-240 0 -240 94q0 47 49 111q53 70 45 316.5t-53 312.5q-41 55 -41 100q0 94 240 94h18q240 0 240 -94zM397 1393q31 -4 33 -19q0 -8 -10 -16q-14 -10 -52 -37t-69 -47 l-29 -19q-43 -33 -78.5 -38t-72.5 8q-31 4 -33 18q0 8 10 17l150 104q43 31 77.5 36t73.5 -7z" glyph-name="Iacute" horiz-adv-x="516" unicode=""/><glyph d="M498 1024q0 -45 -41 -100q-45 -66 -53.5 -312.5t42.5 -316.5q51 -59 52 -111q0 -94 -240 -94h-18q-240 0 -240 94q0 47 49 111q53 70 45 316.5t-53 312.5q-41 55 -41 100q0 94 240 94h18q240 0 240 -94zM453 1219q-4 -12 -35 -13q-49 0 -78 10.5t-66 51.5l-16 18l-16 -18 q-37 -41 -66 -51.5t-80 -10.5q-31 0 -35 13q-4 6 9 18q123 123 123 131q31 29 65.5 29t63.5 -29l24 -27q25 -27 55.5 -58.5t44.5 -45.5q9 -12 7 -18z" glyph-name="Icircumflex" horiz-adv-x="516" unicode=""/><glyph d="M498 1024q0 -45 -41 -100q-45 -66 -53.5 -312.5t42.5 -316.5q51 -59 52 -111q0 -94 -240 -94h-18q-240 0 -240 94q0 47 49 111q53 70 45 316.5t-53 312.5q-41 55 -41 100q0 94 240 94h18q240 0 240 -94zM354.5 1372q32.5 0 56 -22.5t23.5 -55t-22.5 -56.5t-57.5 -24 q-33 0 -55.5 24t-22.5 56.5t23 55t55.5 22.5zM160 1372q33 0 56.5 -22.5t23.5 -55t-23.5 -56.5t-56.5 -24t-55.5 24t-22.5 56.5t22.5 55t55.5 22.5z" glyph-name="Idieresis" horiz-adv-x="516" unicode=""/><glyph d="M549 1118q240 0 407.5 -150.5t167.5 -363.5t-168 -363.5t-407 -150.5h-309q-240 0 -240 94q0 43 41 99q37 55 51 264h-76q-35 0 -57 17.5t-22 43.5q0 25 23.5 43.5t55.5 18.5h74q-10 197 -49 254q-41 55 -41 100q0 94 240 94h309zM518 670q33 0 56.5 -18.5t23.5 -43.5 q0 -27 -22.5 -44t-57.5 -17h-106q6 -360 123 -361q98 0 160.5 142.5t62.5 275.5t-62.5 274.5t-160.5 141.5q-113 0 -123 -350h106z" glyph-name="Eth" horiz-adv-x="1148" unicode=""/><glyph d="M1028 205q31 -31 33 -47q2 -18 -24.5 -33.5t-75 -25t-109.5 -9.5q-123 0 -219 45t-150.5 112.5t-97.5 157t-63.5 169t-46 156.5t-48.5 112q-29 -162 -9 -371t71 -266q29 -29 30 -47q4 -29 -47 -48.5t-112 -19.5q-37 0 -75 8t-62.5 24.5t-22.5 35.5q2 14 31 47 q45 51 67.5 223t4 346t-71.5 227q-29 29 -31 50q-2 18 22.5 33.5t62.5 24.5t75 9h155q113 0 191 -62.5t118 -158.5t66.5 -196.5t60 -194.5t78.5 -133q31 156 16.5 363.5t-73.5 264.5q-27 27 -33 50q-2 18 22.5 33.5t62.5 24.5t77 9q37 0 75 -9t62.5 -24.5t22.5 -33.5 q-2 -23 -33 -50q-53 -53 -70.5 -227t4 -346t66.5 -223zM707 1350q25 4 26 0q4 -6 -6 -25q-33 -68 -85 -80t-98 9.5t-102.5 39t-89.5 0.5q-6 -2 -11 -2t-7 6.5t6 20.5q45 80 110.5 84t143.5 -27.5t113 -25.5z" glyph-name="Ntilde" horiz-adv-x="1071" unicode=""/><glyph d="M557 1118q229 0 393 -150.5t164 -363.5t-163 -363.5t-394 -150.5t-394 150.5t-163 363.5t164 363.5t393 150.5zM639 195q76 14 106.5 146t-4.5 300q-33 168 -111.5 277.5t-154.5 93.5q-76 -14 -106.5 -146.5t4.5 -300.5q33 -168 111.5 -277t154.5 -93zM727 1253 q10 -8 10 -16q-2 -14 -32 -18q-39 -12 -74 -7t-78 37l-29 21q-31 18 -68.5 44.5t-52.5 37.5q-10 8 -10 16q2 14 33 18q37 12 73 7.5t79 -35.5z" glyph-name="Ograve" horiz-adv-x="1132" unicode=""/><glyph d="M557 1118q229 0 393 -150.5t164 -363.5t-163 -363.5t-394 -150.5t-394 150.5t-163 363.5t164 363.5t393 150.5zM639 195q76 14 106.5 146t-4.5 300q-33 168 -111.5 277.5t-154.5 93.5q-76 -14 -106.5 -146.5t4.5 -300.5q33 -168 111.5 -277t154.5 -93zM705 1395 q31 -4 32 -19q0 -8 -10 -16q-14 -10 -52 -37t-69 -45l-28 -21q-43 -33 -79 -38t-73 8q-31 4 -33 18q0 8 10 17l150 104q43 31 78 36t74 -7z" glyph-name="Oacute" horiz-adv-x="1132" unicode=""/><glyph d="M557 1118q229 0 393 -150.5t164 -363.5t-163 -363.5t-394 -150.5t-394 150.5t-163 363.5t164 363.5t393 150.5zM639 195q76 14 106.5 146t-4.5 300q-33 168 -111.5 277.5t-154.5 93.5q-76 -14 -106.5 -146.5t4.5 -300.5q33 -168 111.5 -277t154.5 -93zM762 1221 q-4 -12 -35 -13q-49 0 -77.5 10.5t-65.5 51.5l-17 18l-16 -18q-37 -41 -65.5 -51.5t-79.5 -10.5q-31 0 -35 13q-4 6 8 18q123 123 123 131q31 29 65.5 29t63.5 -29l24 -27q25 -27 55.5 -58.5t45.5 -45.5q10 -12 6 -18z" glyph-name="Ocircumflex" horiz-adv-x="1132" unicode=""/><glyph d="M557 1118q229 0 393 -150.5t164 -363.5t-163 -363.5t-394 -150.5t-394 150.5t-163 363.5t164 363.5t393 150.5zM639 195q76 14 106.5 146t-4.5 300q-33 168 -111.5 277.5t-154.5 93.5q-76 -14 -106.5 -146.5t4.5 -300.5q33 -168 111.5 -277t154.5 -93zM737 1321 q25 4 27 0q4 -6 -6 -25q-33 -68 -85 -80t-98.5 9.5t-102.5 39t-89 1.5q-6 -2 -11 -2t-7.5 6t6.5 20q45 80 110.5 84t143 -27.5t112.5 -25.5z" glyph-name="Otilde" horiz-adv-x="1132" unicode=""/><glyph d="M557 1118q229 0 393 -150.5t164 -363.5t-163 -363.5t-394 -150.5t-394 150.5t-163 363.5t164 363.5t393 150.5zM639 195q76 14 106.5 146t-4.5 300q-33 168 -111.5 277.5t-154.5 93.5q-76 -14 -106.5 -146.5t4.5 -300.5q33 -168 111.5 -277t154.5 -93zM467 1384 q33 0 56.5 -22.5t23.5 -55t-23.5 -56t-56.5 -23.5t-55.5 23.5t-22.5 56t22.5 55t55.5 22.5zM661.5 1384q32.5 0 56 -22.5t23.5 -55t-22.5 -56t-56.5 -23.5q-33 0 -55.5 23.5t-22.5 56t22.5 55t55 22.5z" glyph-name="Odieresis" horiz-adv-x="1132" unicode=""/><glyph d="M305 604l103 -104q23 -23 26.5 -52.5t-14.5 -46.5q-16 -18 -46 -14t-52 27l-105 102l-102 -102q-23 -23 -52.5 -27t-48.5 14q-18 16 -14 46t29 53l102 104l-102 103q-25 23 -29 52t14 48q18 16 48 13t53 -27l102 -103l105 103q23 25 52 27.5t46 -13.5q18 -18 14 -48 t-26 -52z" glyph-name="multiply" horiz-adv-x="452" unicode=""/><glyph d="M782 1118q20 0 30.5 -17.5t4.5 -43.5q135 -66 216 -187.5t81 -265.5q0 -213 -163 -363.5t-394 -150.5q-86 0 -156 21q-23 -20 -51 -21q-43 0 -37 51q-141 61 -227 186.5t-86 276.5q0 213 164 363.5t393 150.5q76 0 168 -24q28 24 57 24zM373 565q16 -88 47 -159l213 503 q-80 119 -158 103q-76 -14 -106.5 -146.5t4.5 -300.5zM639 195q76 14 106.5 146t-4.5 300q-14 72 -41 137l-208 -497q75 -100 147 -86z" glyph-name="Oslash" horiz-adv-x="1132" unicode=""/><glyph d="M1141 295q4 -6 17 -23.5t19.5 -28t11.5 -29.5t3 -38q-8 -43 -64.5 -64.5t-134.5 -21.5q-84 0 -148.5 31t-68.5 86q-80 -117 -280 -117q-104 0 -183.5 34t-120 89t-68.5 125t-32 140.5t-8 136t2 112.5q2 127 -47 197q-39 51 -39 110q0 45 65.5 64.5t145.5 19.5h45 q240 0 240 -94q0 -29 -39 -100.5t-43 -196.5t19.5 -239.5t68.5 -200.5t98 -86q88 0 137 151.5t45 325.5t-49 246q-39 63 -39 100q0 84 193 92h2q6 0 18.5 1t18.5 1h24q242 0 242 -94q0 -25 -41 -100q-49 -98 -59 -308t49 -321zM768 1266q10 -8 10 -17q-2 -14 -33 -18 q-39 -12 -73.5 -7t-77.5 38l-29 20q-31 18 -68.5 45t-52.5 37q-10 8 -10 16q2 14 33 19q37 12 72.5 7t78.5 -36z" glyph-name="Ugrave" horiz-adv-x="1212" unicode=""/><glyph d="M1141 295q4 -6 17 -23.5t19.5 -28t11.5 -29.5t3 -38q-8 -43 -64.5 -64.5t-134.5 -21.5q-84 0 -148.5 31t-68.5 86q-80 -117 -280 -117q-104 0 -183.5 34t-120 89t-68.5 125t-32 140.5t-8 136t2 112.5q2 127 -47 197q-39 51 -39 110q0 45 65.5 64.5t145.5 19.5h45 q240 0 240 -94q0 -29 -39 -100.5t-43 -196.5t19.5 -239.5t68.5 -200.5t98 -86q88 0 137 151.5t45 325.5t-49 246q-39 63 -39 100q0 84 193 92h2q6 0 18.5 1t18.5 1h24q242 0 242 -94q0 -25 -41 -100q-49 -98 -59 -308t49 -321zM745 1401q31 -4 33 -19q0 -8 -10 -16 q-14 -10 -52 -36.5t-69 -47.5l-29 -18q-43 -33 -78.5 -38t-72.5 7q-31 4 -33 18q0 8 10 17l150 104q43 31 77.5 36t73.5 -7z" glyph-name="Uacute" horiz-adv-x="1212" unicode=""/><glyph d="M1141 295q4 -6 17 -23.5t19.5 -28t11.5 -29.5t3 -38q-8 -43 -64.5 -64.5t-134.5 -21.5q-84 0 -148.5 31t-68.5 86q-80 -117 -280 -117q-104 0 -183.5 34t-120 89t-68.5 125t-32 140.5t-8 136t2 112.5q2 127 -47 197q-39 51 -39 110q0 45 65.5 64.5t145.5 19.5h45 q240 0 240 -94q0 -29 -39 -100.5t-43 -196.5t19.5 -239.5t68.5 -200.5t98 -86q88 0 137 151.5t45 325.5t-49 246q-39 63 -39 100q0 84 193 92h2q6 0 18.5 1t18.5 1h24q242 0 242 -94q0 -25 -41 -100q-49 -98 -59 -308t49 -321zM801 1253q-4 -12 -35 -12q-49 0 -78 10.5 t-65 51.5l-17 18l-16 -18q-37 -41 -65.5 -51.5t-80.5 -10.5q-31 0 -34 12q-4 6 8 19q123 123 123 131q31 29 65.5 29t63.5 -29l24 -27q25 -27 55.5 -58.5t45.5 -45.5q8 -13 6 -19z" glyph-name="Ucircumflex" horiz-adv-x="1212" unicode=""/><glyph d="M1141 295q4 -6 17 -23.5t19.5 -28t11.5 -29.5t3 -38q-8 -43 -64.5 -64.5t-134.5 -21.5q-84 0 -148.5 31t-68.5 86q-80 -117 -280 -117q-104 0 -183.5 34t-120 89t-68.5 125t-32 140.5t-8 136t2 112.5q2 127 -47 197q-39 51 -39 110q0 45 65.5 64.5t145.5 19.5h45 q240 0 240 -94q0 -29 -39 -100.5t-43 -196.5t19.5 -239.5t68.5 -200.5t98 -86q88 0 137 151.5t45 325.5t-49 246q-39 63 -39 100q0 84 193 92h2q6 0 18.5 1t18.5 1h24q242 0 242 -94q0 -25 -41 -100q-49 -98 -59 -308t49 -321zM702.5 1411q32.5 0 56 -22.5t23.5 -55.5 q0 -35 -22.5 -57.5t-57.5 -22.5q-33 0 -55 23.5t-22 56.5t22.5 55.5t55 22.5zM508 1411q33 0 56.5 -22.5t23.5 -55.5q0 -35 -23.5 -57.5t-56.5 -22.5t-55.5 23.5t-22.5 56.5t22.5 55.5t55.5 22.5z" glyph-name="Udieresis" horiz-adv-x="1212" unicode=""/><glyph d="M1004 1118q123 0 165 -39q16 -14 7 -28q-14 -23 -58 -50q-100 -63 -235 -234t-162 -323q-14 -78 43 -149q51 -55 51 -111q0 -94 -240 -94h-18q-240 0 -240 94q0 41 50 111q51 63 40.5 145t-43 157t-89 146.5t-99.5 115.5t-70 65q-68 51 -98 100q-12 29 -3 47.5t48 28.5 t80 14t92 4h19q262 0 317 -94q29 -45 19 -100q-8 -86 102 -279q14 76 49 159t53.5 129t8.5 68q-14 29 -7 50q10 27 75 47t143 20zM735 1403q31 -4 33 -19q0 -8 -10 -16q-14 -10 -52 -36.5t-67 -45.5l-31 -20q-43 -33 -78.5 -38t-72.5 7q-31 4 -33 18q0 8 10 17l150 104 q43 31 77.5 36t73.5 -7z" glyph-name="Yacute" horiz-adv-x="1193" unicode=""/><glyph d="M401 801q139 0 221.5 -47t110 -121t36.5 -150.5t23.5 -151.5t51.5 -110q6 -6 22.5 -17t23.5 -20.5t5 -21.5q-4 -29 -49 -50.5t-105 -21.5q-61 0 -141 40t-104 40q-18 0 -93 -40t-153 -40q-131 0 -204 73t-34 175q14 43 56.5 71.5t84.5 39t109.5 24.5t102.5 27 q63 20 87.5 67t12.5 90t-45 60q-27 12 -42.5 -7.5t-24.5 -67.5t-13 -58q-25 -66 -123 -66q-96 2 -131 59.5t37 133.5q90 90 278 90zM307 301q6 -39 44 -55.5t81 -9.5q25 4 37 38q18 94 2 168q-8 37 -49 -4q-12 -12 -49 -37.5t-53.5 -48t-12.5 -51.5zM602 913q10 -8 10 -16 q-2 -14 -32 -18q-39 -12 -74 -7t-78 37l-31 21q-29 18 -66.5 44.5t-51.5 37.5q-10 8 -11 16q2 14 33 19q37 12 73 7t79 -36z" glyph-name="agrave" horiz-adv-x="880" unicode=""/><glyph d="M401 801q139 0 221.5 -47t110 -121t36.5 -150.5t23.5 -151.5t51.5 -110q6 -6 22.5 -17t23.5 -20.5t5 -21.5q-4 -29 -49 -50.5t-105 -21.5q-61 0 -141 40t-104 40q-18 0 -93 -40t-153 -40q-131 0 -204 73t-34 175q14 43 56.5 71.5t84.5 39t109.5 24.5t102.5 27 q63 20 87.5 67t12.5 90t-45 60q-27 12 -42.5 -7.5t-24.5 -67.5t-13 -58q-25 -66 -123 -66q-96 2 -131 59.5t37 133.5q90 90 278 90zM307 301q6 -39 44 -55.5t81 -9.5q25 4 37 38q18 94 2 168q-8 37 -49 -4q-12 -12 -49 -37.5t-53.5 -48t-12.5 -51.5zM580 1047q31 -4 32 -19 q0 -8 -10 -16q-14 -10 -52 -37t-67 -45l-30 -21q-43 -33 -79 -38t-73 8q-31 4 -33 18q0 8 11 16l149 105q43 31 78 36t74 -7z" glyph-name="aacute" horiz-adv-x="880" unicode=""/><glyph d="M401 801q139 0 221.5 -47t110 -121t36.5 -150.5t23.5 -151.5t51.5 -110q6 -6 22.5 -17t23.5 -20.5t5 -21.5q-4 -29 -49 -50.5t-105 -21.5q-61 0 -141 40t-104 40q-18 0 -93 -40t-153 -40q-131 0 -204 73t-34 175q14 43 56.5 71.5t84.5 39t109.5 24.5t102.5 27 q63 20 87.5 67t12.5 90t-45 60q-27 12 -42.5 -7.5t-24.5 -67.5t-13 -58q-25 -66 -123 -66q-96 2 -131 59.5t37 133.5q90 90 278 90zM307 301q6 -39 44 -55.5t81 -9.5q25 4 37 38q18 94 2 168q-8 37 -49 -4q-12 -12 -49 -37.5t-53.5 -48t-12.5 -51.5zM635 883q-4 -12 -35 -13 q-49 0 -77.5 10.5t-65.5 51.5l-17 18l-16 -18q-37 -41 -65.5 -51.5t-79.5 -10.5q-31 0 -35 13q-4 6 8 18q123 123 123 131q31 29 65.5 29t63.5 -29l24 -26q25 -27 55.5 -59t45.5 -46q10 -12 6 -18z" glyph-name="acircumflex" horiz-adv-x="880" unicode=""/><glyph d="M401 801q139 0 221.5 -47t110 -121t36.5 -150.5t23.5 -151.5t51.5 -110q6 -6 22.5 -17t23.5 -20.5t5 -21.5q-4 -29 -49 -50.5t-105 -21.5q-61 0 -141 40t-104 40q-18 0 -93 -40t-153 -40q-131 0 -204 73t-34 175q14 43 56.5 71.5t84.5 39t109.5 24.5t102.5 27 q63 20 87.5 67t12.5 90t-45 60q-27 12 -42.5 -7.5t-24.5 -67.5t-13 -58q-25 -66 -123 -66q-96 2 -131 59.5t37 133.5q90 90 278 90zM307 301q6 -39 44 -55.5t81 -9.5q25 4 37 38q18 94 2 168q-8 37 -49 -4q-12 -12 -49 -37.5t-53.5 -48t-12.5 -51.5zM610 979q25 4 27 0 q4 -6 -6 -25q-33 -68 -85 -80t-98.5 9.5t-102.5 39t-89 1.5q-6 -2 -11 -2t-7 6t6 20q45 80 110.5 84t143 -27.5t112.5 -25.5z" glyph-name="atilde" horiz-adv-x="880" unicode=""/><glyph d="M401 801q139 0 221.5 -47t110 -121t36.5 -150.5t23.5 -151.5t51.5 -110q6 -6 22.5 -17t23.5 -20.5t5 -21.5q-4 -29 -49 -50.5t-105 -21.5q-61 0 -141 40t-104 40q-18 0 -93 -40t-153 -40q-131 0 -204 73t-34 175q14 43 56.5 71.5t84.5 39t109.5 24.5t102.5 27 q63 20 87.5 67t12.5 90t-45 60q-27 12 -42.5 -7.5t-24.5 -67.5t-13 -58q-25 -66 -123 -66q-96 2 -131 59.5t37 133.5q90 90 278 90zM307 301q6 -39 44 -55.5t81 -9.5q25 4 37 38q18 94 2 168q-8 37 -49 -4q-12 -12 -49 -37.5t-53.5 -48t-12.5 -51.5zM342 1028 q33 0 56.5 -22.5t23.5 -55t-22.5 -56.5t-57.5 -24q-33 0 -55.5 24t-22.5 56.5t22.5 55t55.5 22.5zM536.5 1028q32.5 0 56 -22.5t23.5 -55t-23.5 -56.5t-56 -24t-55 24t-22.5 56.5t22.5 55t55 22.5z" glyph-name="adieresis" horiz-adv-x="880" unicode=""/><glyph d="M401 801q139 0 221.5 -47t110 -121t36.5 -150.5t23.5 -151.5t51.5 -110q6 -6 22.5 -17t23.5 -20.5t5 -21.5q-4 -29 -49 -50.5t-105 -21.5q-61 0 -141 40t-104 40q-18 0 -93 -40t-153 -40q-131 0 -204 73t-34 175q14 43 56.5 71.5t84.5 39t109.5 24.5t102.5 27 q63 20 87.5 67t12.5 90t-45 60q-27 12 -42.5 -7.5t-24.5 -67.5t-13 -58q-25 -66 -123 -66q-96 2 -131 59.5t37 133.5q90 90 278 90zM307 301q6 -39 44 -55.5t81 -9.5q25 4 37 38q18 94 2 168q-8 37 -49 -4q-12 -12 -49 -37.5t-53.5 -48t-12.5 -51.5zM440 1075q47 0 81 -34.5 t34 -82t-34 -81t-81 -33.5t-80.5 33.5t-33.5 81t33.5 82t80.5 34.5zM440.5 909q20.5 0 34.5 14.5t14 35t-14 35t-34.5 14.5t-35 -14.5t-14.5 -35t14.5 -35t35 -14.5z" glyph-name="aring" horiz-adv-x="880" unicode=""/><glyph d="M1251 412q23 25 42.5 15.5t15.5 -38.5l-4 -20q-29 -121 -133.5 -200t-239.5 -79q-59 0 -105 14q-35 -14 -86 -14q-61 0 -141 40t-104 40q-18 0 -93 -40t-153 -40q-131 0 -204 73t-34 175q14 43 56.5 71.5t84.5 39t109.5 24.5t102.5 27q63 20 87.5 67t12.5 90t-45 60 q-27 12 -42.5 -7.5t-24.5 -67.5t-13 -58q-25 -66 -123 -66q-96 2 -131 59.5t37 133.5q90 90 278 90q186 0 277 -90q111 90 254 90q104 0 188 -39t121 -111q45 -90 -52 -187t-216 -97q-63 0 -99 16q47 -102 163 -92t214 121zM307 301q6 -39 44 -55.5t81 -9.5q25 4 37 38 q18 94 2 168q-8 37 -49 -4q-12 -12 -49 -37.5t-53.5 -48t-12.5 -51.5zM932 721q-37 0 -57.5 -74t-20.5 -151q0 -33 6 -60q2 4 12 8q57 35 81 103.5t15 121t-36 52.5z" glyph-name="ae" horiz-adv-x="1372" unicode=""/><glyph d="M436 43q70 -14 80 -84t-36 -133.5t-118 -63.5q-92 0 -92 68q0 51 41 78q29 18 51 -6q23 -25 51.5 -7.5t20.5 56.5q-6 27 -57 37q-47 6 -29 53l14 49q-152 6 -257 108.5t-105 245.5q0 147 111.5 252t269.5 105q111 0 203 -49.5t131 -135.5q41 -90 -45 -124q-78 -31 -156 8 q-45 23 -55 61q-6 20 -12.5 50t-10.5 48.5t-10 36t-17.5 23.5t-27.5 2q-35 -10 -56.5 -81t-21.5 -144q0 -121 65.5 -173.5t159 -25.5t172.5 115q23 25 42.5 15.5t15.5 -38.5l-4 -20q-27 -111 -116 -187t-210 -90l-6 -20q-6 -23 14 -29z" glyph-name="ccedilla" horiz-adv-x="772" unicode=""/><glyph d="M700 412q23 25 42.5 15.5t15.5 -38.5l-4 -20q-29 -121 -133.5 -200t-239.5 -79q-158 0 -269.5 104.5t-111.5 249.5q0 147 111.5 252t269.5 105q104 0 188 -39t121 -111q45 -90 -52 -187t-216 -97q-63 0 -98 16q47 -102 162.5 -92t213.5 121zM381 721q-37 0 -57.5 -74 t-20.5 -151q0 -33 6 -60q2 4 13 8q57 35 80.5 103.5t14.5 121t-36 52.5zM549 913q10 -8 10 -16q-2 -14 -33 -18q-39 -12 -73.5 -7t-77.5 37l-31 21q-29 18 -66.5 44.5t-52.5 37.5q-10 8 -10 16q2 14 33 19q37 12 72.5 7t78.5 -36z" glyph-name="egrave" horiz-adv-x="776" unicode=""/><glyph d="M700 412q23 25 42.5 15.5t15.5 -38.5l-4 -20q-29 -121 -133.5 -200t-239.5 -79q-158 0 -269.5 104.5t-111.5 249.5q0 147 111.5 252t269.5 105q104 0 188 -39t121 -111q45 -90 -52 -187t-216 -97q-63 0 -98 16q47 -102 162.5 -92t213.5 121zM381 721q-37 0 -57.5 -74 t-20.5 -151q0 -33 6 -60q2 4 13 8q57 35 80.5 103.5t14.5 121t-36 52.5zM526 1047q31 -4 33 -19q0 -8 -10 -16q-14 -10 -52 -37t-67 -45l-31 -21q-43 -33 -78.5 -38t-72.5 8q-31 4 -33 18q0 8 10 16l150 105q43 31 77.5 36t73.5 -7z" glyph-name="eacute" horiz-adv-x="776" unicode=""/><glyph d="M700 412q23 25 42.5 15.5t15.5 -38.5l-4 -20q-29 -121 -133.5 -200t-239.5 -79q-158 0 -269.5 104.5t-111.5 249.5q0 147 111.5 252t269.5 105q104 0 188 -39t121 -111q45 -90 -52 -187t-216 -97q-63 0 -98 16q47 -102 162.5 -92t213.5 121zM381 721q-37 0 -57.5 -74 t-20.5 -151q0 -33 6 -60q2 4 13 8q57 35 80.5 103.5t14.5 121t-36 52.5zM584 883q-4 -12 -35 -13q-49 0 -78 10.5t-65 51.5l-17 18l-16 -18q-37 -41 -65.5 -51.5t-80.5 -10.5q-31 0 -34 13q-4 6 8 18q123 123 123 131q31 29 65.5 29t63.5 -29l24 -26q25 -27 55.5 -59 t45.5 -46q8 -12 6 -18z" glyph-name="ecircumflex" horiz-adv-x="776" unicode=""/><glyph d="M700 412q23 25 42.5 15.5t15.5 -38.5l-4 -20q-29 -121 -133.5 -200t-239.5 -79q-158 0 -269.5 104.5t-111.5 249.5q0 147 111.5 252t269.5 105q104 0 188 -39t121 -111q45 -90 -52 -187t-216 -97q-63 0 -98 16q47 -102 162.5 -92t213.5 121zM381 721q-37 0 -57.5 -74 t-20.5 -151q0 -33 6 -60q2 4 13 8q57 35 80.5 103.5t14.5 121t-36 52.5zM289 1028q33 0 56.5 -22.5t23.5 -55t-22.5 -56.5t-57.5 -24q-33 0 -55.5 24t-22.5 56.5t22.5 55t55.5 22.5zM483.5 1028q32.5 0 56 -22.5t23.5 -55t-23.5 -56.5t-56 -24t-55 24t-22.5 56.5t22.5 55 t55 22.5z" glyph-name="edieresis" horiz-adv-x="776" unicode=""/><glyph d="M422 735q-12 -55 -22.5 -142t-4.5 -211t49 -169q6 -6 18.5 -15.5t17.5 -17.5t3 -18q-10 -72 -245 -72q-227 0 -238 72q-2 10 2 18t8 12.5t13.5 12.5t13.5 12q33 29 37 143.5t-29 155.5q-6 6 -20.5 21.5t-20.5 26.5t-4 26q2 18 13.5 33.5t38 33t38.5 25.5t52 27.5t44 21.5 q186 90 226 62q20 -17 10 -58zM408 913q10 -8 10 -16q-2 -14 -33 -18q-39 -12 -74 -7t-78 37l-28 21q-31 18 -69 44.5t-52 37.5q-10 8 -10 16q2 14 32 19q37 12 73 7t79 -36z" glyph-name="igrave" unicode=""/><glyph d="M422 735q-12 -55 -22.5 -142t-4.5 -211t49 -169q6 -6 18.5 -15.5t17.5 -17.5t3 -18q-10 -72 -245 -72q-227 0 -238 72q-2 10 2 18t8 12.5t13.5 12.5t13.5 12q33 29 37 143.5t-29 155.5q-6 6 -20.5 21.5t-20.5 26.5t-4 26q2 18 13.5 33.5t38 33t38.5 25.5t52 27.5t44 21.5 q186 90 226 62q20 -17 10 -58zM385 1026q31 -4 33 -18q0 -8 -10 -17q-14 -10 -52.5 -36.5t-68.5 -45.5l-29 -20q-43 -33 -79 -38t-73 7q-31 4 -32 19q0 8 10 16l149 104q43 31 78 36t74 -7z" glyph-name="iacute" unicode=""/><glyph d="M422 735q-12 -55 -22.5 -142t-4.5 -211t49 -169q6 -6 18.5 -15.5t17.5 -17.5t3 -18q-10 -72 -245 -72q-227 0 -238 72q-2 10 2 18t8 12.5t13.5 12.5t13.5 12q33 29 37 143.5t-29 155.5q-6 6 -20.5 21.5t-20.5 26.5t-4 26q2 18 13.5 33.5t38 33t38.5 25.5t52 27.5t44 21.5 q186 90 226 62q20 -17 10 -58zM416 883q-4 -12 -35 -13q-49 0 -78 10.5t-65 51.5l-17 18l-16 -18q-37 -41 -65.5 -51.5t-80.5 -10.5q-31 0 -34 13q-4 6 8 18q123 123 123 131q31 29 65.5 29t63.5 -29l24 -26q25 -27 55.5 -59t45.5 -46q8 -12 6 -18z" glyph-name="icircumflex" unicode=""/><glyph d="M422 735q-12 -55 -22.5 -142t-4.5 -211t49 -169q6 -6 18.5 -15.5t17.5 -17.5t3 -18q-10 -72 -245 -72q-227 0 -238 72q-2 10 2 18t8 12.5t13.5 12.5t13.5 12q33 29 37 143.5t-29 155.5q-6 6 -20.5 21.5t-20.5 26.5t-4 26q2 18 13.5 33.5t38 33t38.5 25.5t52 27.5t44 21.5 q186 90 226 62q20 -17 10 -58zM147.5 1028q32.5 0 56 -22.5t23.5 -55t-23.5 -56.5t-56 -24t-55 24t-22.5 56.5t22.5 55t55 22.5zM342 1028q33 0 56.5 -22.5t23.5 -55t-22.5 -56.5t-57.5 -24q-33 0 -55.5 24t-22.5 56.5t22.5 55t55.5 22.5z" glyph-name="idieresis" unicode=""/><glyph d="M596 801q104 0 172 -79t91.5 -176t51 -199.5t56.5 -133.5q4 -4 13 -11t14 -12.5t9.5 -12.5t2.5 -15q-10 -72 -207 -72q-82 0 -151.5 45t-69.5 156v282q0 117 -50 113q-45 -4 -92 -94q-43 -86 -43 -164q0 -162 51 -215q6 -6 18.5 -15.5t17.5 -17.5t3 -18q-10 -72 -245 -72 q-227 0 -238 72q-2 10 2 18t8 12.5t13.5 12.5t13.5 12q33 29 37 143.5t-29 155.5q-6 6 -20.5 21.5t-20.5 26.5t-4 26q2 18 13.5 33.5t38 33t38.5 25.5t52 27.5t44 21.5q186 90 226 62q20 -16 10 -58l-10 -61q35 61 87 94t97 33zM682 979q25 4 27 0q4 -6 -7 -25 q-33 -68 -85 -80t-98 9.5t-102.5 39t-88.5 1.5q-6 -2 -11.5 -2t-7.5 6t6 20q45 80 111 84t143.5 -27.5t112.5 -25.5z" glyph-name="ntilde" horiz-adv-x="1024" unicode=""/><glyph d="M381 801q158 0 270.5 -104.5t112.5 -252t-112.5 -251t-270.5 -103.5t-269.5 103.5t-111.5 251t111.5 252t269.5 104.5zM381 164q35 0 60.5 82t25.5 194.5t-25.5 193.5t-60.5 81t-59.5 -80t-24.5 -194.5t24.5 -195.5t59.5 -81zM553 913q10 -8 10 -16q-2 -14 -33 -18 q-39 -12 -73.5 -7t-77.5 37l-31 21q-29 18 -66.5 44.5t-52.5 37.5q-10 8 -10 16q2 14 33 19q37 12 72.5 7t78.5 -36z" glyph-name="ograve" horiz-adv-x="782" unicode=""/><glyph d="M381 801q158 0 270.5 -104.5t112.5 -252t-112.5 -251t-270.5 -103.5t-269.5 103.5t-111.5 251t111.5 252t269.5 104.5zM381 164q35 0 60.5 82t25.5 194.5t-25.5 193.5t-60.5 81t-59.5 -80t-24.5 -194.5t24.5 -195.5t59.5 -81zM530 1047q31 -4 33 -19q0 -8 -10 -16 q-14 -10 -52 -37t-67 -45l-31 -21q-43 -33 -78.5 -38t-72.5 8q-31 4 -33 18q0 8 10 16l150 105q43 31 77.5 36t73.5 -7z" glyph-name="oacute" horiz-adv-x="782" unicode=""/><glyph d="M381 801q158 0 270.5 -104.5t112.5 -252t-112.5 -251t-270.5 -103.5t-269.5 103.5t-111.5 251t111.5 252t269.5 104.5zM381 164q35 0 60.5 82t25.5 194.5t-25.5 193.5t-60.5 81t-59.5 -80t-24.5 -194.5t24.5 -195.5t59.5 -81zM586 883q-4 -12 -35 -13q-49 0 -78 10.5 t-65 51.5l-17 18l-16 -18q-37 -41 -65.5 -51.5t-80.5 -10.5q-31 0 -34 13q-4 6 8 18q123 123 123 131q31 29 65.5 29t63.5 -29l24 -26q25 -27 55.5 -59t45.5 -46q10 -12 6 -18z" glyph-name="ocircumflex" horiz-adv-x="782" unicode=""/><glyph d="M381 801q158 0 270.5 -104.5t112.5 -252t-112.5 -251t-270.5 -103.5t-269.5 103.5t-111.5 251t111.5 252t269.5 104.5zM381 164q35 0 60.5 82t25.5 194.5t-25.5 193.5t-60.5 81t-59.5 -80t-24.5 -194.5t24.5 -195.5t59.5 -81zM561 979q25 4 27 0q4 -6 -6 -25 q-33 -68 -85.5 -80t-98.5 9.5t-102 39t-89 1.5q-6 -2 -11.5 -2t-7.5 6t7 20q45 80 110.5 84t143 -27.5t112.5 -25.5z" glyph-name="otilde" horiz-adv-x="782" unicode=""/><glyph d="M381 801q158 0 270.5 -104.5t112.5 -252t-112.5 -251t-270.5 -103.5t-269.5 103.5t-111.5 251t111.5 252t269.5 104.5zM381 164q35 0 60.5 82t25.5 194.5t-25.5 193.5t-60.5 81t-59.5 -80t-24.5 -194.5t24.5 -195.5t59.5 -81zM293 1028q33 0 56.5 -22.5t23.5 -55 t-22.5 -56.5t-57.5 -24q-33 0 -55.5 24t-22.5 56.5t22.5 55t55.5 22.5zM487.5 1028q32.5 0 56 -22.5t23.5 -55t-23.5 -56.5t-56 -24t-55 24t-22.5 56.5t22.5 55t55 22.5z" glyph-name="odieresis" horiz-adv-x="782" unicode=""/><glyph d="M582 666q33 0 56.5 -18.5t23.5 -43.5q0 -27 -23 -44t-57 -17h-502q-33 0 -56.5 17.5t-23.5 43.5q0 25 23.5 43.5t56.5 18.5h502zM332 494q39 0 66.5 -28t27.5 -67t-27.5 -66.5t-66.5 -27.5t-66.5 27.5t-27.5 66.5t26.5 67t67.5 28zM332 713q-39 0 -66.5 27.5t-27.5 66.5 t27.5 66.5t66.5 27.5t66.5 -27.5t27.5 -66.5t-27.5 -66.5t-66.5 -27.5z" glyph-name="divide" horiz-adv-x="710" unicode=""/><glyph d="M614 993q27 0 35 -23.5t-6 -56.5l-68 -161q86 -49 137.5 -131t51.5 -177q0 -147 -112.5 -250.5t-270.5 -103.5q-47 0 -82 8l-23 -53q-39 -80 -94 -80q-27 0 -35 23.5t7 56.5l39 90q-88 47 -140.5 129t-52.5 180q0 147 111.5 252t269.5 105q41 0 88 -10l51 122 q37 80 94 80zM381 164q35 0 60.5 82t25.5 194q0 35 -2 52l-125 -295q18 -33 41 -33zM297 440v-53l125 293q-18 35 -41 35q-35 0 -59.5 -80t-24.5 -195z" glyph-name="oslash" horiz-adv-x="782" unicode=""/><glyph d="M928 213q6 -6 17 -15.5t17.5 -17.5t4.5 -18q-10 -72 -168 -72q-53 0 -119 27.5t-82 27.5q-20 0 -63 -22.5t-80 -28.5q-10 -4 -43 -4h-9q-68 0 -135 20.5t-122.5 70.5t-59.5 122v10q0 150 -41 203q-6 8 -15.5 18.5t-15.5 16.5t-10 15t-4 20v8q4 16 16.5 32.5t36 32 t41 24.5t50 25.5t42.5 22.5q178 86 222 64q25 -12 14 -60q-14 -72 -25.5 -148.5t-6.5 -211.5t54 -191q20 -14 45 -14q35 0 66 51q20 35 20 135v15q-4 88 -47 145q-6 6 -20 21.5t-20.5 26.5t-4.5 26q2 18 13.5 33.5t38 33t39 25.5t52.5 27.5t44 21.5q229 115 237 35 q2 -12 -2 -31q-12 -55 -22.5 -142t-4 -211t49.5 -169zM651 913q10 -8 11 -16q-2 -14 -33 -18q-39 -12 -74 -7t-78 37l-31 21q-29 18 -66.5 44.5t-51.5 37.5q-10 8 -11 16q2 14 33 19q37 12 73 7t79 -36z" glyph-name="ugrave" horiz-adv-x="978" unicode=""/><glyph d="M928 213q6 -6 17 -15.5t17.5 -17.5t4.5 -18q-10 -72 -168 -72q-53 0 -119 27.5t-82 27.5q-20 0 -63 -22.5t-80 -28.5q-10 -4 -43 -4h-9q-68 0 -135 20.5t-122.5 70.5t-59.5 122v10q0 150 -41 203q-6 8 -15.5 18.5t-15.5 16.5t-10 15t-4 20v8q4 16 16.5 32.5t36 32 t41 24.5t50 25.5t42.5 22.5q178 86 222 64q25 -12 14 -60q-14 -72 -25.5 -148.5t-6.5 -211.5t54 -191q20 -14 45 -14q35 0 66 51q20 35 20 135v15q-4 88 -47 145q-6 6 -20 21.5t-20.5 26.5t-4.5 26q2 18 13.5 33.5t38 33t39 25.5t52.5 27.5t44 21.5q229 115 237 35 q2 -12 -2 -31q-12 -55 -22.5 -142t-4 -211t49.5 -169zM629 1047q31 -4 33 -19q0 -8 -11 -16q-14 -10 -52 -37t-67 -45l-30 -21q-43 -33 -79 -38t-73 8q-31 4 -33 18q0 8 11 16l149 105q43 31 78 36t74 -7z" glyph-name="uacute" horiz-adv-x="978" unicode=""/><glyph d="M928 213q6 -6 17 -15.5t17.5 -17.5t4.5 -18q-10 -72 -168 -72q-53 0 -119 27.5t-82 27.5q-20 0 -63 -22.5t-80 -28.5q-10 -4 -43 -4h-9q-68 0 -135 20.5t-122.5 70.5t-59.5 122v10q0 150 -41 203q-6 8 -15.5 18.5t-15.5 16.5t-10 15t-4 20v8q4 16 16.5 32.5t36 32 t41 24.5t50 25.5t42.5 22.5q178 86 222 64q25 -12 14 -60q-14 -72 -25.5 -148.5t-6.5 -211.5t54 -191q20 -14 45 -14q35 0 66 51q20 35 20 135v15q-4 88 -47 145q-6 6 -20 21.5t-20.5 26.5t-4.5 26q2 18 13.5 33.5t38 33t39 25.5t52.5 27.5t44 21.5q229 115 237 35 q2 -12 -2 -31q-12 -55 -22.5 -142t-4 -211t49.5 -169zM684 883q-4 -12 -35 -13q-49 0 -77.5 10.5t-65.5 51.5l-17 18l-16 -18q-37 -41 -65.5 -51.5t-79.5 -10.5q-31 0 -35 13q-4 6 8 18q123 123 123 131q31 29 65.5 29t63.5 -29l25 -26q25 -27 55.5 -59t44.5 -46 q10 -12 6 -18z" glyph-name="ucircumflex" horiz-adv-x="978" unicode=""/><glyph d="M928 213q6 -6 17 -15.5t17.5 -17.5t4.5 -18q-10 -72 -168 -72q-53 0 -119 27.5t-82 27.5q-20 0 -63 -22.5t-80 -28.5q-10 -4 -43 -4h-9q-68 0 -135 20.5t-122.5 70.5t-59.5 122v10q0 150 -41 203q-6 8 -15.5 18.5t-15.5 16.5t-10 15t-4 20v8q4 16 16.5 32.5t36 32 t41 24.5t50 25.5t42.5 22.5q178 86 222 64q25 -12 14 -60q-14 -72 -25.5 -148.5t-6.5 -211.5t54 -191q20 -14 45 -14q35 0 66 51q20 35 20 135v15q-4 88 -47 145q-6 6 -20 21.5t-20.5 26.5t-4.5 26q2 18 13.5 33.5t38 33t39 25.5t52.5 27.5t44 21.5q229 115 237 35 q2 -12 -2 -31q-12 -55 -22.5 -142t-4 -211t49.5 -169zM585.5 1028q32.5 0 56.5 -22.5t24 -55t-24 -56.5t-56.5 -24t-55 24t-22.5 56.5t22.5 55t55 22.5zM391 1028q33 0 56.5 -22.5t23.5 -55t-22.5 -56.5t-57.5 -24q-33 0 -55.5 24t-22.5 56.5t22.5 55t55.5 22.5z" glyph-name="udieresis" horiz-adv-x="978" unicode=""/><glyph d="M952 801q61 0 109.5 -20.5t32.5 -47.5q-16 -25 -82 -52.5t-78 -51.5l-410 -764q-119 -190 -309 -191q-109 0 -193.5 54.5t-91.5 132.5q-6 80 72 140t164 55t102 -83q12 -68 48 -114.5t81 -10.5q31 25 51.5 62t20.5 82t-37 78q-61 57 -104 167.5t-87 219t-114 164.5 q-14 12 -46 31.5t-52.5 37t-28.5 40t19.5 36.5t75.5 21.5t90 10.5t83 3q295 0 324 -72q8 -18 -1 -28.5t-22.5 -16.5t-22.5 -26.5t-1 -57.5q0 -4 12 -43t35.5 -101.5t46.5 -109.5q18 -33 37 0l153 285q14 25 -24.5 59.5t-28.5 50.5q33 60 176 60zM784 1047q31 -4 33 -19 q0 -8 -10 -16q-14 -10 -52 -37t-67 -45l-31 -21q-43 -33 -78.5 -38t-72.5 8q-31 4 -33 18q0 8 10 16l150 105q43 31 77.5 36t73.5 -7z" glyph-name="yacute" horiz-adv-x="1114" unicode=""/><glyph d="M952 801q61 0 109.5 -20.5t32.5 -47.5q-16 -25 -82 -52.5t-78 -51.5l-410 -764q-119 -190 -309 -191q-109 0 -193.5 54.5t-91.5 132.5q-6 80 72 140t164 55t102 -83q12 -68 48 -114.5t81 -10.5q31 25 51.5 62t20.5 82t-37 78q-61 57 -104 167.5t-87 219t-114 164.5 q-14 12 -46 31.5t-52.5 37t-28.5 40t19.5 36.5t75.5 21.5t90 10.5t83 3q295 0 324 -72q8 -18 -1 -28.5t-22.5 -16.5t-22.5 -26.5t-1 -57.5q0 -4 12 -43t35.5 -101.5t46.5 -109.5q18 -33 37 0l153 285q14 25 -24.5 59.5t-28.5 50.5q33 60 176 60zM594 1028q33 0 56.5 -22.5 t23.5 -55t-23.5 -56.5t-56.5 -24t-55.5 24t-22.5 56.5t22.5 55t55.5 22.5zM788.5 1028q32.5 0 56 -22.5t23.5 -55t-22.5 -56.5t-57.5 -24q-33 0 -55 24t-22 56.5t22.5 55t55 22.5z" glyph-name="ydieresis" horiz-adv-x="1114" unicode=""/><glyph d="M752 326q20 53 85.5 65t122 -16.5t56.5 -77.5q0 -78 -82 -142.5t-172 -64.5h-522q-240 0 -240 94q0 47 49 111q23 29 37 117l-4 -2q-27 -18 -56.5 -16.5t-44 22t-5 48.5t35.5 46l82 57q0 115 -15.5 219.5t-37.5 137.5q-41 55 -41 100q0 94 240 94h18q240 0 240 -94 q0 -45 -41 -100q-20 -31 -37 -131l6 4q29 18 57.5 16t42.5 -22q14 -23 6 -49.5t-36 -47.5l-93 -63q-4 -82 3.5 -157t26 -141.5t57 -106.5t94.5 -40q113 1 168 140z" glyph-name="Lslash" horiz-adv-x="1026" unicode=""/><glyph d="M498 666q33 0 56.5 -18.5t23.5 -43.5q0 -27 -23 -44t-57 -17h-107q4 -281 53 -330q6 -6 18.5 -15.5t17.5 -17.5t3 -18q-10 -72 -245 -72q-227 0 -238 72q-2 10 2 18t8 12.5t13.5 12.5t13.5 12q45 41 45 322v4h-86q-35 0 -57.5 17.5t-22.5 43.5q0 25 23.5 43.5t56.5 18.5 h86q-4 119 -37 165q-6 8 -16.5 19.5t-16.5 17.5t-10 16.5t-2 22.5q2 18 14.5 33.5t36 32t39.5 26t51 26.5t45 22q45 23 75 36t79 28t70.5 1t11.5 -61q-18 -86 -29 -385h105z" glyph-name="lslash" unicode=""/><glyph d="M1278 1020q-68 0 -112 -91t-56 -231h57q47 0 81 16.5t47.5 37t29.5 39t31 20.5q18 2 34.5 -22.5t24.5 -62.5t8 -75q0 -61 -19.5 -112.5t-47.5 -46.5q-18 2 -37 29.5t-54.5 54t-97.5 26.5h-53q0 -37 -6 -72q10 -147 54 -245.5t116 -98.5q127 0 184 140q20 53 86 65 t122 -16.5t56 -77.5q0 -78 -81.5 -142.5t-171.5 -64.5h-523q-152 0 -202 31q-88 -31 -191 -31q-231 0 -394 150.5t-163 363.5t164 363.5t393 150.5q98 0 193 -33q55 33 200 33h523q90 0 171.5 -64.5t81.5 -144.5q0 -37 -34.5 -62.5t-79.5 -32.5t-89 9.5t-61 57.5 q-57 139 -184 139zM639 195q76 14 106.5 146t-4.5 300q-33 168 -111.5 277.5t-154.5 93.5q-76 -14 -106.5 -146.5t4.5 -300.5q33 -168 111.5 -277t154.5 -93z" glyph-name="OE" horiz-adv-x="1767" unicode=""/><glyph d="M1167 412q23 25 42.5 15.5t15.5 -38.5l-4 -20q-29 -121 -133.5 -200t-239.5 -79q-131 0 -234 74q-100 -74 -233 -74q-158 0 -269.5 103.5t-111.5 251t111.5 252t269.5 104.5q131 0 233 -76q104 76 234 76q104 0 188 -39t121 -111q45 -90 -52 -187t-216 -97q-63 0 -98 16 q47 -102 162.5 -92t213.5 121zM381 164q35 0 60.5 82t25.5 194v4v15q-4 109 -28.5 182.5t-57.5 73.5q-35 0 -59.5 -80t-24.5 -194.5t24.5 -195.5t59.5 -81zM848 721q-37 0 -57.5 -74t-20.5 -151q0 -33 6 -60q2 4 12 8q57 35 81 103.5t15 121t-36 52.5z" glyph-name="oe" horiz-adv-x="1255" unicode=""/><glyph d="M412 911q8 -55 67.5 -104t140 -87t161.5 -77t143.5 -95t72.5 -122q20 -133 -132 -234.5t-359 -101.5h-6q-166 0 -306.5 50t-181.5 145q-43 98 64 153q100 49 217 19q121 -31 119 -131q0 -10 -2 -23q-12 -70 31.5 -99.5t98 -12t68.5 62.5q20 63 -29 115.5t-136 92.5 t-178 81t-160.5 102.5t-73.5 138.5q-10 152 133 243t360 91h6q131 0 244 -50t156 -146.5t-49 -141.5q-90 -45 -197 -6q-98 39 -117 129q-25 106 -84 117q-47 8 -65 -45q-10 -29 -6 -64zM666 1401q31 0 34 -12q4 -6 -6 -17l-125 -133q-29 -29 -63.5 -29t-65.5 29 q0 2 -123 133q-12 8 -8 17q4 12 35 12q51 0 80 -10.5t65 -49.5l17 -18l16 18q37 39 66 49.5t78 10.5z" glyph-name="Scaron" horiz-adv-x="1009" unicode=""/><glyph d="M725 666q37 -74 -51 -107t-172 4q-74 33 -66 101q6 49 -18.5 69.5t-54 8t-37.5 -43.5q-12 -55 43 -105t130.5 -84t145.5 -87t80 -111q14 -82 -94.5 -151.5t-255.5 -69.5h-4q-121 0 -224.5 35t-136.5 100q-37 74 51 107t172 -4q74 -33 66 -101q-6 -49 17.5 -69.5t53 -8 t40.5 43.5q14 45 -20 81.5t-94 66.5t-121.5 59.5t-110 73.5t-54.5 97q-12 104 90.5 167t259.5 63h5q119 0 223 -34.5t137 -100.5zM541 1061q31 0 34 -12q4 -6 -6 -17l-125 -133q-29 -29 -63.5 -29t-65.5 29q0 2 -122 133q-12 8 -9 17q4 12 35 12q51 0 80 -10.5t66 -49.5 l16 -18l16 18q37 39 66 49.5t78 10.5z" glyph-name="scaron" horiz-adv-x="759" unicode=""/><glyph d="M1004 1118q123 0 165 -39q16 -14 7 -28q-14 -23 -58 -50q-100 -63 -235 -234t-162 -323q-14 -78 43 -149q51 -55 51 -111q0 -94 -240 -94h-18q-240 0 -240 94q0 41 50 111q51 63 40.5 145t-43 157t-89 146.5t-99.5 115.5t-70 65q-68 51 -98 100q-12 29 -3 47.5t48 28.5 t80 14t92 4h19q262 0 317 -94q29 -45 19 -100q-8 -86 102 -279q14 76 49 159t53.5 129t8.5 68q-14 29 -7 50q10 27 75 47t143 20zM751.5 1356q32.5 0 56 -22.5t23.5 -55.5t-22.5 -56.5t-56.5 -23.5q-33 0 -55.5 23.5t-22.5 56.5t22.5 55.5t55 22.5zM557 1356 q33 0 56.5 -22.5t23.5 -55.5t-23.5 -56.5t-56.5 -23.5t-55.5 23.5t-22.5 56.5t22.5 55.5t55.5 22.5z" glyph-name="Ydieresis" horiz-adv-x="1193" unicode=""/><glyph d="M928 1116q102 -2 159.5 -17.5t40.5 -51.5q-10 -23 -73.5 -53.5t-91.5 -75.5q0 -2 -190.5 -313.5t-192.5 -313.5q-29 -49 -107 -105h211q111 0 168 140q20 53 86 65t122 -16.5t56 -77.5q0 -84 -100.5 -145.5t-255.5 -61.5h-547q-41 0 -77 3t-72.5 10.5t-53 21.5t-6.5 36.5 t72.5 52.5t91.5 77q2 0 191.5 311t191.5 316q31 51 96 102h-215q-113 0 -168 -139q-16 -41 -60 -57.5t-89 -9.5t-80 32.5t-35 62.5q0 84 100.5 146.5t253.5 62.5h574v-2zM733 1419q31 0 35 -12q4 -6 -6 -16l-125 -134q-29 -29 -63.5 -28.5t-65.5 28.5q0 2 -123 134 q-12 8 -8 16q4 12 35 12q51 0 79.5 -10t65.5 -49l16 -19l17 19q37 39 65.5 49t77.5 10z" glyph-name="Zcaron" horiz-adv-x="1146" unicode=""/><glyph d="M633 326q20 53 85.5 65t122 -16.5t56.5 -77.5q0 -78 -82 -142.5t-172 -64.5h-489q-59 0 -91 20.5t-29 46t17 46.5l369 413q100 104 12 105q-106 0 -168 -156q-20 -53 -85.5 -65.5t-122 16.5t-56.5 78q0 78 82 142.5t172 64.5h489q59 0 91 -20.5t29 -46t-17 -48.5 l-371 -412q-96 -104 -10 -104q107 0 168 156zM614 1061q31 0 35 -12q4 -6 -6 -17l-125 -133q-29 -29 -63.5 -29t-65.5 29q0 2 -123 133q-12 8 -8 17q4 12 35 12q51 0 79.5 -10.5t65.5 -49.5l17 -18l16 18q37 39 65.5 49.5t77.5 10.5z" glyph-name="zcaron" horiz-adv-x="909" unicode=""/><glyph d="M391 883q-4 -12 -35 -13q-49 0 -77.5 10.5t-65.5 51.5l-16 18l-17 -18q-37 -41 -65.5 -51.5t-79.5 -10.5q-31 0 -35 13q-4 6 8 18q123 123 123 131q31 29 65.5 29t63.5 -29l25 -26q25 -27 55.5 -59t44.5 -46q8 -12 6 -18z" glyph-name="circumflex" horiz-adv-x="407" unicode=""/><glyph d="M356 1061q31 0 35 -12q4 -6 -6 -17l-125 -133q-29 -29 -63.5 -29t-65.5 29q0 2 -123 133q-12 8 -8 17q4 12 35 12q51 0 79.5 -10.5t65.5 -49.5l17 -18l16 18q37 39 65.5 49.5t77.5 10.5z" glyph-name="caron" horiz-adv-x="407" unicode=""/><glyph d="M115 1102q47 0 80.5 -35t33.5 -82t-33.5 -81t-80.5 -34t-81 34t-34 81t34 82t81 35zM114.5 936q20.5 0 35 14.5t14.5 35t-14.5 34.5t-35 14t-34.5 -14t-14 -34.5t14 -35t34.5 -14.5z" glyph-name="ring" horiz-adv-x="243" unicode=""/><glyph d="M373 979q25 4 26 0q4 -6 -6 -25q-33 -68 -85 -80t-98 9.5t-102.5 39t-89.5 1.5q-6 -2 -11 -2t-7 6t6 20q45 80 110.5 84t143.5 -27.5t113 -25.5z" glyph-name="tilde" horiz-adv-x="411" unicode=""/><glyph d="M582 666q33 0 56.5 -18.5t23.5 -43.5q0 -27 -23 -44t-57 -17h-502q-35 0 -57.5 17.5t-22.5 43.5q0 25 23.5 43.5t56.5 18.5h502z" glyph-name="endash" horiz-adv-x="714" unicode=""/><glyph d="M713 666q33 0 56.5 -18.5t23.5 -43.5q0 -27 -22.5 -44t-57.5 -17h-633q-35 0 -57.5 17.5t-22.5 43.5q0 25 23.5 43.5t56.5 18.5h633z" glyph-name="emdash" horiz-adv-x="831" unicode=""/><glyph d="M94 850q-41 0 -67.5 27.5t-26.5 66.5q0 63 43 118.5t98 55.5q12 0 11 -6q0 -2 -2 -4q-33 -35 -39 -72q33 -6 55 -32.5t22 -59.5q0 -39 -27.5 -66.5t-66.5 -27.5z" glyph-name="quoteleft" horiz-adv-x="215" unicode=""/><glyph d="M94 1118q39 0 66.5 -27.5t27.5 -66.5q0 -63 -43 -118.5t-100 -55.5q-18 0 -8 10q29 29 41 72q-35 6 -56.5 31.5t-21.5 60.5q0 39 27.5 66.5t66.5 27.5z" glyph-name="quoteright" horiz-adv-x="210" unicode=""/><glyph d="M297 850q-39 0 -66.5 27.5t-27.5 66.5q0 63 43 118.5t98 55.5q20 0 10 -10q-29 -29 -41 -72q33 -6 55.5 -31.5t22.5 -60.5q0 -39 -27.5 -66.5t-66.5 -27.5zM94 850q-41 0 -67.5 27.5t-26.5 66.5q0 63 43 118.5t98 55.5q12 0 11 -6q0 -2 -2 -4q-33 -35 -39 -72 q33 -6 55 -32.5t22 -59.5q0 -39 -27.5 -66.5t-66.5 -27.5z" glyph-name="quotedblleft" horiz-adv-x="428" unicode=""/><glyph d="M94 1118q39 0 66.5 -27.5t27.5 -66.5q0 -63 -43 -118.5t-100 -55.5q-18 0 -8 10q29 29 41 72q-35 6 -56.5 31.5t-21.5 60.5q0 39 27.5 66.5t66.5 27.5zM297 1118q39 0 66.5 -27.5t27.5 -66.5q0 -63 -42 -118.5t-99 -55.5q-16 0 -10 10q35 35 41 72q-33 6 -55.5 31.5 t-22.5 60.5q0 39 27.5 66.5t66.5 27.5z" glyph-name="quotedblright" horiz-adv-x="421" unicode=""/><glyph d="M1829 12q33 39 82 46.5t91 -15.5t73.5 -59.5t30.5 -83.5t-38 -93q-113 -129 -475 -129q-82 0 -140 8.5t-143 48.5t-155 109.5t-150.5 203.5t-150.5 323q-6 29 -39 58.5t-82 29.5h-196q-51 0 -77 -23.5t-24 -49.5t4 -44q10 -51 63.5 -103.5t39.5 -80.5q-14 -33 -89 -50.5 t-145 -17.5q-51 0 -97 7t-80 25.5t-26 45.5q6 20 29 38.5t51.5 37t66.5 66.5t69 118l200 494q20 41 4 69.5t-67 28.5q-109 0 -155 -67.5t58 -151.5q57 -41 7 -105q-74 -72 -183 -78q-127 0 -172 105q-45 109 33 221q109 160 371 174h41h215q125 0 202.5 -52t122.5 -173 t102.5 -257t159 -361.5t200 -369t163.5 -143.5q49 0 84 42t66.5 111.5t54.5 96.5zM678 555q59 0 76.5 25.5t-2.5 83.5q-33 92 -95 202q-8 18 -24.5 16.5t-24.5 -22.5q-66 -154 -82 -205q-20 -57 -9 -78.5t65 -21.5h96z" glyph-name="uniE000" horiz-adv-x="1353" unicode=""/><glyph d="M1233 682q106 -37 192 -140.5t86 -238.5q0 -166 -112.5 -292t-289.5 -187.5t-384 -61.5q-391 0 -586.5 163t-118.5 378q37 98 154 141q102 37 143 -6q14 -14 13 -37q-10 -150 25.5 -264t102 -177.5t150.5 -90.5t172 -10q174 31 293 132t119 279q0 188 -102.5 277.5 t-235.5 56.5q14 -375 43 -411q49 -63 49 -113q0 -94 -239 -94h-17q-240 0 -239 94q0 49 49 113q39 47 47 292.5t-21 388.5q-29 166 -82 164q-37 0 -51 -67q-23 -98 43 -160q6 -6 13 -10q35 -35 21.5 -75t-72 -74t-128.5 -34q-127 0 -170 105q-45 106 31 219q109 162 371 174 q20 2 43 2h461q76 0 153.5 -25.5t138 -84t60.5 -136.5q0 -127 -125 -190zM854 705q49 0 97 26.5t81 66.5t51.5 84t14.5 83t-33 59q-20 14 -45 14q-86 0 -126 -79.5t-40 -253.5z" glyph-name="uniE001" horiz-adv-x="1531" unicode=""/><glyph d="M1683 -6q117 -43 179 -178q57 -123 14 -195q-49 -76 -188 -14q-119 53 -223.5 79.5t-203 26.5t-162 -6t-170 -26.5t-159.5 -26.5q-340 -43 -555 186.5t-215 620.5q0 276 171 466.5t386 190.5q162 0 296 -76.5t200 -203.5q57 -111 -49 -199q-92 -74 -207 -64 q-123 8 -144 121q-6 37 0 82q14 102 -24.5 180t-98.5 62q-35 -10 -67.5 -84t-51 -186.5t-24.5 -244.5t17.5 -264t68.5 -239.5t135 -175.5t213 -68q68 0 182.5 52.5t215 107.5t231.5 87t233 -11z" glyph-name="uniE002" horiz-adv-x="1075" unicode=""/><glyph d="M934 1118q244 0 409.5 -169t165.5 -433q0 -164 -63.5 -296t-160.5 -212t-223 -132t-243 -72.5t-227 -20.5q-104 0 -213 26.5t-205 77t-144 139.5t-20 199q29 106 125 166q88 55 129 6q12 -18 17 -45q35 -279 144.5 -388t254.5 -91q160 18 311.5 198.5t151.5 444.5 q0 174 -62.5 308t-158.5 194q-2 0 -11.5 6t-15.5 8t-17.5 5t-19.5 1t-18.5 -8t-18.5 -20.5t-14 -36.5q-37 -137 -17.5 -431t64.5 -349q51 -59 51 -113q0 -94 -241 -94h-17q-240 0 -239 94q0 49 49 113q45 53 45 342.5t-33 447.5q-10 47 -38 54t-48 -15q-23 -20 -34 -58 t2.5 -85.5t56.5 -77.5q55 -41 4 -105q-72 -72 -183 -78q-127 0 -170 105q-45 106 31 219q109 162 371 174q20 2 43 2h430z" glyph-name="uniE003" horiz-adv-x="1542" unicode=""/><glyph d="M1597 -63q31 76 134.5 90t193.5 -22t90 -87q0 -76 -107.5 -140.5t-245.5 -96t-259 -31.5q-125 0 -229.5 45t-175 109.5t-132 130t-127 110.5t-133.5 45q-240 0 -239 94q0 51 51 111q41 51 53 288.5t-18 360.5q-27 111 -115 51q-20 -12 -33.5 -41.5t-1.5 -73.5t59 -79 q57 -41 7 -105q-74 -72 -183 -78q-127 0 -172 105q-45 106 31 219q106 160 367 174q4 0 18 1t25 1h673q92 0 173 -64.5t81 -144.5q0 -37 -34.5 -62.5t-79.5 -32.5t-89 9.5t-61 57.5q-57 139 -184 139q-68 0 -112 -91t-56 -231h57q47 0 81 16.5t47.5 37t29.5 39t31 20.5 q18 2 34.5 -22.5t24.5 -62.5t8 -75q0 -61 -19.5 -112.5t-47.5 -46.5q-18 2 -37 29.5t-54.5 54t-97.5 26.5h-61q0 -139 75.5 -301t178 -283.5t207 -202.5t163.5 -81q127 0 211 203z" glyph-name="uniE004" horiz-adv-x="1167" unicode=""/><glyph d="M1163 1118q90 0 171 -65.5t81 -143.5q0 -37 -34.5 -62.5t-80 -32.5t-89.5 9.5t-60 57.5q-55 139 -168 139q-92 0 -143.5 -123t-61.5 -293h80q59 0 95 26.5t55.5 54.5t38.5 30q27 4 47 -48.5t20 -111.5t-20.5 -111.5t-46.5 -48.5q-18 2 -38 30t-55.5 54.5t-95.5 26.5h-82 q0 -164 37 -211q51 -59 51 -111q0 -94 -239 -94h-19q-240 0 -239 94q0 47 49 111q45 53 46 300t-32 372q-18 74 -78 43q-59 -33 -63 -89.5t73 -119.5q57 -41 7 -105q-74 -72 -183 -78q-127 0 -172 105q-45 109 33 221q109 160 371 174h41h704z" glyph-name="uniE005" horiz-adv-x="1136" unicode=""/><glyph d="M1341 492q0 -37 -38 -101q-27 -39 -39 -215q-12 -182 -207 -313t-449 -162q-86 -10 -198.5 10.5t-218 65.5t-160 132t-17.5 197q33 98 140 146q98 43 141 0q16 -14 18 -37q10 -117 41 -204t71 -132t89 -72.5t95 -25.5t87 10q158 45 211 311q-66 -12 -123 -12 q-231 0 -394 150.5t-163 363.5t163 363.5t394 150.5q141 0 263 -59.5t196 -161.5q80 -111 -10 -192q-74 -68 -182 -60q-121 10 -146 115q-10 37 -4 82q10 76 -37 134t-106 42q-84 -25 -115 -166t-4 -281q25 -137 100.5 -254.5t145.5 -117.5q39 0 42 75.5t-26 116.5 q-41 59 -41 101q0 94 223 94h31q227 0 227 -94z" glyph-name="uniE006" horiz-adv-x="1357" unicode=""/><glyph d="M1731 924q-45 -66 -53.5 -311.5t44.5 -315.5q49 -63 50 -113q0 -94 -240 -94h-16q-242 0 -242 94q0 53 51 113q55 68 43 336q-41 -29 -170 -72q-55 -16 -81.5 -25.5t-56.5 -28t-43 -44t-22 -66.5q-4 -27 -4 -122t-18.5 -173.5t-73.5 -134.5q-135 -139 -379 -172 q-133 -18 -260 14.5t-203.5 123t-50.5 214.5q20 96 135 140q100 37 152 2q20 -16 20 -41q-10 -172 36 -275.5t136 -103.5q80 0 129.5 144.5t59.5 333t5 354t-20 225.5q-25 106 -75 106q-39 -2 -58 -59q-29 -90 43 -160q6 -6 15 -12q35 -35 21.5 -75t-72 -74t-127.5 -34 q-127 0 -170 105q-45 106 30 219q109 162 371 174q20 2 43 2h168q242 0 242 -94q0 -41 -41 -100q-51 -72 -56 -344q55 39 178 73q92 29 133.5 53.5t49.5 71.5q-14 111 -39 146q-41 59 -41 100q0 94 242 94h16q240 0 240 -94q0 -41 -41 -100z" glyph-name="uniE007" horiz-adv-x="1783" unicode=""/><glyph d="M825 924q-45 -66 -54 -312.5t44 -316.5q49 -63 49 -111q0 -94 -239 -94h-17q-240 0 -239 94q0 47 49 111q35 43 43 215t-10 315q-20 182 -91 203q-43 14 -65 -39q-31 -78 37 -158q14 -16 30 -30q33 -37 21 -77t-69.5 -73t-127.5 -33q-127 0 -172 105q-45 109 33 221 q109 160 371 174h41h166q240 0 239 -94q0 -41 -39 -100z" glyph-name="uniE008" horiz-adv-x="880" unicode=""/><glyph d="M1049 924q-33 -51 -48.5 -272.5t-5.5 -334.5q10 -109 -19.5 -197.5t-78.5 -143t-122 -94.5t-131 -58.5t-124 -30.5q-131 -23 -258 11t-204.5 125t-51.5 218q20 96 135 140q100 37 152 2q20 -16 20 -41q-10 -172 36 -275.5t136 -103.5q80 0 129.5 143.5t59.5 331.5t5 354 t-20 228q-25 106 -75 104q-39 0 -58 -57q-27 -90 41 -158q8 -8 17 -14q35 -35 21.5 -76t-72 -74t-127.5 -33q-127 0 -170 105q-45 106 30 219q109 162 371 174q20 2 43 2h168q242 0 242 -94q0 -32 -41 -100z" glyph-name="uniE009" horiz-adv-x="1046" unicode=""/><glyph d="M2038 -63q31 76 134 90t192.5 -22t89.5 -87q0 -76 -106.5 -140.5t-246 -96t-260.5 -31.5q-285 0 -514 158.5t-303 447.5q-4 16 -4 23l-45 231q-20 94 -56 124t-68 5t-55.5 -72t-21.5 -88q6 -139 43 -184q49 -63 49 -111q0 -94 -239 -94h-17q-242 0 -241 94q0 51 51 111 q35 45 43 221t-12 320q-23 174 -84 186q-39 6 -58 -49q-29 -84 35 -156q8 -8 18 -16q33 -37 21 -77t-69.5 -73t-127.5 -33q-127 0 -172 105q-45 109 33 221q109 160 371 174h41h168q240 0 239 -94q0 -41 -39 -100q-27 -37 -43 -166q-6 -43 15 -45q14 -2 63 30l236 197 q29 25 9 69t1 64q47 45 197 45q121 0 161 -39q18 -18 -6 -37q-43 -33 -135 -63.5t-127 -58.5l-92 -78q-61 -55 -74 -68q100 -18 186.5 -100t131.5 -189q14 -35 24 -67q92 -246 232.5 -465t220.5 -219q127 0 211 203z" glyph-name="uniE00A" horiz-adv-x="1495" unicode=""/><glyph d="M1606 -63q31 76 134 90t193 -22t90 -87q0 -76 -107.5 -140.5t-246.5 -96t-260 -31.5q-123 0 -228.5 45t-176 109.5t-132 130t-127 110.5t-131.5 45q-240 0 -239 94q0 29 49 111q29 43 35 170t1 221t-11 156q-20 168 -82 172q-39 2 -58 -53q-27 -84 41 -150q6 -4 12 -10 q35 -35 23 -75t-70.5 -74t-128.5 -34q-127 0 -172 105q-45 109 33 221q109 160 371 174h41h166q240 0 239 -94q0 -41 -39 -100q-20 -29 -37.5 -123t-17.5 -199q0 -178 125 -389t272.5 -345t227.5 -134q127 0 211 203z" glyph-name="uniE00B" horiz-adv-x="950" unicode=""/><glyph d="M1694 924q-45 -66 -53.5 -311.5t42.5 -315.5q51 -61 52 -113q0 -94 -240 -94h-18q-240 0 -240 94q0 49 51 113q61 80 39 383q-6 -20 -19.5 -55t-50 -124t-72.5 -157t-84 -123t-87 -55q-49 0 -76 26.5t-27 65.5q0 59 -20.5 130t-50 127t-60 104.5t-51.5 74.5l-20 27 q106 -725 -246 -856q-78 -33 -166 -25t-161 39t-111.5 102.5t-18.5 165.5t129 152q100 51 154 14q29 -20 24 -65q-8 -106 14.5 -181t59.5 -99.5t78 -4.5q229 119 117 873q-27 170 -90 180q-41 6 -58 -47q-25 -82 45 -154q8 -8 17 -14q35 -35 21.5 -76t-71 -74t-127.5 -33 q-127 0 -172 105q-45 109 33 221q109 160 371 174h41h217q90 0 166 -100t115.5 -236.5t50.5 -279.5q33 59 54.5 123.5t31.5 116t13 103.5t2 85t-3 62.5t-2 31.5q0 94 240 94h18q240 0 240 -94q0 -41 -41 -100z" glyph-name="uniE00C" horiz-adv-x="1728" unicode=""/><glyph d="M1516 205q29 -33 30 -47q2 -18 -24.5 -33.5t-74.5 -25t-108 -9.5q-123 0 -219 45t-150.5 112.5t-97.5 157t-64.5 169t-47 156.5t-47.5 112q53 -442 -19.5 -681t-230.5 -296q-78 -33 -166 -25t-161 38t-111.5 102.5t-18 167t128.5 149.5q100 51 154 14q29 -18 24 -63 q-8 -109 14.5 -182.5t59.5 -98t78 -4.5q86 45 129 186.5t39 317.5t-29 371q-27 170 -92 180q-41 6 -59 -49q-27 -84 43 -154q8 -8 16 -14q33 -37 20.5 -77t-71 -73t-127.5 -33q-127 0 -174 105q-47 109 24 221q104 160 363 172q23 2 45 2l2 -2l2 2h205q113 0 190.5 -62.5 t117.5 -158.5t67.5 -196.5t61.5 -194.5t79 -133q31 156 15.5 363.5t-75.5 264.5q-29 29 -30 50q-4 27 48 47t111 20q37 0 75 -9t62.5 -24.5t22.5 -33.5q-2 -20 -30 -50q-53 -53 -72 -227t4 -346t68 -223z" glyph-name="uniE00D" horiz-adv-x="1560" unicode=""/><glyph d="M659 1108q195 -25 325 -169t130 -335q0 -213 -163 -363.5t-394 -150.5t-394 150.5t-163 363.5q0 168 105.5 301t271.5 185q4 2 8 2q6 2 0 -7q-12 -20 -37 -43q-76 -80 -86 -172t17.5 -152.5t66.5 -96.5q18 -16 25 -62q8 -158 61 -265.5t125 -107.5q78 0 133 123t55 295 q0 145 -39.5 258t-103.5 146q-66 35 -110 -17q-41 -45 -13 -86q23 -29 78 -28q76 0 109 -93q33 -92 -9 -155q-51 -80 -176 2q-98 63 -127.5 154.5t3 166t115.5 122.5t187 34z" glyph-name="uniE00E" horiz-adv-x="1132" unicode=""/><glyph d="M1391 870q0 -139 -137.5 -265t-327.5 -126h-70q6 -137 41 -184q51 -59 51 -111q0 -94 -239 -94h-19q-240 0 -239 94q0 51 51 111q51 70 43 316.5t-53 312.5q-41 55 -41 100q0 94 239 94h19q240 0 239 -94q0 -45 -41 -100q-37 -57 -51 -281q-4 -45 23.5 -58.5t64.5 -2.5 q51 18 102.5 99t51.5 189q0 147 -125 236.5t-277 93.5q-55 0 -93 -3t-96 -25.5t-96 -64.5t-71 -124t-43 -199q-4 -39 -62.5 -44t-127 33t-93.5 112q-31 90 1 161.5t99.5 115.5t161 74t176.5 41t156 11q137 0 270.5 -23.5t251 -70.5t189.5 -131t72 -193z" glyph-name="uniE00F" horiz-adv-x="1306" unicode=""/><glyph d="M1450 41q86 -29 109 -154q23 -121 -33 -190q-70 -86 -199 22q-82 68 -214 124.5t-250 90t-247 95t-208 141.5q-20 16 -41 45q-29 53 -30 117.5t43 134.5t124 108q106 53 151 -32q37 -72 4 -154q-29 -66 -88 -65q-76 0 -86 -58q-8 -51 35 -78q37 -20 82 5q63 35 103 147.5 t40 257.5q0 172 -55 294t-133 122q-72 0 -125 -107.5t-61 -263.5q-6 -45 -25 -63q-27 -25 -49.5 -67t-34.5 -99.5t8.5 -125t77.5 -128.5q47 -49 37 -51l-4 2h-4q-166 53 -271.5 186t-105.5 301q0 213 164 363.5t393 150.5t393 -150.5t164 -363.5q0 -182 -118.5 -323.5 t-301.5 -176.5q133 -43 394.5 -33.5t361.5 -23.5z" glyph-name="uniE010" horiz-adv-x="1142" unicode=""/><glyph d="M1962 -63q31 76 134.5 90t192.5 -22t89 -87q0 -76 -107.5 -140.5t-246 -96t-259.5 -31.5q-279 0 -482.5 146.5t-297.5 430.5q-10 31 -23.5 87.5t-21.5 83t-30.5 49t-59.5 22.5h-70q8 -131 43 -174q49 -63 49 -111q0 -94 -239 -94h-19q-240 0 -239 94q0 51 51 111 q35 43 42 215t-9 315q-14 164 -84 191q-45 18 -70 -35q-37 -72 31 -154q12 -14 26 -26q33 -37 20 -78t-69.5 -73t-126.5 -32q-127 0 -172 105q-45 109 33 221q109 160 371 174h41h438q168 0 288 -97t120 -228q0 -158 -160 -256q119 -29 155 -127q86 -240 228.5 -458 t222.5 -218q127 0 211 203zM856 549q57 0 106.5 80t49.5 164q0 86 -47 165.5t-109 79.5q-51 0 -72.5 -121.5t0 -244.5t72.5 -123z" glyph-name="uniE011" horiz-adv-x="1402" unicode=""/><glyph d="M367 883q16 -51 118.5 -112.5t221 -115t240.5 -135.5t167 -168q47 -90 48 -189.5t-44 -191.5t-125 -166.5t-203.5 -119.5t-271.5 -45q-168 0 -296 74.5t-181 179t-35.5 224.5t115.5 206q141 123 291 34q104 -61 141 -176q39 -119 -41 -168q-18 -10 -43 -16 q-78 -18 -125 -58t-47 -90q0 -74 123 -100q150 -35 293 25q174 74 153 235q0 12 -4 27q-20 88 -94 162.5t-169 130t-190.5 109t-174 121t-105.5 142.5q-37 109 19.5 207.5t173 153.5t253.5 55h7q137 0 270 -51t176 -145q43 -96 -49 -144q-90 -43 -195 -4q-100 35 -118 129 q-20 106 -125 121q-90 14 -148 -43q-42 -43 -26 -98z" glyph-name="uniE012" horiz-adv-x="1183" unicode=""/><glyph d="M1434 1538q98 -35 153 -106.5t52 -152.5t-48 -158t-155.5 -133t-264.5 -66q-4 0 -23.5 -2t-25.5 -2t-23.5 -3.5t-25.5 -7.5t-22.5 -9t-21.5 -14.5t-16 -20.5t-14.5 -27.5t-7.5 -34.5q-20 -123 -15 -292t42 -214q51 -59 51 -111q0 -94 -242 -94h-16q-240 0 -240 94 q0 47 50 111q41 51 44 295t-26 387q-18 90 -121 123q-68 20 -110 20q-150 0 -189 -69q-31 -57 39 -103q66 -43 191 -43q98 0 100 -86q2 -88 -80 -172q-92 -92 -199 -67q-96 23 -161.5 80t-91 126.5t-14.5 146.5t57 139.5t136.5 103.5t206.5 41q102 0 205 -32t174.5 -69 t161.5 -68.5t168 -31.5q180 0 246 80q47 55 -4 96q-37 31 -117 31q-127 0 -150 94q-23 86 52 166q100 106 258 67q19 -6 37 -12z" glyph-name="uniE013" horiz-adv-x="1075" unicode=""/><glyph d="M1509 295q4 -6 17.5 -23.5t19.5 -28t11.5 -29.5t3.5 -38q-8 -43 -64.5 -64.5t-134.5 -21.5q-84 0 -148.5 31t-68.5 86q-80 -117 -281 -117q-104 0 -183 34t-120 89t-68.5 125t-31.5 140.5t-8 136t2 112.5q6 248 -66 291q-41 23 -72 -29q-39 -68 5 -143q16 -25 40 -45 q35 -37 22 -77t-70.5 -73t-127.5 -33q-129 0 -172 107q-43 106 33 219q111 160 375 172h22q4 2 15 2h166q240 0 239 -94q0 -29 -39 -100.5t-43 -196.5t19.5 -239.5t68.5 -200.5t99 -86q88 0 137 151.5t45 325.5t-49 246q-39 72 -39 100q0 84 192 92h2q6 0 19.5 1t17.5 1h25 q242 0 242 -94q0 -25 -41 -100q-49 -98 -59.5 -308t48.5 -321z" glyph-name="uniE014" horiz-adv-x="1579" unicode=""/><glyph d="M1409 1118q61 0 108.5 -20.5t30.5 -46.5q-12 -23 -51 -50q-100 -63 -192.5 -227t-118.5 -371q-20 -154 -70.5 -233.5t-175.5 -79.5q-63 0 -120.5 23.5t-98.5 59.5t-79 95.5t-61.5 111.5t-49 129t-39 127t-31.5 124q-8 33 -12 49q-43 166 -121 197q-47 18 -62 -25 q-23 -66 66 -154q14 -12 30 -26q33 -37 21 -77t-69.5 -73t-127.5 -33q-127 0 -172 105q-45 109 33 221q109 160 371 174h41h90q240 0 276 -94q18 -47 0 -100q-23 -70 33.5 -270.5t159.5 -301.5q25 129 60.5 241t66.5 168t59.5 111.5t34.5 75t-6 53.5q-18 29 -12 50 q8 27 68.5 47t119.5 20z" glyph-name="uniE015" horiz-adv-x="1257" unicode=""/><glyph d="M1968 1118q139 0 174 -43q10 -12 2 -24q-16 -27 -51 -50q-106 -66 -209.5 -230.5t-128.5 -367.5q-37 -313 -221 -313q-229 0 -354 272q-20 -131 -71.5 -201.5t-168.5 -70.5q-53 0 -100 13.5t-86 42t-69 57t-57.5 80t-45 86t-38 98t-29.5 95.5t-26.5 98.5t-23.5 87.5 q-59 219 -137 249q-39 14 -49 -28q-16 -70 59 -146q12 -12 24 -22q33 -37 21 -77t-69.5 -73t-127.5 -33q-127 0 -172 105q-45 109 33 221q109 160 371 174h41h90q240 0 276 -94q18 -47 0 -100q-23 -70 33.5 -270.5t159.5 -301.5q6 35 20.5 92.5t16.5 71.5q31 131 2 246 q-39 131 -70 162q-68 68 -80 100q-20 53 43.5 73.5t175.5 20.5h17q98 0 164 -16q88 -20 114 -78q14 -35 2 -82q0 -10 -4 -18q-20 -70 35 -270.5t158 -301.5q10 141 61 285.5t82 230.5t6 133q-16 35 -10 50q8 27 73.5 47t143.5 20z" glyph-name="uniE016" horiz-adv-x="1845" unicode=""/><glyph d="M1432 184q37 -55 -13.5 -74.5t-161.5 -19.5h-18q-295 0 -360 94q-10 16 -15.5 37t-7.5 43.5t-4 30.5q-8 51 -102 201q-14 -63 -37 -115.5t-49.5 -95.5t-30.5 -54q-6 -12 1 -34.5t-5 -38.5q-16 -27 -85 -47.5t-128 -20.5q-96 0 -119 37q-8 14 4 31q14 18 64 47 q35 23 88 77t107 132t70.5 151.5t-22.5 136.5q-86 113 -131 160q-121 127 -192 123q-47 -4 -25 -59q20 -57 102 -125q33 -37 21 -77t-69.5 -73t-127.5 -33q-127 0 -172 105q-45 106 33 221q106 160 369 172q18 2 37 2h75q264 0 328 -94q29 -41 29 -100q0 -43 94 -197 q12 59 44 121.5t51.5 99.5t12.5 53q-10 29 3 50q14 27 79.5 47t124.5 20q90 0 123 -35q14 -16 0 -32q-18 -23 -63 -50q-27 -14 -58.5 -38.5t-72.5 -62.5t-72 -82t-51.5 -93t-16.5 -103.5t39 -105.5q92 -139 185 -221q12 -10 40.5 -32.5t51.5 -42.5t33 -36z" glyph-name="uniE017" horiz-adv-x="1413" unicode=""/><glyph d="M1831 1206q139 -47 104 -159q-27 -88 -127 -146q-119 -68 -192 -6q-117 84 -218.5 73.5t-186.5 -96.5t-142 -197.5t-86 -230.5q-8 -31 5 -74.5t38 -74.5q51 -55 51 -111q0 -94 -241 -94h-17q-240 0 -239 94q0 41 49 111q37 51 40 114.5t-16.5 122t-57.5 123t-75 109.5 t-78 90q-106 115 -163 107q-39 -4 -13 -56q23 -49 96 -104q35 -35 23 -75t-70.5 -74t-128.5 -34q-127 0 -172 105q-45 109 33 221q109 160 371 174h41h47q262 0 317 -94q27 -49 19 -100q-10 -80 102 -279q43 195 181.5 346.5t331 213.5t374.5 1z" glyph-name="uniE018" horiz-adv-x="1138" unicode=""/><glyph d="M1182 -63q31 76 133 91t192 -21t90 -87q0 -76 -107.5 -130t-243.5 -74.5t-261 -14.5q-86 4 -170 46t-154.5 98.5t-139 111.5t-148.5 93t-158 38q-41 0 -76 2t-72.5 9t-54 21.5t-6.5 37t72.5 53.5t91.5 78l96 157q94 156 189 312l96 157q35 55 96 105h-215 q-113 0 -168 -141q-20 -51 -85.5 -63.5t-122 15t-56.5 76.5q0 84 100.5 146.5t253.5 62.5l527 2l-2 -2q104 -2 161.5 -17.5t38.5 -51.5q-10 -23 -72.5 -53.5t-91.5 -75.5l-96 -158q-94 -158 -214 -354.5t-156 -260.5q92 -41 193 -127t183 -154.5t146 -78.5q139 -22 211 152z " glyph-name="uniE019" horiz-adv-x="763" unicode=""/><glyph d="M1251 444q104 -37 152.5 -124t32 -188t-68.5 -195.5t-152.5 -157t-217.5 -62.5q-444 0 -495 453h-6q-18 0 -93 -40t-153 -40q-131 0 -204 73t-34 175q14 43 56.5 71.5t84.5 39t109.5 24.5t102.5 27q63 20 87.5 67t12.5 90t-45 60q-27 12 -42.5 -7.5t-24.5 -67.5t-13 -58 q-25 -66 -123 -66q-96 2 -131 59.5t37 133.5q90 90 278 90q98 0 171 -28t112 -64.5t63.5 -100t30.5 -106.5t11.5 -110.5t9.5 -90.5q10 -72 26.5 -140.5t43 -153.5t68.5 -137t89 -52q63 0 108.5 39t58.5 88t-16.5 100t-101.5 72q-125 37 -131 143q-4 94 80 158q96 73 227 26z M469 274q18 94 2 168q-8 37 -49 -4q-12 -12 -49 -37.5t-53.5 -48t-12.5 -51.5q6 -39 44 -55.5t81 -9.5q25 3 37 38z" glyph-name="uniE01A" horiz-adv-x="1462" unicode=""/><glyph d="M1272 444q104 -37 152.5 -124t32 -188t-69 -195.5t-152.5 -157t-217 -62.5q-414 0 -486 396q-61 -23 -225 -23q-117 0 -212 105.5t-95 248.5q0 147 90 252t217 105q102 0 187 -74q-6 72 -33 104q-6 8 -16.5 19.5t-16.5 17.5t-10 16.5t-2 22.5q2 18 15 34.5t37 31t44 26 t53 26.5t45 22q233 123 230 26q0 -10 -2 -22q-6 -37 -25 -324q-4 -53 -4 -188q0 -45 2 -105.5t15.5 -178.5t37 -207t71.5 -159.5t114 -70.5q61 0 107 39t58.5 88t-17.5 100t-101 72q-125 37 -131 143q-4 94 79 158q99 73 228 26zM416 186q51 -25 71 95q10 66 11 172 q0 111 -8.5 156.5t-36.5 70.5q-70 61 -121 -37q-55 -109 -35 -258q21 -152 119 -199z" glyph-name="uniE01B" horiz-adv-x="1476" unicode=""/><glyph d="M1378 444q104 -37 152.5 -124t32 -188t-68.5 -195.5t-152.5 -157t-217.5 -62.5q-272 0 -399 159t-129 413v284q0 121 -57 115q-49 -4 -97 -94q-53 -109 -41 -229q10 -119 43 -152q6 -6 18.5 -15.5t17.5 -17.5t3 -18q-10 -72 -245 -72q-227 0 -238 72q-2 10 2 18t8 12.5 t13.5 12.5t13.5 12q45 41 45 322v46.5v47v42t-2 41t-4 34t-6 33t-10.5 25.5t-14.5 23q-6 8 -16.5 19.5t-16.5 17.5t-10 16.5t-2 22.5q2 18 14.5 33.5t36 32t39.5 26t51 26.5t45 22q45 23 75 36t79 28t70.5 1t11.5 -61q-23 -102 -29 -426q29 84 90.5 130t116.5 46 q53 0 98 -16.5t75 -39t54.5 -67.5t39 -78t27.5 -95.5t18.5 -96t15.5 -103.5q2 -12 7 -62t9 -71.5t11.5 -70t15.5 -74t20.5 -64.5t27.5 -59.5t34.5 -43t45 -32.5t56.5 -10q61 0 107.5 39t58.5 88t-17.5 100t-101.5 72q-125 37 -131 143q-4 94 80 158q98 73 227 26z" glyph-name="uniE01C" horiz-adv-x="1585" unicode=""/><glyph d="M213 801q-63 0 -107.5 44t-44.5 107.5t44.5 107.5t107.5 44t107.5 -44t44.5 -107.5t-44.5 -107.5t-107.5 -44zM856 444q104 -37 152.5 -124t32 -188t-68.5 -195.5t-152.5 -157t-217.5 -62.5q-274 0 -404 160t-130 414q0 195 -23 225q-6 6 -20.5 21.5t-20.5 26.5t-4 26 q2 18 13.5 33.5t38 33t38.5 25.5t52 27.5t44 21.5q152 74 199 70q49 -2 37 -66q-12 -72 -22.5 -162t-12.5 -231t15.5 -251.5t76 -191.5t152.5 -81q63 0 108 39t58.5 88t-16 100t-101.5 72q-125 37 -131 143q-4 94 80 158q96 73 227 26z" glyph-name="uniE01D" horiz-adv-x="1060" unicode=""/><glyph d="M1362 444q104 -37 152.5 -124t32 -188t-69 -195.5t-151.5 -157t-216 -62.5q-125 0 -224.5 54.5t-154.5 135.5t-100 174t-67.5 172t-50.5 129t-56 46q-66 -8 -54 -82q18 -111 41 -133q6 -6 18.5 -15.5t17.5 -17.5t3 -18q-10 -72 -245 -72q-227 0 -238 72q-2 10 2 18 t8 12.5t13.5 12.5t13.5 12q45 41 45 322v46.5v47v42t-2 41t-4 34t-6 33t-10.5 25.5t-14.5 23q-6 8 -16.5 19.5t-16.5 17.5t-10 16.5t-2 22.5q2 18 14.5 33.5t36 32t39.5 26t51 26.5t45 22q45 23 75 36t79 28t70.5 1t11.5 -61q-8 -41 -19.5 -207t-9.5 -312l228 168 q12 12 8 38t2 34q25 29 133 29q127 0 131 -27q2 -4 -4 -10q-16 -16 -73.5 -41t-86.5 -45l-133 -96q111 16 185.5 -56.5t111.5 -188.5t65.5 -233.5t71.5 -201.5t107 -84q61 0 107 39t58.5 88t-16 100t-100.5 72q-125 37 -131 143q-6 96 80 160q96 71 225 24z" glyph-name="uniE01E" horiz-adv-x="1566" unicode=""/><glyph d="M860 444q104 -37 152.5 -124t32 -188t-68.5 -195.5t-152.5 -157t-217.5 -62.5q-199 0 -321.5 87t-156.5 212t-49.5 263.5t3.5 238.5v21q10 231 -37 292q-6 8 -16.5 19.5t-16.5 17.5t-10 16.5t-2 22.5q2 18 14.5 33.5t36 32t39.5 26t51 26.5t45 22q45 23 75 36t79 28 t70.5 1t11.5 -61q-6 -25 -15.5 -147t-11.5 -308t14.5 -358t74 -296t153.5 -124q61 0 107.5 39t58.5 88t-16.5 100t-100.5 72q-125 37 -131 143q-6 96 80 160q96 71 225 24z" glyph-name="uniE01F" horiz-adv-x="1064" unicode=""/><glyph d="M1769 444q104 -37 152.5 -124t32 -188t-68.5 -195.5t-152.5 -157t-216.5 -62.5q-274 0 -412.5 161t-138.5 413v282q0 96 -33 86q-37 -10 -68 -118q-20 -66 -20 -131v-119q0 -29 14 -49.5t30.5 -28.5t30 -21.5t11.5 -29.5q-10 -72 -209 -72q-78 0 -137.5 44t-59.5 157v282 q0 94 -30 89q-37 -8 -76 -117q-29 -88 -25 -160q10 -131 51 -172q6 -6 18.5 -15.5t17.5 -17.5t3 -18q-10 -72 -245 -72q-227 0 -238 72q-2 10 2 18t8 12.5t13.5 12.5t13.5 12q33 29 37 143.5t-29 155.5q-6 6 -20.5 21.5t-20.5 26.5t-4 26q2 18 13.5 33.5t38 33t38.5 25.5 t52 27.5t44 21.5q186 90 226 62q20 -16 10 -58l-14 -90q63 156 188 156q90 0 150.5 -61.5t82.5 -161.5v4q20 92 74.5 155.5t132.5 63.5q104 0 166 -101.5t86.5 -246t47 -289t72.5 -245.5t138 -101q61 0 107.5 39t58.5 88t-17.5 100t-101.5 72q-125 37 -131 143q-4 94 80 158 q98 73 227 26z" glyph-name="uniE020" horiz-adv-x="1974" unicode=""/><glyph d="M1372 444q104 -37 152.5 -124t32 -188t-68.5 -195.5t-151.5 -157t-216.5 -62.5q-274 0 -408 160t-134 414v282q0 117 -50 113q-45 -4 -92 -94q-43 -86 -43 -164q0 -162 51 -215q6 -6 18.5 -15.5t17.5 -17.5t3 -18q-10 -72 -245 -72q-227 0 -238 72q-2 10 2 18t8 12.5 t13.5 12.5t13.5 12q33 29 37 143.5t-29 155.5q-6 6 -20.5 21.5t-20.5 26.5t-4 26q2 18 13.5 33.5t38 33t38.5 25.5t52 27.5t44 21.5q186 90 226 62q20 -16 10 -58l-10 -61q35 61 87 94t97 33q100 0 167.5 -73t97.5 -182.5t57.5 -236.5t47 -236.5t66.5 -182t117 -72.5 q61 0 107.5 39t58.5 88t-16.5 100t-100.5 72q-125 37 -131 143q-4 94 80 158q96 73 225 26z" glyph-name="uniE021" horiz-adv-x="1579" unicode=""/><glyph d="M903 444q104 -37 152.5 -124t32 -188t-68.5 -195.5t-151.5 -157t-216.5 -62.5q-266 0 -410.5 151.5t-154.5 389.5v324h-47q-14 0 -26.5 12t-12.5 27v28q0 25 39 41q47 18 118.5 100t138 153t116.5 71q14 0 22 -2t20.5 -8.5t16.5 -26t0 -47.5l-2 -12q-2 -12 -5 -36 t-6 -51.5t-7.5 -65.5t-6.5 -75h144q16 0 28.5 -12t12.5 -29v-67h-193q-31 -764 244 -764q61 0 107.5 39t58.5 88t-16.5 100t-100.5 72q-125 37 -131 143q-4 94 80 158q96 73 225 26z" glyph-name="uniE022" horiz-adv-x="1112" unicode=""/><glyph d="M1337 444q104 -37 152.5 -124t32 -188t-68.5 -195.5t-151.5 -157t-216.5 -62.5q-436 0 -501 428q-55 -55 -181 -55q-68 0 -135 20.5t-122.5 70.5t-59.5 122v10q0 150 -41 203q-6 8 -15.5 18.5t-15.5 16.5t-10 15t-4 20v8q4 16 16.5 32.5t36 32t41 24.5t50 25.5t42.5 22.5 q178 86 222 64q25 -12 14 -60q-14 -72 -25.5 -148.5t-6.5 -211.5t54 -191q20 -14 45 -14q35 0 66 51q20 35 20 135v15q-4 88 -47 145q-6 6 -20 21.5t-20.5 26.5t-4.5 26q2 18 13.5 33.5t38 33t39 25.5t52.5 27.5t44 21.5q229 115 237 35q2 -12 -2 -31q-8 -37 -14 -167 t-1 -306t61.5 -310t162.5 -134q61 0 107.5 39t58.5 88t-16.5 100t-100.5 72q-125 37 -131 143q-4 94 80 158q96 73 225 26z" glyph-name="uniE023" horiz-adv-x="1544" unicode=""/><glyph d="M1065 -129q-12 104 96 149q100 43 185 3q100 -45 49 -162q-4 -8 -9 -17q-47 -92 -153.5 -153.5t-245.5 -67.5q-188 -8 -335.5 132.5t-164.5 414.5q-12 -2 -86.5 -41t-150.5 -39q-131 0 -204 73t-34 175q14 43 56.5 71.5t84.5 39t109.5 24.5t102.5 27q63 20 87.5 67 t12.5 90t-45 60q-27 12 -42.5 -7.5t-24.5 -67.5t-13 -58q-25 -66 -123 -66q-96 2 -131 59.5t37 133.5q90 90 278 90q127 0 220.5 -60.5t141.5 -156t77.5 -211t41 -232t21.5 -212t28.5 -156t51.5 -60.5q49 0 68.5 50.5t13.5 107.5zM469 274q18 94 2 168q-8 37 -49 -4 q-12 -12 -49 -37.5t-53.5 -48t-12.5 -51.5q6 -39 44 -55.5t81 -9.5q25 3 37 38z" glyph-name="uniE024" horiz-adv-x="905" unicode=""/><glyph d="M580 -129q-10 104 98 149q98 43 182 5q100 -47 49 -162q-4 -8 -8 -19q-47 -92 -152.5 -153.5t-246.5 -67.5q-201 -8 -351.5 148.5t-150.5 464.5v208q0 147 111.5 252t269.5 105q111 0 203 -49.5t131 -135.5q41 -90 -45 -124q-78 -31 -156 8q-45 23 -55 61q-6 20 -11.5 49 t-9.5 45.5t-11 34t-18.5 24.5t-27.5 7q-49 0 -77 -103.5t-24.5 -252t25 -297t73.5 -252t120 -103.5q49 0 68.5 50.5t13.5 107.5z" glyph-name="uniE025" horiz-adv-x="749" unicode=""/><glyph d="M1087 -129q-10 102 97 149q98 43 184 5q100 -45 53 -158q-4 -12 -10 -23q-47 -92 -153.5 -153.5t-245.5 -67.5q-180 -6 -327.5 123t-178.5 377q-53 -33 -199 -33q-117 0 -212 105.5t-95 248.5q0 147 90 252t217 105q102 0 187 -74q-6 72 -33 104q-6 8 -16.5 19.5 t-16.5 17.5t-10 16.5t-2 22.5q2 18 15 34.5t37 31t44 26t53 26.5t45 22q233 123 230 26q0 -10 -2 -22q-6 -37 -25 -324q-4 -55 -4 -186t8 -334t57.5 -348.5t131.5 -145.5q51 0 70 50.5t11 107.5zM416 186q51 -25 71 95q10 66 11 172q0 111 -8.5 156.5t-36.5 70.5 q-70 61 -121 -37q-55 -109 -35 -258q21 -152 119 -199z" glyph-name="uniE026" horiz-adv-x="872" unicode=""/><glyph d="M580 -129q-10 104 98 149q98 43 182 5q100 -47 49 -162q-4 -8 -8 -19q-47 -92 -152.5 -153.5t-246.5 -67.5q-201 -8 -351.5 148.5t-150.5 464.5v208q0 147 111.5 252t269.5 105q104 0 188 -39t121 -111q45 -90 -70.5 -200.5t-246.5 -110.5q-66 0 -101 18 q-2 -113 10.5 -223t39 -206.5t72.5 -156t104 -59.5q49 0 68.5 50.5t13.5 107.5zM381 721q-43 0 -70.5 -84t-36.5 -217q57 35 94.5 111.5t35 128t-22.5 61.5z" glyph-name="uniE027" horiz-adv-x="747" unicode=""/><glyph d="M1184 -129q-10 102 96 149q98 43 184 5q100 -45 54 -158q-4 -12 -11 -23q-47 -92 -153.5 -153.5t-245.5 -67.5q-94 -4 -183 31t-164 106.5t-120 194.5t-45 281v337q0 121 -57 115q-49 -4 -97 -94q-53 -109 -41 -229q10 -119 43 -152q6 -6 18.5 -15.5t17.5 -17.5t3 -18 q-10 -72 -245 -72q-227 0 -238 72q-2 10 2 18t8 12.5t13.5 12.5t13.5 12q45 41 45 322v46.5v47v42t-2 41t-4 34t-6 33t-10.5 25.5t-14.5 23q-6 8 -16.5 19.5t-16.5 17.5t-10 16.5t-2 22.5q2 18 14.5 33.5t36 32t39.5 26t51 26.5t45 22q45 23 75 36t79 28t70.5 1t11.5 -61 q-23 -102 -29 -426q29 84 90.5 130t116.5 46q102 0 174 -81t105.5 -202t61.5 -261t43 -261t45 -202t73 -81q51 0 70.5 50.5t11.5 107.5z" glyph-name="uniE028" horiz-adv-x="985" unicode=""/><glyph d="M213 801q-63 0 -107.5 44t-44.5 107.5t44.5 107.5t107.5 44t107.5 -44t44.5 -107.5t-44.5 -107.5t-107.5 -44zM676 -129q-12 104 96 149q100 43 184 3q100 -45 50 -162q-4 -8 -9 -17q-47 -92 -153.5 -153.5t-245.5 -67.5q-203 -8 -361.5 149.5t-158.5 463.5v24 q0 25 1 47.5t-1 56t-5 61.5t-10.5 53.5t-17.5 37.5q-6 6 -20.5 21.5t-20.5 26.5t-4 26q2 18 13.5 33.5t38 33t38.5 25.5t52 27.5t44 21.5q186 90 226 62q20 -16 10 -58q-6 -29 -14.5 -237.5t-8.5 -249.5q0 -250 58.5 -392.5t136.5 -142.5q49 0 68.5 50.5t13.5 107.5z" glyph-name="uniE029" horiz-adv-x="462" unicode=""/><glyph d="M1149 -129q-10 102 96 149q98 43 185 5q100 -45 53 -158q-4 -12 -10 -23q-51 -96 -157 -158.5t-245 -62.5q-117 0 -205 59.5t-135 149.5t-86 193.5t-60.5 193.5t-54 149.5t-73.5 59.5q-12 0 -24.5 -5t-24 -24.5t-5.5 -52.5q18 -111 41 -133q6 -6 18.5 -15.5t17.5 -17.5 t3 -18q-10 -72 -245 -72q-227 0 -238 72q-2 10 2 18t8 12.5t13.5 12.5t13.5 12q45 41 45 322v46.5v47v42t-2 41t-4 34t-6 33t-10.5 25.5t-14.5 23q-6 8 -16.5 19.5t-16.5 17.5t-10 16.5t-2 22.5q2 18 14.5 33.5t36 32t39.5 26t51 26.5t45 22q45 23 75 36t79 28t70.5 1 t11.5 -61q-8 -41 -19.5 -207t-9.5 -312l228 168q12 12 8 38t2 34q25 29 133 29q127 0 131 -27q2 -4 -4 -10q-16 -16 -73.5 -41t-86.5 -45l-133 -96q82 12 146.5 -45.5t102.5 -154.5t70.5 -214t52 -218.5t45 -169t52.5 -67.5q49 0 68.5 49.5t13.5 108.5z" glyph-name="uniE02A" horiz-adv-x="980" unicode=""/><glyph d="M676 -129q-12 104 96 149q100 43 184 3q100 -45 50 -162q-4 -8 -9 -17q-47 -92 -153.5 -153.5t-245.5 -67.5q-203 -8 -361.5 149.5t-158.5 463.5v149q4 51 4 154v46.5v47v42t-2 41t-4 34t-6 33t-10.5 25.5t-14.5 23q-6 8 -16.5 19.5t-16.5 17.5t-10 16.5t-2 22.5 q2 18 14.5 33.5t36 32t39.5 26t51 26.5t45 22q45 23 75 36t79 28t70.5 1t11.5 -61q-6 -27 -14.5 -386.5t-8.5 -416.5q0 -250 58.5 -392.5t136.5 -142.5q49 0 68.5 50.5t13.5 107.5z" glyph-name="uniE02B" horiz-adv-x="477" unicode=""/><glyph d="M1573 -129q-12 104 96 149q100 43 184 3q100 -45 50 -162q-4 -8 -9 -17q-47 -92 -153.5 -153.5t-245.5 -67.5q-94 -4 -185 31t-170 105.5t-127 194.5t-48 282v337q0 96 -33 86q-37 -10 -68 -118q-20 -66 -20 -131v-119q0 -29 14 -49.5t30.5 -28.5t30 -21.5t11.5 -29.5 q-10 -72 -209 -72q-78 0 -137.5 44t-59.5 157v282q0 94 -30 89q-37 -8 -76 -117q-29 -88 -25 -160q10 -131 51 -172q6 -6 18.5 -15.5t17.5 -17.5t3 -18q-10 -72 -245 -72q-227 0 -238 72q-2 10 2 18t8 12.5t13.5 12.5t13.5 12q33 29 37 143.5t-29 155.5q-6 6 -20.5 21.5 t-20.5 26.5t-4 26q2 18 13.5 33.5t38 33t38.5 25.5t52 27.5t44 21.5q186 90 226 62q20 -16 10 -58l-14 -90q63 156 188 156q90 0 150.5 -61.5t82.5 -161.5v4q20 92 74.5 155.5t132.5 63.5q88 0 147.5 -111.5t90.5 -271.5t56.5 -320.5t64.5 -272.5t96 -112q49 0 68.5 50.5 t13.5 107.5z" glyph-name="uniE02C" horiz-adv-x="1374" unicode=""/><glyph d="M1176 -129q-10 102 96 149q98 43 184 5q100 -45 53 -158q-4 -12 -10 -23q-47 -92 -153.5 -153.5t-245.5 -67.5q-205 -8 -363.5 149.5t-158.5 463.5v337q0 117 -50 113q-45 -4 -92 -94q-43 -86 -43 -164q0 -162 51 -215q6 -6 18.5 -15.5t17.5 -17.5t3 -18 q-10 -72 -245 -72q-227 0 -238 72q-2 10 2 18t8 12.5t13.5 12.5t13.5 12q33 29 37 143.5t-29 155.5q-6 6 -20.5 21.5t-20.5 26.5t-4 26q2 18 13.5 33.5t38 33t38.5 25.5t52 27.5t44 21.5q186 90 226 62q20 -16 10 -58l-10 -61q35 61 87 94t97 33q96 0 171 -111.5t117 -271.5 t74.5 -320.5t65.5 -272.5t70 -112q51 0 70.5 50.5t11.5 107.5z" glyph-name="uniE02D" horiz-adv-x="991" unicode=""/><glyph d="M1153 -129q-10 104 98 149q98 43 183 5q100 -47 49 -162q-4 -8 -8 -19q-47 -92 -152.5 -153.5t-247.5 -67.5q-184 -6 -328.5 127t-168.5 393q-8 -2 -48.5 -22.5t-74.5 -26.5q-10 -4 -43 -4h-9q-68 0 -135 20.5t-122.5 70.5t-59.5 122v10q0 150 -41 203q-6 8 -15.5 18.5 t-15.5 16.5t-10 15t-4 20v8q4 16 16.5 32.5t36 32t41 24.5t50 25.5t42.5 22.5q178 86 222 64q25 -12 14 -60q-14 -72 -25.5 -148.5t-6.5 -211.5t54 -191q20 -14 45 -14q35 0 66 51q14 25 18 80v84q-8 84 -45 131q-6 6 -20 21.5t-20.5 26.5t-4.5 26q2 18 13.5 33.5t38 33 t39 25.5t52.5 27.5t44 21.5q229 115 237 35q2 -12 -2 -31q-4 -25 -15 -122t-15.5 -253.5t6 -298t58.5 -245t132 -103.5q49 0 68.5 50.5t13.5 107.5z" glyph-name="uniE02E" horiz-adv-x="954" unicode=""/><glyph d="M580 801q127 0 217 -104.5t90 -252.5q0 -143 -99.5 -248.5t-228.5 -105.5q-111 0 -170 43v-2q-27 -254 -176.5 -384t-331.5 -124q-141 6 -246.5 67.5t-152.5 153.5q-63 125 33 176q82 41 182 5q111 -41 106 -142v-12q-6 -57 13.5 -107.5t68.5 -50.5q92 0 152 187 q43 139 43 348v135q-6 94 -35 133q-6 6 -20.5 21.5t-20.5 26.5t-4 26q2 18 13.5 33.5t38 33t38.5 25.5t52 27.5t44 21.5q174 84 217 66q25 -10 21 -45q76 49 156 49zM471 186q90 41 115.5 169t-9 237.5t-94.5 109.5q-29 0 -50 -30.5t-23 -63.5q-10 -72 -17 -225v-133 q6 -39 33 -55.5t45 -8.5z" glyph-name="uniE02F" horiz-adv-x="907" unicode=""/><glyph d="M0 444q0 147 90 252t217 105q80 0 156 -49q-8 86 147 20q25 -10 90 -41q4 -2 44 -21.5t52.5 -27.5t39 -25.5t38 -33t13.5 -33.5q2 -14 -4 -25.5t-20.5 -27t-20.5 -21.5q-29 -39 -35 -133v-135q0 -209 43 -348q59 -186 151 -187q49 0 69 50.5t13 107.5q-10 104 99 149 q98 43 182 5q100 -47 49 -162q-4 -8 -8 -19q-47 -92 -152.5 -153.5t-246.5 -67.5q-182 -6 -332 124t-176 384v2q-59 -43 -170 -43q-129 0 -228.5 105.5t-99.5 248.5zM403 702q-59 0 -93 -109.5t-8 -237.5t114 -169q18 -8 44.5 8.5t33.5 55.5v133q-6 150 -15 225 q-4 35 -25.5 64.5t-50.5 29.5z" glyph-name="uniE030" horiz-adv-x="911" unicode=""/><glyph d="M291 600q25 -49 99.5 -97t152.5 -85t155.5 -108.5t108.5 -162.5q41 -123 -2 -240.5t-160 -193.5q-115 -74 -237.5 -86t-227 14.5t-204 56.5t-197.5 31t-176 -55q-158 -111 -236 -20q-59 68 -31 186q33 129 144 174q12 4 26 9q90 23 183.5 3t166 -65t151.5 -96t139.5 -93 t129 -55.5t119.5 19.5q41 25 65.5 91.5t24.5 125.5q0 76 -50 137.5t-121.5 105.5t-142.5 88t-121 108.5t-50 142.5q0 125 98.5 195.5t257.5 70.5h4q109 0 182.5 -38t102.5 -104q33 -76 -43 -120q-74 -43 -149 -11q-47 23 -66 74q-37 104 -82 113q-29 4 -33 -33 q-4 -35 19 -82z" glyph-name="uniE031" horiz-adv-x="831" unicode=""/><glyph d="M715 -129q-10 102 96 149q98 43 184 5q100 -45 54 -158q-4 -12 -11 -23q-49 -92 -154.5 -153.5t-246.5 -67.5q-94 -4 -188.5 31t-177.5 105.5t-134 194.5t-51 282v346h-47q-14 0 -26.5 12t-12.5 27v28q0 25 39 41q47 18 118.5 100t138 153t116.5 71q14 0 22 -2t20.5 -8.5 t16.5 -26t0 -47.5l-2 -12q-2 -12 -5 -36t-6 -51.5t-7.5 -65.5t-6.5 -75h144q16 0 28.5 -12t12.5 -29v-67h-193q-10 -92 -2 -286t59.5 -388.5t139.5 -194.5q51 0 70.5 50.5t11.5 107.5z" glyph-name="uniE032" horiz-adv-x="659" unicode=""/><glyph d="M829 801q61 0 102.5 -19.5t22.5 -48.5q-10 -18 -55 -47q-51 -33 -149.5 -216t-167.5 -259q-111 -121 -211 -121q-86 0 -111 98q-18 82 -59 193t-104.5 235.5t-135.5 230t-160 175.5t-170 70q-57 0 -88.5 -32t-54.5 -88.5t-35 -72.5q-53 -70 -160 -37q-88 27 -112 92 q-35 90 104 156q141 63 344 64q340 0 600 -233.5t306 -616.5q68 106 98.5 212.5t9.5 149.5q-16 27 -8 47q10 29 72.5 48.5t121.5 19.5z" glyph-name="uniE033" horiz-adv-x="983" unicode=""/><glyph d="M1284.5 801q61.5 0 103.5 -19.5t25 -48.5q-10 -18 -55 -47q-47 -33 -139.5 -216t-157.5 -259q-106 -121 -207 -121q-92 0 -113 98q-23 98 -61 215q-74 -135 -125 -192q-102 -121 -205 -121q-92 0 -114 98q-39 178 -157 390.5t-262.5 363t-246.5 150.5q-57 0 -89 -32 t-54.5 -88.5t-34.5 -72.5q-53 -70 -160 -37q-88 27 -113 92q-35 90 105 156q141 63 344 64q190 0 358 -74t285 -196t192.5 -272.5t100.5 -307.5q63 106 80 182q25 115 -54 172q-8 6 -20 12t-19.5 11.5t-14.5 12.5t-9 15q-12 41 34 56.5t122 15.5q244 0 284 -72 q6 -10 6 -18.5t-1 -12.5t-7 -12t-8 -12q-12 -16 11.5 -77.5t58 -144.5t43.5 -128q63 106 88.5 213.5t3.5 148.5q-16 25 -10 47q10 29 70.5 48.5t122 19.5z" glyph-name="uniE034" horiz-adv-x="1439" unicode=""/><glyph d="M954 162q29 -45 -86 -62q-59 -10 -137 -10q-248 0 -301 55q-20 20 -8 41t23.5 40.5t-21.5 64.5l-33 37q-16 23 -33 0l-61 -82q-23 -31 14 -63.5t31 -43.5q-23 -49 -188 -49q-59 0 -101.5 16.5t-34.5 40.5q8 20 82 46t95 55l124 168q-31 43 -125 177t-140 193.5 t-118.5 145.5t-126 123t-98.5 37q-57 0 -89 -32t-54.5 -88.5t-34.5 -72.5q-53 -70 -160 -37q-88 27 -112 92q-35 90 104 156q141 63 344 64q535 0 856 -627q14 -14 29 4l68 92q25 33 -12.5 64.5t-31.5 44.5q23 49 189 49q57 0 100 -17.5t35 -42.5q-8 -20 -82 -44.5 t-94 -53.5l-133 -180l143 -172q39 -47 100.5 -76.5t77.5 -52.5z" glyph-name="uniE035" horiz-adv-x="946" unicode=""/><glyph d="M1001 801q61 0 109.5 -20.5t32.5 -47.5q-14 -25 -80 -52.5t-80 -51.5l-410 -764q-115 -190 -307 -191q-111 0 -195.5 54.5t-88.5 132.5q-6 80 71.5 140t163.5 55t100 -83q14 -70 50 -115.5t79 -9.5q47 37 54.5 101.5t-43.5 120.5q-53 49 -125 215q-367 807 -574 807 q-57 0 -88.5 -32t-54.5 -88.5t-35 -72.5q-53 -70 -160 -37q-88 27 -112 92q-35 90 104 156q141 63 344 64q115 0 219.5 -30t184.5 -76t154.5 -118.5t126 -140.5t102.5 -159t80.5 -155.5t66.5 -148.5q6 -14 17.5 -14t19.5 14l154 285q12 25 -26 59.5t-28 50.5q33 60 174 60z " glyph-name="uniE036" horiz-adv-x="1167" unicode=""/><glyph d="M963 -68q23 74 157 99q137 23 209 -29.5t-4 -151.5q-76 -98 -269.5 -162.5t-350.5 -64.5q-287 0 -486 142.5t-199 369.5q0 39 27 66l373 415q100 104 12 105q-106 0 -168 -156q-20 -53 -85.5 -65.5t-122 16.5t-56.5 78q0 78 82 142.5t172 64.5h489q59 0 91 -20.5t29 -46 t-17 -48.5l-479 -534q-39 -45 -43.5 -78t20.5 -76q53 -102 161.5 -193.5t192.5 -91.5q92 0 165 66.5t100 152.5z" glyph-name="uniE037" horiz-adv-x="878" unicode=""/><glyph d="M590 799q127 0 217 -104.5t90 -252.5q0 -141 -96 -247.5t-211 -106.5q-78 0 -143.5 11.5t-79.5 11.5q-31 0 -119 -11.5t-101 -11.5q-131 0 -141 72q-2 10 2 18t8 12.5t13.5 12.5t13.5 12q45 41 45 322l-6 333q-238 4 -456 54.5t-292 126.5q-102 102 -32 200q57 80 168 88 q113 10 172 -77q162 -238 440 -293q37 150 183.5 218t277.5 38.5t131 -123.5q0 -150 -266 -205q-4 -143 -5 -172q85 74 187 74zM580 1104q0 41 -43 43q-61 2 -101 -74q-20 -39 -26 -94q78 23 124 56.5t46 68.5zM481 184q113 53 123 240q8 152 -51 238q-49 70 -109 16 q-29 -25 -37 -71t-8 -156q0 -270 66 -271q8 0 16 4z" glyph-name="uniE038" horiz-adv-x="905" unicode=""/><glyph d="M819 813l-6 -86q-4 -53 -4 -188q0 -281 45 -322q4 -4 13.5 -12t13.5 -12.5t7 -12.5t3 -18q-10 -72 -141 -72q-12 0 -101.5 11.5t-118.5 11.5q-14 0 -79.5 -11.5t-143.5 -11.5q-117 0 -212 105.5t-95 248.5q0 147 90 252t217 105q102 0 187 -74q4 35 3 74t-3 67l-2 31 q-266 55 -267 205q0 94 131 123.5t277.5 -39t183.5 -217.5q279 53 440 293q66 98 195 75q109 -18 156 -100q53 -92 -41 -186q-76 -76 -293 -126t-455 -55v-59zM416 186q51 -25 71 95q10 66 11 172q0 111 -8.5 156.5t-36.5 70.5q-70 61 -121 -37q-55 -109 -35 -258 q21 -152 119 -199zM322 1106q0 -35 46 -68.5t121 -56.5q-14 127 -92 160q-49 23 -69 -13q-6 -10 -6 -22z" glyph-name="uniE039" horiz-adv-x="905" unicode=""/><glyph d="M860 748q-92 18 -162 8q96 -39 154.5 -104.5t58.5 -143.5q0 -121 -134 -206t-322 -85q-94 0 -191 27q-6 -35 40 -51.5t118 -17.5t156 -8t153.5 -19.5t112.5 -55.5t33 -115q-10 -86 -82 -145t-113 -49q-20 4 -18 23.5t9 41t-16 39.5q-35 25 -229.5 38.5t-259.5 47.5 q-55 31 -64.5 88.5t15 113.5t65.5 99q-184 88 -184 234q0 121 133 207t322 86q41 0 110 -8q39 63 130 114t169 45q111 -8 117 -88q6 -61 -47 -100q-37 -26 -74 -16zM532 457v104q0 66 -22.5 113t-54.5 47q-31 0 -53.5 -47t-24.5 -113v-104q0 -66 22.5 -113t55 -47t55 47 t22.5 113z" glyph-name="uniE03A" horiz-adv-x="960" unicode=""/><glyph d="M967 219q6 -6 22.5 -16t22.5 -19.5t4 -21.5q-10 -72 -193 -72q-84 0 -154.5 45t-70.5 156v282q0 121 -57 115q-51 -4 -99 -96q-53 -109 -41 -227q14 -123 43 -152q6 -6 18.5 -15.5t17.5 -17.5t3 -18q-10 -72 -245 -72q-227 0 -238 72q0 10 3 18t7 12.5t13.5 12.5t13.5 12 q45 41 45 322l-6 333q-238 4 -456 54.5t-292 126.5q-102 102 -33 200q57 80 168 88q113 10 172 -77q162 -238 441 -293q37 150 183.5 218t277.5 38.5t131 -123.5q0 -150 -267 -205q-6 -211 -8 -274q29 84 90.5 130t116.5 46q111 0 180.5 -81t91 -179.5t45 -197.5t50.5 -124z M573 1106q0 41 -43 43q-61 2 -100 -74q-20 -39 -27 -94q78 23 124 56.5t46 68.5z" glyph-name="uniE03B" horiz-adv-x="1036" unicode=""/><glyph d="M965 219q6 -6 18 -13t17.5 -12.5t10.5 -13.5t3 -18q-10 -72 -191 -72q-86 0 -160.5 45t-74.5 156q0 53 -38 99t-93 38q-66 -8 -54 -82q18 -111 41 -133q6 -6 18.5 -15.5t17.5 -17.5t3 -18q-10 -72 -245 -72q-227 0 -238 72q0 10 3 18t7 12.5t13.5 12.5t13.5 12 q45 41 45 322l-6 333q-238 4 -456 54.5t-292 126.5q-102 102 -33 200q57 80 168 88q113 10 172 -77q162 -238 441 -293q37 150 183.5 218t277.5 38.5t131 -123.5q0 -150 -267 -205q-8 -272 -8 -367l228 168q14 12 9 37t1 35q25 29 135 29q121 0 129 -25q2 -6 -4 -12 q-16 -16 -73.5 -41t-86.5 -45l-133 -96q84 12 149.5 -34t97.5 -109.5t64.5 -132.5t55.5 -87zM573 1106q0 41 -43 43q-61 2 -100 -74q-20 -39 -27 -94q78 23 124 56.5t46 68.5z" glyph-name="uniE03C" horiz-adv-x="1036" unicode=""/><glyph d="M401 899q0 -12 -1 -34.5t-1 -89v-127t2 -137.5t7.5 -135.5t14.5 -104.5t21 -58q6 -6 18.5 -15.5t17.5 -17.5t3 -18q-10 -72 -245 -72q-227 0 -238 72q0 10 3 18t7 12.5t13.5 12.5t13.5 12q45 41 45 322l-6 333q-238 4 -456 54.5t-292 126.5q-102 102 -33 200 q57 80 168 88q113 10 172 -77q162 -238 441 -293q37 150 183.5 218t277.5 38.5t131 -123.5q-1 -150 -267 -205zM573 1106q0 41 -43 43q-61 2 -100 -74q-20 -39 -27 -94q78 23 124 56.5t46 68.5z" glyph-name="uniE03D" horiz-adv-x="495" unicode=""/><glyph d="M737 1104q0 -147 -272 -205q-23 -133 -23 -209h146q16 0 28.5 -12t12.5 -29v-67h-193q-16 -303 60 -353q12 -8 37.5 -8t31.5 -10q20 -45 -61.5 -83t-192.5 -38q-102 0 -163.5 46t-61.5 138v308h-47q-14 0 -26.5 12t-12.5 27v28q0 16 11.5 28.5t27.5 12.5h57q0 27 7.5 73 t15.5 79l8 32q-236 2 -444.5 51.5t-284.5 127.5q-102 102 -33 200q57 80 168 88q113 10 172 -77q162 -238 440 -293q37 150 183.5 218t277.5 38.5t131 -123.5zM643 1106q0 41 -39 43q-57 4 -98 -74q-18 -39 -27 -92q76 20 120 54t44 69z" glyph-name="uniE03E" horiz-adv-x="651" unicode=""/><glyph d="M584 801q127 0 217 -104.5t90 -252.5q0 -143 -95.5 -248.5t-211.5 -105.5q-76 0 -141.5 11.5t-82.5 11.5q-29 0 -117.5 -11.5t-101.5 -11.5q-131 0 -141 72q0 10 3 18t7 12.5t13.5 12.5t13.5 12q45 41 45 322v321q0 41 -17.5 53.5t-62.5 1.5q-434 -100 -719 46 q-94 47 -71 141q18 80 100 117q106 45 213 -37q367 -279 711 -113q37 20 57 30.5t49 16.5t43 -10t14 -55v-267q-2 -10 -2 -29.5v-27.5q85 74 187 74zM475 186q113 53 123 240q8 152 -51 238q-49 70 -109 16q-29 -25 -37 -71t-8 -156q0 -291 74 -269q4 0 8 2z" glyph-name="uniE040" horiz-adv-x="907" unicode=""/><glyph d="M516 1219q217 -16 333 -226.5t62 -478.5q-37 -193 -188.5 -308.5t-341.5 -115.5q-158 0 -269.5 104.5t-111.5 249.5q0 147 111.5 252t269.5 105q111 0 203 -49.5t131 -135.5q43 -94 -51 -145q-80 -43 -158 -16q-80 27 -47 106q27 61 1 117.5t-79 42.5q-35 -10 -56.5 -81 t-21.5 -144q0 -127 78 -181q51 -37 119.5 -36.5t132 31t112 94t58.5 145.5q20 166 -97.5 266t-273.5 84q-111 -10 -135 80q-23 84 43 166q67 82 176 74z" glyph-name="uniE041" horiz-adv-x="905" unicode=""/><glyph d="M852 217q4 -4 13 -12t13.5 -12.5t8.5 -12.5t2 -18q-10 -72 -141 -72q-10 0 -100.5 11.5t-119.5 11.5q-14 0 -79.5 -11.5t-143.5 -11.5q-115 0 -211 106.5t-96 247.5q0 147 90 252t217 105q102 0 187 -74v115q0 45 -15.5 64.5t-58.5 8.5q-434 -100 -719 46q-94 47 -72 141 q18 80 101 117q106 45 213 -37q367 -279 710 -113q37 20 57.5 30.5t49 16.5t43 -10t14.5 -55q-8 -440 -8 -512q0 -281 45 -322zM414 186q51 -25 71 95q10 66 11 172q0 111 -8.5 156.5t-36.5 70.5q-70 61 -121 -37q-55 -109 -35 -258q21 -152 119 -199z" glyph-name="uniE042" horiz-adv-x="901" unicode=""/><glyph d="M516 1219q217 -16 333 -226.5t62 -478.5q-37 -193 -188.5 -308.5t-341.5 -115.5q-158 0 -269.5 104.5t-111.5 249.5q0 147 111.5 252t269.5 105q104 0 188 -39t121 -111q45 -88 -51 -182t-217 -102q-63 -4 -100 18q41 -111 151.5 -121t211.5 73t118 212q20 166 -97.5 266 t-273.5 84q-111 -10 -135 80q-23 84 43 166q67 82 176 74zM381 721q-37 0 -57.5 -74t-20.5 -151q0 -23 4 -60l4 2q6 4 11 6q57 35 80.5 103.5t14.5 121t-36 52.5z" glyph-name="uniE043" horiz-adv-x="894" unicode=""/><glyph d="M745 229q55 0 107.5 -35.5t79 -96t26.5 -130t-55 -146.5t-162 -136q-98 -55 -209.5 -57.5t-213 24t-206 48t-222 1.5t-226.5 -104q-92 -72 -153 8q-57 76 -33 192q27 125 137 180q98 41 177 33t172 -52t166 -92t161 -88t155 -40q80 0 132.5 57.5t50.5 111.5t-33 79 q-35 16 -117 -11.5t-170 -21.5q-82 6 -136 33.5t-70.5 66.5t-10.5 80t40 76t85 51q-100 41 -158.5 106.5t-58.5 141.5q0 121 134 207t323 86q37 0 110 -8q37 63 128 114t169 45q111 -8 119 -88q4 -61 -49 -100q-35 -27 -74 -16q-90 20 -162 8q96 -39 154.5 -104.5 t58.5 -143.5q0 -121 -134 -206t-320 -85q-43 0 -66 2q-80 -31 -115 -106q-33 -74 21 -95q6 0 12 -2q49 -8 102.5 23t96.5 74t107 79.5t130 36.5zM379 561v-104q0 -66 22.5 -113t55.5 -47q31 0 54.5 47t23.5 113v104q0 66 -23 113t-55.5 47t-55 -47t-22.5 -113z" glyph-name="uniE044" horiz-adv-x="960" unicode=""/><glyph d="M967 219q6 -4 21.5 -15t21.5 -20.5t4 -21.5q-10 -72 -191 -72q-84 0 -155.5 45t-71.5 156v282q0 121 -57 115q-49 -4 -97 -94q-53 -109 -41 -229q10 -119 43 -152q6 -6 17.5 -15.5t16.5 -17.5t5 -18q-10 -72 -245 -72q-227 0 -238 72q-2 10 2 18t6 11.5t14.5 13.5 t14.5 12q45 41 45 322v321q0 41 -17.5 53.5t-62.5 1.5q-434 -100 -719 46q-94 47 -71 141q18 80 100 117q106 45 213 -37q367 -279 711 -113q37 20 57 30.5t49 16.5t43 -10t14 -55q-6 -373 -6 -426q29 84 90.5 130t116.5 46q111 0 180.5 -81t91 -179.5t45 -197.5t50.5 -124z " glyph-name="uniE045" horiz-adv-x="1028" unicode=""/><glyph d="M211 731q170 86 211 66q27 -14 16 -62q-14 -63 -26.5 -278t2.5 -353v-145q0 -152 -160 -242q-82 -45 -150.5 -38.5t-155.5 24.5t-164 37.5t-177.5 4.5t-192.5 -77q-117 -78 -186 4q-57 68 -33 168q23 92 105 135q100 49 235 18.5t251 -94t223.5 -101.5t150.5 -1 q25 18 22.5 56t-16.5 74t-35 67q-2 2 -16.5 17.5t-22.5 33.5t-8 45v12l4 54q16 283 -43 360q-6 6 -20.5 21.5t-20.5 26.5t-4 26q2 20 27.5 42.5t52 36t72 34t59.5 28.5zM229.5 801q-63.5 0 -107.5 44t-44 107.5t44 107.5t107.5 44t107.5 -44t44 -107.5t-44 -107.5 t-107.5 -44z" glyph-name="uniE046" horiz-adv-x="477" unicode=""/><glyph d="M965 219q6 -6 18 -13t17.5 -12.5t10.5 -13.5t3 -18q-10 -72 -193 -72q-84 0 -158.5 45t-74.5 156q0 53 -38 99t-93 38q-66 -8 -54 -82q14 -106 41 -133q6 -6 17.5 -15.5t16.5 -17.5t5 -18q-10 -72 -245 -72q-227 0 -238 72q-2 10 2 18t6 11.5t14.5 13.5t14.5 12 q45 41 45 322v321q0 41 -17.5 53.5t-62.5 1.5q-434 -100 -719 46q-94 47 -71 141q18 80 100 117q106 45 213 -37q367 -279 711 -113q37 20 57 30.5t49 16.5t43 -10t14 -55l-6 -519l228 168q12 12 8 38t2 34q25 29 133 29q127 0 131 -27q2 -4 -4 -10q-16 -16 -73.5 -41 t-88.5 -45l-133 -96q86 12 151.5 -34t97.5 -109.5t64.5 -132.5t55.5 -87z" glyph-name="uniE047" horiz-adv-x="1034" unicode=""/><glyph d="M444 213q6 -6 17.5 -15.5t16.5 -17.5t5 -18q-10 -72 -245 -72q-227 0 -238 72q-2 10 2 18t6 11.5t14.5 13.5t14.5 12q45 41 45 322v321q0 41 -17.5 53.5t-62.5 1.5q-434 -100 -719 46q-94 47 -71 141q18 80 100 117q106 45 213 -37q367 -279 711 -113q37 20 57 30.5 t49 16.5t43 -10t14 -55q-2 -31 -4 -81t-4 -183.5t0 -240t15 -206.5t38 -127z" glyph-name="uniE048" horiz-adv-x="499" unicode=""/><glyph d="M590 690q16 0 27.5 -12t11.5 -29v-67h-191q-16 -305 60 -353q12 -8 37.5 -8t29.5 -10q20 -45 -60.5 -83t-193.5 -38q-102 0 -163.5 46t-61.5 138v308h-45q-16 0 -28.5 11t-12.5 28v28q0 20 41 41q49 25 61.5 86.5t-17.5 106.5t-85 32q-397 -88 -657 46q-94 47 -72 141 q18 80 100 117q106 45 213 -37q104 -80 221 -124t255.5 -49t265.5 60q37 20 57 30.5t49 16.5t42 -10t13 -55q-41 -240 -43 -361h146z" glyph-name="uniE049" horiz-adv-x="649" unicode=""/><glyph d="M1100 1102q111 -49 61 -123q-45 -70 -176 -94q-90 -16 -172 6q-98 27 -246.5 -85t-167.5 -249q-18 -92 -7 -196.5t52 -147.5q6 -6 18.5 -15.5t17.5 -17.5t3 -18q-10 -72 -245 -72q-227 0 -238 72q-2 10 2 18t8 12.5t13.5 12.5t13.5 12q33 29 37 143.5t-29 155.5 q-6 6 -20.5 21.5t-20.5 26.5t-4 26q2 18 13.5 33.5t38 33t38.5 25.5t52 27.5t44 21.5q199 100 232 55q117 186 324.5 284t357.5 32z" glyph-name="uniE04A" horiz-adv-x="512" unicode=""/><glyph d="M317 600q25 -49 100 -97t152.5 -85t155.5 -108.5t109 -162.5q66 -197 -96.5 -359.5t-452.5 -162.5q-242 0 -336 156q-76 123 -21 252q57 133 205 160q29 4 60 4q131 0 180 -117q43 -96 -1 -173t-139 -42q-129 47 -157 -12q-20 -47 37 -101q55 -51 143 -51q102 0 179 66.5 t77 185.5q0 76 -50 137.5t-121 105.5t-142.5 88t-121.5 108.5t-50 142.5q0 125 98 195.5t258 70.5h4q109 0 182.5 -38t102.5 -104q33 -76 -43 -120q-74 -43 -150 -11q-47 23 -65 74q-37 104 -82 113q-29 4 -33 -33q-5 -35 18 -82z" glyph-name="uniE04B" horiz-adv-x="843" unicode=""/><glyph d="M979 801q61 0 108.5 -20.5t30.5 -47.5q-14 -25 -79.5 -52.5t-80.5 -51.5l-409 -764q-31 -49 -81 -103.5t-99 -72.5q-61 -20 -144.5 -14t-164 36.5t-177 53t-185.5 30.5t-187.5 -28.5t-184.5 -124.5q-78 -80 -143 -15q-61 59 -49 168q12 113 106 178q98 68 217 70 t230.5 -43t215 -99.5t205 -100.5t164.5 -46q53 0 98.5 40t68 92.5t21.5 105.5t-28 78q-61 57 -104 167.5t-88 219t-113 164.5q-14 12 -47 31.5t-52.5 37t-27.5 39.5q-8 20 22.5 36.5t85 23t100.5 9.5t87 3q295 0 323 -72q6 -18 -2 -28.5t-22 -16.5t-22.5 -26.5t-0.5 -57.5 q0 -4 12.5 -43t36 -101.5t46.5 -109.5q6 -14 17 -14t19 14l154 285q12 25 -25.5 59.5t-27.5 50.5q33 60 176 60z" glyph-name="uniE04C" horiz-adv-x="1130" unicode=""/><glyph d="M895 940q31 -80 -80 -135q-100 -51 -190 -29q-86 23 -56 111q25 76 -7 121t-97 28q-51 -12 -79 -87t-15.5 -154.5t59.5 -104.5h74q16 0 27.5 -12t11.5 -29v-67h-123q-14 -285 37 -351q6 -8 21.5 -19t23.5 -22.5t6 -27.5q-12 -72 -246 -72q-252 0 -262 72q-2 14 7 23.5 t26.5 20.5t25.5 21q31 39 42.5 143.5t4.5 211.5h-43q-16 0 -27 11t-11 28v28q0 16 11 28.5t27 12.5h31q-41 180 86 304t324 124h2q152 0 250 -37t139 -141zM999 735q-12 -55 -22 -142t-4 -211t47 -169q6 -6 18.5 -15.5t17.5 -17.5t5 -18q-10 -72 -246 -72q-227 0 -237 72 q-2 10 2 18t6 11.5t14 13.5t14 12q31 29 35 143.5t-26 155.5q-6 6 -20.5 21.5t-21 26.5t-3.5 26q2 18 13 33.5t37.5 33t39 25.5t52.5 27.5t44 21.5q229 115 237 35q2 -13 -2 -31z" glyph-name="uniFB01" horiz-adv-x="1128" unicode=""/><glyph d="M967 213q6 -6 18 -15.5t17.5 -17.5t3.5 -18q-10 -72 -246 -72q-227 0 -238 72q0 10 3 18t7.5 12.5t13.5 12.5t13 12q45 41 45 322q0 131 -11 229t-29.5 152.5t-43 87t-51.5 33.5t-53 -5q-45 -18 -59.5 -93t7 -152.5t66.5 -100.5h102q16 0 27.5 -12t11.5 -29v-67h-151 q-14 -285 37 -351q6 -8 21.5 -19t23.5 -22.5t6 -27.5q-12 -72 -246 -72q-252 0 -262 72q-2 14 7 23.5t26.5 20.5t25.5 21q31 39 42.5 143.5t4.5 211.5h-43q-16 0 -27 11t-11 28v28q0 16 11 28.5t27 12.5h31q-39 178 76 303t283 125h2q160 0 260 -67q193 94 225 53 q14 -18 6 -53q-10 -41 -22.5 -217.5t-5 -376t48.5 -244.5z" glyph-name="uniFB02" horiz-adv-x="1050" unicode=""/></font>
</defs>
</svg>
